<svg height="464pt" viewBox="-136 0 464 464" width="464pt" xmlns="http://www.w3.org/2000/svg"><path d="m16 0c-8.835938 0-16 7.164062-16 16v432c0 8.835938 7.164062 16 16 16s16-7.164062 16-16v-432c0-8.835938-7.164062-16-16-16zm0 0" fill="#754c29"/><path d="m160 136v312c0 8.835938 7.164062 16 16 16s16-7.164062 16-16v-432c0-8.835938-7.164062-16-16-16s-16 7.164062-16 16zm0 0" fill="#754c29"/><path d="m32 216h128v32h-128zm0 0" fill="#a97c50"/><path d="m32 296h128v32h-128zm0 0" fill="#a97c50"/><path d="m32 376h128v32h-128zm0 0" fill="#a97c50"/><path d="m32 136h128v32h-128zm0 0" fill="#a97c50"/><path d="m32 56h128v32h-128zm0 0" fill="#a97c50"/><g fill="#8b5e3c"><path d="m32 56h16v32h-16zm0 0"/><path d="m32 136h16v32h-16zm0 0"/><path d="m32 216h16v32h-16zm0 0"/><path d="m32 296h16v32h-16zm0 0"/><path d="m32 376h16v32h-16zm0 0"/><path d="m144 56h16v32h-16zm0 0"/><path d="m144 136h16v32h-16zm0 0"/><path d="m144 216h16v32h-16zm0 0"/><path d="m144 296h16v32h-16zm0 0"/><path d="m144 376h16v32h-16zm0 0"/></g></svg>