<svg id="Layer_1" data-name="Layer 1" xmlns="http://www.w3.org/2000/svg" viewBox="0 0 500 500"><defs><style>.cls-1{fill:#646870;}.cls-2{fill:#404a5b;}.cls-3{fill:#d8d57c;}.cls-4{stroke:#cbd0d8;stroke-miterlimit:10;stroke-width:0.25px;}</style></defs><title>joffrey</title><ellipse class="cls-1" cx="213.77" cy="245.05" rx="9.26" ry="8.47"/><ellipse class="cls-1" cx="314.46" cy="243.39" rx="9.26" ry="7.34"/><path d="M237.94,249c.15.33-2.13,1.78-6.15,3.42a68.21,68.21,0,0,1-16.4,4.26,51.9,51.9,0,0,1-9.42.51,15.62,15.62,0,0,1-7.64-2.29,9.48,9.48,0,0,1-3.6-4c-.5-1.19-.46-1.92-.3-2s.51.54,1.21,1.42a10.88,10.88,0,0,0,3.66,2.91,15.24,15.24,0,0,0,6.78,1.44,67.16,67.16,0,0,0,8.95-.7C227.82,252.3,237.63,248.22,237.94,249Z"/><path d="M234.56,244.62c-.34.31-2.08-1.63-5.65-3.46A25.59,25.59,0,0,0,214,238.37a22,22,0,0,0-8,2.51c-2.3,1.27-4.36,2.71-6.27,3.69a14.51,14.51,0,0,1-4.85,1.67c-1.23.12-1.9-.06-1.91-.22s.61-.4,1.65-.81a22.34,22.34,0,0,0,4.12-2.3c1.68-1.12,3.56-2.69,6-4.2a21.86,21.86,0,0,1,8.89-3,24.62,24.62,0,0,1,9.34.68,22.52,22.52,0,0,1,6.91,3.17,20.59,20.59,0,0,1,2.29,1.8c.6.62,1.12,1.14,1.49,1.61C234.39,243.91,234.71,244.49,234.56,244.62Z"/><path d="M334.11,244.45c-.2.34-2.51-.68-6.16-2.32-1.83-.8-4-1.75-6.46-2.56A28.76,28.76,0,0,0,313.4,238c-5.8-.29-10.74,2.44-14.45,4a21.58,21.58,0,0,0-4.07,2.11c-.88.62-1.32,1.07-1.49,1s0-.77.75-1.73a13.83,13.83,0,0,1,3.93-3.07,52.52,52.52,0,0,1,6.43-3.3,21.05,21.05,0,0,1,9-1.68,26.94,26.94,0,0,1,8.86,1.91,43.11,43.11,0,0,1,6.49,3.21C332.34,242.54,334.28,244.14,334.11,244.45Z"/><path d="M332.81,246.49c.13.11-.07.69-.73,1.56a12.71,12.71,0,0,1-3.5,3,19.47,19.47,0,0,1-6.42,2.36,34.91,34.91,0,0,1-8.21.42c-11.46-.66-20.38-3.34-20.21-4s9.19.68,20.35,1.32a42.62,42.62,0,0,0,7.67-.18,22,22,0,0,0,5.93-1.59C330.93,247.94,332.48,246.22,332.81,246.49Z"/><path d="M282.42,255.13c-.17,0-.48-.4-.72-1.32a9.39,9.39,0,0,1,0-4,15,15,0,0,1,2.29-5.42,31.89,31.89,0,0,1,4.56-5.33,16.12,16.12,0,0,1,6.05-4,15.05,15.05,0,0,1,5.87-.62c3.25.31,5.1,1,5.08,1.32s-2,.41-5.08.61a16.77,16.77,0,0,0-5,1,16,16,0,0,0-5,3.6,43.72,43.72,0,0,0-4.39,4.8,16.86,16.86,0,0,0-2.49,4.48C282.54,253.1,282.82,255,282.42,255.13Z"/><path d="M336.71,241.74c-.25.71-2.35.6-4.67-.25s-4-2.1-3.75-2.81,2.35-.59,4.68.25S337,241,336.71,241.74Z"/><path d="M188.1,244.15c-.28-.23,0-1.13.74-2.4a10,10,0,0,1,1.72-2.08,8.21,8.21,0,0,1,3-1.76,11.07,11.07,0,0,1,6-.14c1.43.35,2.25.81,2.21,1.18s-1,.6-2.35.74a23.69,23.69,0,0,0-5,.8,13.35,13.35,0,0,0-4.14,2.53C189.2,243.89,188.4,244.4,188.1,244.15Z"/><circle cx="313.81" cy="243.23" r="1.49"/><path class="cls-2" d="M319.9,244.5a1.24,1.24,0,1,1-1.54-1.87,1.21,1.21,0,0,1,1.54,1.87Z"/><path class="cls-2" d="M313.45,239.13a1.14,1.14,0,0,1,1-.33,1.11,1.11,0,0,1,.59,1.81,1.12,1.12,0,0,1-1,.3,4,4,0,0,1-.95-.26c-.25-.1-.41-.16-.44-.27s.05-.26.2-.48A4.25,4.25,0,0,1,313.45,239.13Z"/><path class="cls-2" d="M305.92,244.79a1.8,1.8,0,0,1,3-1.61c.5.56.22,1.62-.76,2.15S306.11,245.51,305.92,244.79Z"/><path class="cls-2" d="M314.43,248.74a7.11,7.11,0,0,1-.95.23c-.25.05-.4.11-.46.07s0-.2,0-.46a6,6,0,0,1,.06-1,1.07,1.07,0,0,1,.58-.84,1.12,1.12,0,0,1,1.5,1.25A1.06,1.06,0,0,1,314.43,248.74Z"/><ellipse cx="213.12" cy="244.86" rx="1.49" ry="1.71"/><path class="cls-2" d="M219.21,246.32a1.34,1.34,0,1,1-1.54-2.15,1.54,1.54,0,0,1,1.74.39A1.56,1.56,0,0,1,219.21,246.32Z"/><path class="cls-2" d="M212.76,240.13a1.08,1.08,0,0,1,1-.23,1.23,1.23,0,0,1,.55,1.95,1.17,1.17,0,0,1-1,.34c-.74-.12-1.32-.44-1.41-.73a.81.81,0,0,1,.19-.58A2.85,2.85,0,0,1,212.76,240.13Z"/><path class="cls-2" d="M205.23,246.66a1.9,1.9,0,0,1,3-1.86c.53.53.31,1.62-.67,2.24S205.45,247.37,205.23,246.66Z"/><path class="cls-2" d="M213.74,251.22a4.34,4.34,0,0,1-1,.15c-.27,0-.44,0-.5,0s0-.21,0-.47,0-.61.09-1a1,1,0,0,1,.65-.8,1.19,1.19,0,0,1,1.17.32,1.11,1.11,0,0,1,.31,1.11A1.08,1.08,0,0,1,213.74,251.22Z"/><path d="M255,318.62c-.74.14-1.81-2.58-4.5-4.23s-5.57-1.48-5.76-2.21c-.1-.34.59-.93,2-1.19a7.73,7.73,0,0,1,8.52,5.35C255.61,317.68,255.38,318.56,255,318.62Z"/><path d="M284.92,309.64c.23.73-2.26,2.16-5.17,4-1.45.9-2.81,1.76-3.79,2.29-.46.25-.77.43-1,.59s-.42.31-.61.3-.38-.24-.37-.7a2.92,2.92,0,0,1,.69-1.61,14,14,0,0,1,3.66-3.18C281.55,309.29,284.71,308.93,284.92,309.64Z"/><path d="M290.49,311.56c.08-.18.41-.19.81-.37a2.72,2.72,0,0,0,1.26-1.15,3.93,3.93,0,0,0,.28-2.54c-.17-1.1-.54-2.55-.79-4-1.07-5.88-1.35-10.76-.61-10.9s2.22,4.53,3.29,10.41a37.39,37.39,0,0,1,.61,4.3,7,7,0,0,1-.25,2.18,4.09,4.09,0,0,1-1,1.8,3.13,3.13,0,0,1-2.71,1C290.62,312.09,290.41,311.71,290.49,311.56Z"/><path d="M268.75,316.39c.18,0,.37.21.42.64a2.46,2.46,0,0,1-.57,1.66,4.05,4.05,0,0,1-2.16,1.42,5.79,5.79,0,0,1-3-.07,11.35,11.35,0,0,1-2.42-1l-1.66-.89c-.89-.51-1.53-.79-1.56-1.17s.76-.79,2.06-.69a22.78,22.78,0,0,1,4.27,1.1,4.17,4.17,0,0,0,3.16-.12C268,317,268.37,316.39,268.75,316.39Z"/><path d="M240.8,311.57c-.2,0-.35-.33-.63-.82a11.27,11.27,0,0,0-1.41-1.89,19.65,19.65,0,0,1-2.5-3.14,7,7,0,0,1-.88-2.59,9,9,0,0,1,.1-2.83,17.15,17.15,0,0,1,1.78-4.71c.68-1.29,1.29-2.38,1.73-3.32.9-1.85,1.09-3.14,1.48-3.17.18,0,.4.33.51,1a7.64,7.64,0,0,1-.17,2.8,23.58,23.58,0,0,1-1.28,3.76,22.43,22.43,0,0,0-1.37,4.15,6,6,0,0,0,.33,3.76c.5,1.12,1.3,2.18,1.85,3.2a5.88,5.88,0,0,1,.86,2.74C241.2,311.22,241,311.57,240.8,311.57Z"/><path d="M302.27,339.38c-.11.36-4.07-.45-10.37-2a57.31,57.31,0,0,0-11-1.79c-4.1-.22-8.64.88-13.77,1.23a46.7,46.7,0,0,1-7.4-.3c-1.16-.1-2.26-.18-3.33-.2-.54,0-1.06,0-1.58.05s-1,.07-1.53.15a73.5,73.5,0,0,0-10.84,2.77,35.52,35.52,0,0,1-7.65,1.58c-1.86.12-2.89-.09-2.89-.25s1-.37,2.72-.8a60.06,60.06,0,0,0,7.21-2.35A58.31,58.31,0,0,1,252.93,334c.55-.1,1.12-.16,1.7-.21s1.17-.09,1.76-.1c1.18,0,2.37,0,3.55.14a48.74,48.74,0,0,0,7,.24c4.75-.31,9.53-1.39,14.06-1a49,49,0,0,1,11.38,2.43C298.62,337.56,302.37,339,302.27,339.38Z"/><path d="M303.14,343.48c.05.42-3.83,1-9.78,2.89a77,77,0,0,0-10.15,4.05A51.93,51.93,0,0,1,277,353a24.09,24.09,0,0,1-7.32,1.12,51.63,51.63,0,0,1-7.2-.53,58.33,58.33,0,0,1-6.59-1.17,25.54,25.54,0,0,1-5.8-2.17c-1.71-.9-3.16-1.84-4.51-2.61A18.57,18.57,0,0,0,239,345c-1.67-.26-2.64-.08-2.69-.29s.87-.7,2.75-.77a16.24,16.24,0,0,1,7.48,2c1.46.7,3,1.54,4.6,2.29a24.78,24.78,0,0,0,5.38,1.75c2,.43,4.1.71,6.35,1a57.07,57.07,0,0,0,6.84.46,22.45,22.45,0,0,0,6.55-.94,57.67,57.67,0,0,0,6-2.35,61.15,61.15,0,0,1,10.67-3.62C299.11,343.06,303.11,343.15,303.14,343.48Z"/><path d="M296.19,341.36c-.1.41-3.13-.19-8-.46a65.45,65.45,0,0,0-8.55.1c-1.6.13-3.27.33-5,.62s-3.51.68-5.41,1a31.82,31.82,0,0,1-5.73.58,30.64,30.64,0,0,1-5.34-.54c-3.31-.62-6.14-1.4-8.53-1.84-4.77-1-7.76-.4-7.87-.81,0-.09.15-.22.5-.37a7,7,0,0,1,1.58-.5,20.4,20.4,0,0,1,6.06-.23c2.53.22,5.47.82,8.65,1.27a31.88,31.88,0,0,0,4.93.35,32.38,32.38,0,0,0,5.27-.6c1.83-.32,3.66-.71,5.47-1a50.08,50.08,0,0,1,5.26-.5,48.27,48.27,0,0,1,8.9.49C293.4,339.77,296.29,341,296.19,341.36Z"/><path d="M248.6,345.32a6.1,6.1,0,0,0,.28-1.45,6.24,6.24,0,0,0-.28-1.45,1.81,1.81,0,0,1,.54,1.45A1.79,1.79,0,0,1,248.6,345.32Z"/><path d="M253,347.89c-.07,0,.08-1.19,0-2.65s-.25-2.62-.17-2.64a7.58,7.58,0,0,1,.43,2.64A7.26,7.26,0,0,1,253,347.89Z"/><path d="M257,348.66c-.08,0,.06-1.14-.09-2.51s-.52-2.45-.45-2.47a5.57,5.57,0,0,1,.7,2.44A5.88,5.88,0,0,1,257,348.66Z"/><path d="M261.25,349a7.09,7.09,0,0,0,.48-2.28c0-1.28-.17-2.35-.08-2.36a2.42,2.42,0,0,1,.19.68,7.82,7.82,0,0,1,.15,1.69A3.26,3.26,0,0,1,261.25,349Z"/><path d="M263.37,350.1a1.76,1.76,0,0,0,.78-.4,4.78,4.78,0,0,0,1-1.91c.55-1.63.7-3,.78-3a8.24,8.24,0,0,1-.54,3.1,4.34,4.34,0,0,1-1.07,2C263.78,350.23,263.35,350.13,263.37,350.1Z"/><path d="M270.57,349.87a14.12,14.12,0,0,0-.33-2.84,14.91,14.91,0,0,0-1.11-2.64,6.39,6.39,0,0,1,1.44,5.48Z"/><path d="M276.07,349.49c-.07,0-.61-1.43-1.68-3a33.78,33.78,0,0,0-2.17-2.67,3.08,3.08,0,0,1,.8.64,12.06,12.06,0,0,1,2.75,4A3,3,0,0,1,276.07,349.49Z"/><path d="M281.25,347.64s0-.33,0-.84a4,4,0,0,0-.78-1.82,9.13,9.13,0,0,0-1.43-1.43,3.08,3.08,0,0,1-.63-.58,2.67,2.67,0,0,1,.74.44,7.14,7.14,0,0,1,1.53,1.42,3.63,3.63,0,0,1,.75,1.95A1.5,1.5,0,0,1,281.25,347.64Z"/><path d="M285.74,345.39a14.15,14.15,0,0,0-1.22-1.81,15.11,15.11,0,0,0-1.65-1.42,4.55,4.55,0,0,1,2.87,3.23Z"/><path d="M362.94,262.83a20.54,20.54,0,0,1,0,3.85c-.08,2.51-.31,6.22-.7,11S361.17,288.25,360,295a137.7,137.7,0,0,1-5.79,22.42,152.27,152.27,0,0,1-11.95,25.41c-1.25,2.19-2.63,4.36-4,6.59s-2.87,4.4-4.34,6.65a124,124,0,0,1-10.09,13.24,83,83,0,0,1-6.12,6.19,73,73,0,0,1-7,5.53,143.29,143.29,0,0,1-15.69,9.29c-5.47,2.8-10.95,5.89-17.09,8.1a38.75,38.75,0,0,1-9.65,2.22,32.66,32.66,0,0,1-10-.72c-6.6-1.48-12.51-4.23-18.29-7a135.38,135.38,0,0,1-16.41-9.38,150.41,150.41,0,0,1-14.51-11.05,147.63,147.63,0,0,1-12.46-12.27,139.85,139.85,0,0,1-10.36-13A145.68,145.68,0,0,1,178,333.91,143.62,143.62,0,0,1,167.14,308a137.72,137.72,0,0,1-6-40.07q0-1.79,0-3.39c0-1.06.1-2,.14-3,.09-1.84.19-3.4.34-4.65a20.67,20.67,0,0,1,.55-3.81,20.9,20.9,0,0,1,0,3.84c-.07,1.26-.08,2.81-.08,4.64,0,.92,0,1.91,0,3s.06,2.18.09,3.37A142.83,142.83,0,0,0,180,332.82a143.86,143.86,0,0,0,8.26,13,138.4,138.4,0,0,0,10.27,12.71,145.46,145.46,0,0,0,12.29,12,150.42,150.42,0,0,0,14.28,10.8,133.92,133.92,0,0,0,16.12,9.16c5.66,2.67,11.54,5.37,17.69,6.74a30.06,30.06,0,0,0,9.23.67,36,36,0,0,0,9-2.06c5.82-2.08,11.3-5.13,16.76-7.92a139,139,0,0,0,15.44-9.05,71.19,71.19,0,0,0,6.78-5.31,81.61,81.61,0,0,0,6-5.95,125.07,125.07,0,0,0,10-12.91l4.35-6.56c1.35-2.19,2.73-4.33,4-6.48a154.07,154.07,0,0,0,12.08-24.92c5.87-15.94,7.5-29.77,8.74-39.19.56-4.73,1-8.42,1.21-10.92A20.36,20.36,0,0,1,362.94,262.83Z"/><path class="cls-3" d="M166.91,163.08s-.35,94.19-9.39,94.54-27.8-45.88-27.11-49.36-3.12-37.19,9.74-54.57-1.05-41-1.05-41l-8.71-7.3,11.49-8.69L139.1,86.27l17.38-15s31-21.9,37.76-24.33-6.14-3.47-6.14-3.47L200.28,40s-9.75-2.43-12.18-2.43S178,39,200.28,35.87s6.44-16.68,6.44-16.68,1.87,4.17,16.31,8.68,32.16,4.87,32.16,4.87l-22.94-7.3s26.07-8,39.28,3.48S299,14.67,299,14.67,336,8.41,332.81,18.84s8.93-.35,8.93-.35l-5,8L356,24.75,336.71,34.83s19.62,68.81,34.22,91.41,22.59,121.62,16.69,112.42-4.18,4-4.18,4l-8.68-1.72.34,8.6-10.77-2.85S356,125.89,338.26,129.71,174.56,170.38,166.91,163.08Z"/><polygon points="137.02 125.08 101.22 45.25 137.02 69.58 123.81 33.78 153.01 57.77 167.6 22.66 171.17 61.19 232.95 79.66 293.39 50.47 307.41 10.5 319.13 50.47 340.69 5.98 343.56 57.37 361.55 -2.36 358.32 93.52 137.02 125.08"/><path class="cls-4" d="M134,140.49s0,14.6,54.56,7.64,168.23-22.59,174.83-36.49,6.33-30.88,0-27.81-136.94,27.93-170,32.91c-30.6,4.61-51.05,4.35-58,4.29H134C128.82,121,134,140.49,134,140.49Z"/><path d="M225.2,228.8a11.73,11.73,0,0,1,1.13,1.1c.69.69,1.66,1.62,2.8,2.57s2.23,1.74,3,2.29a11.75,11.75,0,0,1,1.29.91,1.57,1.57,0,0,1-.39-.18c-.24-.13-.59-.32-1-.58a28.82,28.82,0,0,1-3.1-2.25A28.25,28.25,0,0,1,226.2,230c-.33-.37-.59-.67-.75-.88A2,2,0,0,1,225.2,228.8Z"/><path d="M227.31,234.16c0-.07,3.34-.07,7.47,0s7.46.17,7.46.24-3.34.08-7.47,0S227.31,234.23,227.31,234.16Z"/><path d="M227.83,233.28a36.08,36.08,0,0,1,4.13,1.15,36.52,36.52,0,0,1,4,1.4,76.23,76.23,0,0,1-8.17-2.55Z"/><path d="M229,232.17a7.66,7.66,0,0,1,2.81,0,7.66,7.66,0,0,1-2.81,0Z"/><path d="M224.1,231.17s-.14,0-.31.07-.17.17-.1.18h.2l.29,0c.81.07,1.92.19,3.15.34s2.34.3,3.15.42a7.56,7.56,0,0,1,1.29.24,5.88,5.88,0,0,1-1.31-.07c-.81-.07-1.93-.19-3.16-.34s-2.34-.29-3.14-.41l-.6-.1-.08,0,0-.08.06-.14a.42.42,0,0,1,.18-.14C224,231.05,224.12,231.17,224.1,231.17Z"/><path d="M228.68,232.05a2.19,2.19,0,0,0,.81.9,17.24,17.24,0,0,0,2.83,1c1.14.37,2.16.72,2.89,1a7.07,7.07,0,0,1,1.18.48,6.88,6.88,0,0,1-1.23-.31c-.75-.22-1.78-.54-2.92-.91a13.21,13.21,0,0,1-2.85-1.12A1.39,1.39,0,0,1,228.68,232.05Z"/><path d="M230.24,232.49a6.64,6.64,0,0,1,1.48.15,31.1,31.1,0,0,1,3.53.77,33.94,33.94,0,0,1,3.42,1.14,7.93,7.93,0,0,1,1.35.63,12,12,0,0,1-1.42-.46c-.87-.3-2.07-.69-3.42-1.07s-2.59-.64-3.49-.83A12.59,12.59,0,0,1,230.24,232.49Z"/><path d="M228.46,231.53a12.36,12.36,0,0,1,3.1.17,12.11,12.11,0,0,1,3,.72c0,.07-1.38-.23-3.06-.47S228.45,231.61,228.46,231.53Z"/><path d="M226.29,233.19c0-.07,1.2.48,2.72,1s2.78.74,2.77.82a9.22,9.22,0,0,1-2.85-.58A8.91,8.91,0,0,1,226.29,233.19Z"/><path d="M223.1,231.53a20,20,0,0,1,3.21.32,21.11,21.11,0,0,1,3.17.57,19.92,19.92,0,0,1-3.21-.32A19.7,19.7,0,0,1,223.1,231.53Z"/><path d="M221.18,231.78a9,9,0,0,1,2.12.13,8.8,8.8,0,0,1,2.09.38,16.62,16.62,0,0,1-4.21-.51Z"/><path d="M215.56,230.53a12.49,12.49,0,0,1,2.45.39,12.23,12.23,0,0,1,2.4.65,12,12,0,0,1-2.45-.4A11.84,11.84,0,0,1,215.56,230.53Z"/><ellipse cx="224.76" cy="231.66" rx="4.72" ry="0.13"/><path d="M216.71,231.53a11.51,11.51,0,0,1,3.45,0,11.51,11.51,0,0,1-3.45,0Z"/><path d="M216.07,230.89c0-.07.45-.07,1,0s.95.19.94.26-.45.07-1,0A2,2,0,0,1,216.07,230.89Z"/><ellipse cx="216.01" cy="231.66" rx="1.47" ry="0.13"/><path d="M209.44,232.43c0-.08,1.54,0,3.44.12s3.45.06,3.45.13a3.67,3.67,0,0,1-1,.12c-.63,0-1.49,0-2.45,0s-1.81-.11-2.44-.19A3.62,3.62,0,0,1,209.44,232.43Z"/><path d="M211.23,231.26a23.08,23.08,0,0,1,3.4.31,23.78,23.78,0,0,1,3.36.57,23.08,23.08,0,0,1-3.4-.31A23.44,23.44,0,0,1,211.23,231.26Z"/><path d="M210.46,230.67a17.78,17.78,0,0,1,3,0,17.55,17.55,0,0,1,3,.26,18,18,0,0,1-3,0A17.21,17.21,0,0,1,210.46,230.67Z"/><path d="M209.56,230.26a2.48,2.48,0,0,1-.47.05l-1.29.05v-.18c1.2,0,2.9,0,4.8,0l4.64.09,1.4.06a3,3,0,0,1,.51.05,1.61,1.61,0,0,1-.51,0l-1.41,0-4.64,0c-1.89,0-3.59,0-4.78-.09v-.18l1.3,0A1.34,1.34,0,0,1,209.56,230.26Z"/><path d="M218,229a16.72,16.72,0,0,1,4.08.25,8.33,8.33,0,0,1-2,0A8.42,8.42,0,0,1,218,229Z"/><path d="M217.35,228a9.94,9.94,0,0,1,1.58,0c1,0,2.33.11,3.81.25s2.82.33,3.78.49a10.52,10.52,0,0,1,1.55.33,9.54,9.54,0,0,1-1.57-.15l-3.79-.41-3.79-.33A10.15,10.15,0,0,1,217.35,228Z"/><path d="M226.29,229.11c0-.07.14-.13.32-.13s.32.06.32.13-.15.12-.32.12S226.29,229.18,226.29,229.11Z"/><path d="M221.69,229.51a3.81,3.81,0,0,1,1.07.13,16.4,16.4,0,0,1,2.5.73,16.05,16.05,0,0,1,2.34,1.14,3.71,3.71,0,0,1,.88.63c0,.06-1.44-.81-3.31-1.53S221.67,229.59,221.69,229.51Z"/><path d="M216.09,229.09a1.79,1.79,0,0,1,.5-.12c.32-.06.79-.12,1.37-.17a21.35,21.35,0,0,1,4.56.13A21.71,21.71,0,0,1,227,230c.54.21,1,.39,1.27.54a1.67,1.67,0,0,1,.45.24s-.68-.24-1.78-.61A25.35,25.35,0,0,0,218,229C216.81,229,216.1,229.13,216.09,229.09Z"/><path d="M220.42,229.72a1.63,1.63,0,0,1,.48,0c.31,0,.76,0,1.31.07,1.11.07,2.64.22,4.31.46s3.19.51,4.28.74l1.28.29a1.7,1.7,0,0,1,.46.15,14.11,14.11,0,0,1-1.78-.26c-1.09-.19-2.6-.43-4.27-.67s-3.19-.41-4.29-.53A14.28,14.28,0,0,1,220.42,229.72Z"/><path d="M226.67,230.62a60.8,60.8,0,0,1,7.92.78,60.8,60.8,0,0,1-7.92-.78Z"/><path d="M226.42,230.32c0-.07,2.51.26,5.57.73s5.54.91,5.53,1-2.5-.26-5.57-.73S226.41,230.39,226.42,230.32Z"/><path d="M229.73,230.39a10.84,10.84,0,0,1,3.11.13,11.46,11.46,0,0,1,3,.74c0,.07-1.37-.25-3.06-.49S229.73,230.46,229.73,230.39Z"/><path d="M235.86,233.18a10.49,10.49,0,0,1,2.26.19,10.13,10.13,0,0,1,2.21.45,19.55,19.55,0,0,1-4.47-.64Z"/><path d="M236.38,234.82a51.28,51.28,0,0,1,7.14.63,51.28,51.28,0,0,1-7.14-.63Z"/><path d="M238.67,236.13A2.6,2.6,0,0,1,238,236l-.75-.16-1.67-.38a.21.21,0,0,1-.08-.14.43.43,0,0,0,0-.12l1.07.09,2.08.18,1.46.15a7,7,0,0,1,1.34.21,7.89,7.89,0,0,1-1.36,0l-1.46-.09-1.5-.12h-.1l0,0,.2.06.74.21A2,2,0,0,1,238.67,236.13Z"/><path d="M234.33,234.21c0-.07.36-.07.79,0s.75.19.74.26-.36.07-.79,0S234.32,234.28,234.33,234.21Z"/><path d="M230.51,231.23a3.56,3.56,0,0,1,.54.11l1.45.41c1.22.36,2.89.92,4.69,1.62s3.41,1.42,4.55,2c.58.28,1,.51,1.35.68a2,2,0,0,1,.47.29,1.82,1.82,0,0,1-.52-.2l-1.37-.6c-1.16-.51-2.77-1.2-4.57-1.9s-3.45-1.28-4.65-1.69l-1.42-.48A2.37,2.37,0,0,1,230.51,231.23Z"/><path d="M229.62,231.86c0-.07,2.79.4,6.21,1s6.17,1.24,6.16,1.3-2.79-.4-6.21-1.05S229.6,231.93,229.62,231.86Z"/><path d="M229.1,232a4.26,4.26,0,0,1,1.05.1,18.91,18.91,0,0,1,2.5.58,21.43,21.43,0,0,1,2.4.87,3.61,3.61,0,0,1,.94.5c0,.07-1.51-.57-3.42-1.13S229.08,232.12,229.1,232Z"/><path d="M231.52,232.68a10.64,10.64,0,0,1,2.28.65,11.72,11.72,0,0,1,2.19.88,10.94,10.94,0,0,1-2.28-.64A11.33,11.33,0,0,1,231.52,232.68Z"/><path d="M223.13,230.91a4,4,0,0,1,.62.13c.4.09,1,.24,1.68.44,1.4.4,3.34,1,5.44,1.73s4,1.48,5.34,2l1.58.7a2.64,2.64,0,0,1,.57.3,3.63,3.63,0,0,1-.6-.21l-1.62-.62c-1.36-.53-3.25-1.24-5.35-2s-4-1.36-5.42-1.8l-1.65-.52A2.2,2.2,0,0,1,223.13,230.91Z"/><path d="M222.32,230.43c0-.07,3.2.73,7.12,1.79s7.07,2,7.05,2-3.21-.73-7.12-1.79S222.3,230.5,222.32,230.43Z"/><path d="M219.27,231.39c0-.07,3.59.45,8,1.16s8,1.34,7.94,1.41-3.58-.45-8-1.16S219.26,231.46,219.27,231.39Z"/><path d="M219,231.74a2.15,2.15,0,0,1,.54.07l1.46.27c1.23.23,2.93.55,4.81.86s3.59.56,4.83.74l1.47.21a3.74,3.74,0,0,1,.54.11,1.82,1.82,0,0,1-.55,0c-.35,0-.86-.07-1.48-.13-1.24-.13-3-.36-4.85-.67s-3.58-.66-4.81-.93l-1.44-.35A2,2,0,0,1,219,231.74Z"/><path d="M222.59,228.7a4.65,4.65,0,0,1,1.24.15c.76.13,1.8.36,2.94.68s2.13.68,2.85,1a5.79,5.79,0,0,1,1.14.53,7.63,7.63,0,0,1-1.2-.36c-.73-.24-1.74-.56-2.86-.88s-2.16-.58-2.91-.75A7.52,7.52,0,0,1,222.59,228.7Z"/><path d="M215.45,225.48a33.47,33.47,0,0,1,4,.64,32.6,32.6,0,0,1,4,.89,33.46,33.46,0,0,1-4.05-.64A31.61,31.61,0,0,1,215.45,225.48Z"/><path d="M214.41,226.46a2.18,2.18,0,0,1,.54,0c.35,0,.85,0,1.47,0a38,38,0,0,1,4.81.5,36.27,36.27,0,0,1,4.71,1.1c.59.18,1.07.34,1.39.46a2.12,2.12,0,0,1,.5.22,2.89,2.89,0,0,1-.53-.12l-1.41-.39c-1.19-.32-2.85-.71-4.7-1s-3.55-.48-4.78-.57l-1.46-.09A2.06,2.06,0,0,1,214.41,226.46Z"/><path d="M226.67,228a7.91,7.91,0,0,1,2.53.61,8.05,8.05,0,0,1,2.32,1.17c0,.07-1.07-.44-2.41-.93S226.65,228,226.67,228Z"/><path d="M225.14,226.81a2.23,2.23,0,0,1,1,.06c.57.11,1,.25,1,.32a2.23,2.23,0,0,1-1-.06C225.57,227,225.13,226.88,225.14,226.81Z"/><path d="M219.62,225.91c-.08,0-.06-.41.35-.59s.74.07.68.12-.29,0-.57.11S219.69,225.92,219.62,225.91Z"/><path d="M219.52,227.44a4,4,0,0,1,1.12,0c.69,0,1.63.1,2.68.23s2,.28,2.65.42a4.88,4.88,0,0,1,1.08.28,4.74,4.74,0,0,1-1.11-.1l-2.65-.35-2.67-.3A5.6,5.6,0,0,1,219.52,227.44Z"/><path d="M208.43,227c0-.07,3.78.3,8.44.83s8.42,1,8.41,1.09-3.79-.3-8.44-.83S208.42,227,208.43,227Z"/><path d="M211.35,227c0-.07,2.67.13,6,.45s5.93.63,5.92.7-2.67-.13-5.95-.44S211.34,227,211.35,227Z"/><path d="M208.54,225.91s-.11,0-.28-.1l-.31-.16-.54-.3-.21-.11c-.07,0-.19-.1,0-.09l.51,0,.72,0c.46,0,1,0,1.48,0,1,0,2,.08,2.69.15a5,5,0,0,1,1.1.19,5.2,5.2,0,0,1-1.12,0c-.68,0-1.63-.06-2.67-.07h-2s-.12,0-.06,0l.08.06.18.12.29.19C208.47,225.83,208.55,225.9,208.54,225.91Z"/><path d="M214.41,226.43a6.66,6.66,0,0,1,2.56.25,3.36,3.36,0,0,1-1.29,0A3.44,3.44,0,0,1,214.41,226.43Z"/><path d="M213,226.41a25.35,25.35,0,0,1,3.58,0,24.83,24.83,0,0,1,3.57.26,25.3,25.3,0,0,1-3.58,0A24.83,24.83,0,0,1,213,226.41Z"/><path d="M199.61,225.79a1.49,1.49,0,0,1-.37-.18l-.4-.23-.78-.47,1.21,0,1.1,0c.79,0,1.67,0,2.59.05,1.69.08,3.22.22,4.32.37.55.07,1,.14,1.3.19a1.74,1.74,0,0,1,.47.12,16.74,16.74,0,0,1-1.79-.13c-1.1-.1-2.63-.22-4.31-.29-.92,0-1.79-.07-2.58-.08h-1.75l.29.2.38.27A1.63,1.63,0,0,1,199.61,225.79Z"/><path d="M215.18,230a16.24,16.24,0,0,1,1.8.11l4.33.33,4.33.24a17.1,17.1,0,0,1,1.8.13,1.79,1.79,0,0,1-.49,0l-1.32,0c-1.11,0-2.64-.06-4.34-.17s-3.22-.27-4.33-.41l-1.3-.18A1.59,1.59,0,0,1,215.18,230Z"/><path d="M216.58,229.38a28,28,0,0,1,3.66.43,26.39,26.39,0,0,1,3.62.69,28,28,0,0,1-3.66-.43A26.39,26.39,0,0,1,216.58,229.38Z"/><path d="M213.78,228.46c0-.07,2.88.41,6.4,1.07s6.36,1.24,6.35,1.31-2.88-.41-6.4-1.06S213.77,228.53,213.78,228.46Z"/><path d="M211.35,228.73a41.65,41.65,0,0,1,4.61.36,39.8,39.8,0,0,1,4.57.61,41.56,41.56,0,0,1-4.6-.36A39.78,39.78,0,0,1,211.35,228.73Z"/><path d="M210.59,229.71a26,26,0,0,1,3.71.26,26.75,26.75,0,0,1,3.69.51,28,28,0,0,1-3.71-.26A26.75,26.75,0,0,1,210.59,229.71Z"/><path d="M205.35,228.61c0-.07,2.58.14,5.75.48s5.74.66,5.73.73-2.58-.14-5.75-.48S205.34,228.68,205.35,228.61Z"/><path d="M204.08,228.45a34.18,34.18,0,0,1,4.15.2,35.26,35.26,0,0,1,4.14.46,34.32,34.32,0,0,1-4.16-.2A35.24,35.24,0,0,1,204.08,228.45Z"/><path d="M203.82,229.39a37.93,37.93,0,0,1,6.25.76,19.26,19.26,0,0,1-3.14-.25A20.57,20.57,0,0,1,203.82,229.39Z"/><path d="M197.57,222.9a14.61,14.61,0,0,1-1.46.26,25.28,25.28,0,0,0-3.44.88,13.39,13.39,0,0,0-3.21,1.45,2,2,0,0,0-.77,1.18.7.7,0,0,1,0-.4,1.86,1.86,0,0,1,.62-.92,11.33,11.33,0,0,1,3.25-1.55,18.87,18.87,0,0,1,3.49-.82A6.45,6.45,0,0,1,197.57,222.9Z"/><path d="M208.16,224.8a3.55,3.55,0,0,1-.63,0l-1.7,0a53.52,53.52,0,0,0-5.59.42c-2.17.27-4.12.66-5.52,1l-1.66.4a2.25,2.25,0,0,1-.61.12,4.25,4.25,0,0,1,.59-.22c.38-.12.94-.29,1.64-.47a43.59,43.59,0,0,1,5.53-1.07,44.59,44.59,0,0,1,5.62-.34c.72,0,1.3,0,1.7,0A2.91,2.91,0,0,1,208.16,224.8Z"/><path d="M195.39,226h1.06c.67,0,1.65.06,2.86.12,2.42.14,5.76.4,9.44.85s7,1,9.36,1.44c1.19.22,2.15.42,2.81.56l.76.18a.91.91,0,0,1,.26.08l-.27,0-.77-.13-2.83-.49c-2.38-.4-5.69-.91-9.35-1.36s-7-.74-9.42-.92l-2.86-.2-.78-.06Z"/><path d="M201.68,227.26s0-.13.2-.28a1.57,1.57,0,0,1,.88-.3c.79,0,1.83.12,3,.22l3,.33a5.54,5.54,0,0,1,1.23.22,6.21,6.21,0,0,1-1.24,0c-.77,0-1.82-.14-3-.25s-2.22-.28-3-.3A1.44,1.44,0,0,0,201.68,227.26Z"/><path d="M204.71,227.34c0-.07,3.72,0,8.31.17s8.29.34,8.29.41-3.72,0-8.3-.16S204.71,227.41,204.71,227.34Z"/><path d="M200.75,229.16a4,4,0,0,1,1.11-.2c.69-.07,1.65-.14,2.72-.14a25.43,25.43,0,0,1,2.72.12,4.57,4.57,0,0,1,1.11.18,4.72,4.72,0,0,1-1.12,0c-.7,0-1.65-.05-2.71-.05s-2,0-2.71.07A5.72,5.72,0,0,1,200.75,229.16Z"/><path d="M203.18,230.66a28.85,28.85,0,0,1,3.84.07,26.08,26.08,0,0,1,3.82.32A28.85,28.85,0,0,1,207,231,27.85,27.85,0,0,1,203.18,230.66Z"/><path d="M197.7,228.54c0-.07,2.73.31,6.08.85s6.05,1,6,1.1-2.73-.31-6.08-.84S197.69,228.61,197.7,228.54Z"/><path d="M192.58,227.45c0-.07,2.3.1,5.13.37s5.1.54,5.09.61a51.3,51.3,0,0,1-5.12-.36C194.86,227.8,192.58,227.52,192.58,227.45Z"/><path d="M189,225.26a3.09,3.09,0,0,1,.52,0c.33,0,.81,0,1.4,0,1.19,0,2.83.15,4.63.35s3.42.45,4.59.66c.59.11,1.06.2,1.38.28a1.86,1.86,0,0,1,.5.14,2.86,2.86,0,0,1-.52,0l-1.39-.2c-1.17-.17-2.79-.39-4.59-.59s-3.43-.33-4.61-.42l-1.4-.11A1.68,1.68,0,0,1,189,225.26Z"/><path d="M189,226.68a6.7,6.7,0,0,1,2.55-.51,3.29,3.29,0,0,1-1.25.38A3.42,3.42,0,0,1,189,226.68Z"/><path d="M182.49,229.7a38.14,38.14,0,0,1,4.32-1,38.4,38.4,0,0,1,4.36-.71,38.14,38.14,0,0,1-4.32,1A38.4,38.4,0,0,1,182.49,229.7Z"/><path d="M182.63,229.57a32.73,32.73,0,0,1,4.15,0,34.76,34.76,0,0,1,4.15.25,35.28,35.28,0,0,1-4.16,0A34.48,34.48,0,0,1,182.63,229.57Z"/><path d="M184.8,227.22a30.4,30.4,0,0,1,3.88-.43,30.09,30.09,0,0,1,3.91-.18,30.42,30.42,0,0,1-3.89.43A29.91,29.91,0,0,1,184.8,227.22Z"/><path d="M185.31,227.06a34.29,34.29,0,0,1,4.19-.66,35.67,35.67,0,0,1,4.23-.4,34.26,34.26,0,0,1-4.2.66A35.42,35.42,0,0,1,185.31,227.06Z"/><path d="M188,226.41c0-.07,2.71-.21,6.06-.32s6.06-.13,6.07-.06-2.71.21-6.06.32S188,226.48,188,226.41Z"/><path d="M190.16,227.7a1,1,0,0,1-.31,0l-1.07-.23,3.94-.22L198,227l6.94-.24,2.1,0a4.59,4.59,0,0,1,.77,0,4.82,4.82,0,0,1-.77.08l-2.1.13-6.93.32-5.25.19-2,.06-1.11,0A3.87,3.87,0,0,1,190.16,227.7Z"/><path d="M201.14,227.68a38.33,38.33,0,0,1,4.47-.08,39.72,39.72,0,0,1,4.47.18,41.42,41.42,0,0,1-4.47.08A39.72,39.72,0,0,1,201.14,227.68Z"/><ellipse cx="207.07" cy="227.7" rx="6.06" ry="0.13"/><path d="M195.77,228.76a3.74,3.74,0,0,1,.75.14l2,.45c1.71.38,4.09.87,6.74,1.32s5,.78,6.8,1l2.07.25a4.14,4.14,0,0,1,.76.12,5.62,5.62,0,0,1-.77,0c-.49,0-1.2-.09-2.08-.18-1.75-.16-4.17-.46-6.82-.92s-5-1-6.74-1.4c-.86-.21-1.55-.39-2-.53A4.52,4.52,0,0,1,195.77,228.76Z"/><path d="M187.1,228.28a2.16,2.16,0,0,1,.55,0l1.47.1c1.25.1,3,.28,4.85.57s3.59.63,4.8.9c.61.14,1.1.26,1.44.36a3.23,3.23,0,0,1,.52.16,1.68,1.68,0,0,1-.54-.07l-1.45-.27c-1.23-.23-2.92-.54-4.8-.83s-3.6-.5-4.84-.64l-1.46-.18A2.05,2.05,0,0,1,187.1,228.28Z"/><path d="M200.5,226.63a2.11,2.11,0,0,1,.55,0c.36,0,.87,0,1.51.08,1.27.1,3,.29,4.95.63s3.63.75,4.86,1.09c.62.17,1.11.32,1.45.44a2.13,2.13,0,0,1,.52.2,2,2,0,0,1-.55-.11l-1.46-.35c-1.24-.3-3-.68-4.87-1s-3.65-.56-4.92-.7l-1.5-.17A1.77,1.77,0,0,1,200.5,226.63Z"/><path d="M202.79,225.6c0-.07,3,.09,6.72.37s6.69.55,6.69.62-3-.1-6.71-.37S202.79,225.67,202.79,225.6Z"/><path d="M207.41,225.32a.58.58,0,0,1,.23,0l.65.09c.57.09,1.39.22,2.4.41,2,.36,4.78.94,7.82,1.69s5.75,1.56,7.7,2.18c1,.31,1.76.58,2.3.77l.62.22c.14.06.22.09.21.1a.73.73,0,0,1-.22,0l-.64-.18-2.32-.69c-2-.58-4.68-1.34-7.71-2.1s-5.79-1.36-7.8-1.77l-2.37-.48-.65-.14A.66.66,0,0,1,207.41,225.32Z"/><path d="M216.46,225.54a1.55,1.55,0,0,1,.45,0c.29,0,.71.07,1.23.15a35,35,0,0,1,4,.8,36,36,0,0,1,3.9,1.24c.48.18.87.34,1.14.46a1.58,1.58,0,0,1,.4.21,13.58,13.58,0,0,1-1.6-.5c-1-.33-2.36-.76-3.9-1.16s-3-.68-4-.88A13.51,13.51,0,0,1,216.46,225.54Z"/><path d="M190.86,226.31a.89.89,0,0,1,.33-.78,1.73,1.73,0,0,1,.91-.45,7,7,0,0,1,1.33-.06l7.63.12,7.64.18,2.31.09a6.46,6.46,0,0,1,.85.06,5.17,5.17,0,0,1-.85,0h-2.32l-7.63-.11-7.64-.19a2.89,2.89,0,0,0-2.17.41A1.23,1.23,0,0,0,190.86,226.31Z"/><path d="M186,225.39a2.66,2.66,0,0,1,.49-.25c.31-.14.78-.32,1.37-.52a20.47,20.47,0,0,1,9.62-.81c.61.1,1.11.2,1.44.29a2.32,2.32,0,0,1,.52.16s-.76-.12-2-.27a23.75,23.75,0,0,0-4.81-.09,24.26,24.26,0,0,0-4.72.89C186.74,225.14,186,225.43,186,225.39Z"/><path d="M183.88,228a1.65,1.65,0,0,1,.15-.46,4.26,4.26,0,0,1,.68-1.12,7.14,7.14,0,0,1,3.62-2.29,13.3,13.3,0,0,1,4.28-.37c.55,0,1,.07,1.3.1a1.63,1.63,0,0,1,.47.09s-.68,0-1.77,0a15,15,0,0,0-4.21.44,7.33,7.33,0,0,0-3.55,2.15A9.33,9.33,0,0,0,183.88,228Z"/><path d="M179.52,227.93s0-.05.11-.12a1.64,1.64,0,0,1,.35-.27,3.91,3.91,0,0,1,1.56-.53,18,18,0,0,1,2.42-.09h2.95l5.37.06,1.62.05a2.87,2.87,0,0,1,.6.05,2.87,2.87,0,0,1-.6,0l-1.62,0-5.37,0-2.95,0a20.38,20.38,0,0,0-2.4,0A4.21,4.21,0,0,0,179.52,227.93Z"/><path d="M185.59,230.74s.14-.31.32-.82a8.87,8.87,0,0,1,.86-2,2.2,2.2,0,0,1,.92-.8,1.66,1.66,0,0,1,1-.11c.59.13.76.53.73.53a1.69,1.69,0,0,0-.76-.35,1.57,1.57,0,0,0-.88.14,2.1,2.1,0,0,0-.81.74,11.68,11.68,0,0,0-.9,1.91A1.84,1.84,0,0,1,185.59,230.74Z"/><path d="M180,227.94a2.4,2.4,0,0,1,.4-.19,10.71,10.71,0,0,1,1.15-.41,20.38,20.38,0,0,1,8-.85c.51,0,.92.11,1.2.16a1.3,1.3,0,0,1,.44.11s-.64,0-1.66-.09a26.82,26.82,0,0,0-4,.11,26.25,26.25,0,0,0-3.91.73A14.44,14.44,0,0,1,180,227.94Z"/><path d="M184.18,229.23a1.44,1.44,0,0,1,.33-.85,3.14,3.14,0,0,1,1.84-1.15,6,6,0,0,1,2.17,0,3,3,0,0,1,.87.2,3.12,3.12,0,0,1-.89,0,7.26,7.26,0,0,0-2.09.08,3.3,3.3,0,0,0-1.76,1C184.31,228.9,184.23,229.24,184.18,229.23Z"/><path d="M192.58,228.63c0-.07,3.5.37,7.8,1s7.78,1.16,7.77,1.23-3.5-.37-7.8-1S192.57,228.7,192.58,228.63Z"/><path d="M193.48,227.57c0-.07,3.9.31,8.69.86s8.67,1,8.66,1.12-3.9-.32-8.69-.86S193.47,227.64,193.48,227.57Z"/><path d="M188.76,227.71a1,1,0,0,1,.31,0H190c.78,0,1.91,0,3.3.07,2.78.1,6.62.33,10.84.78s8,1.05,10.76,1.55c1.37.25,2.48.47,3.24.63l.87.2a1.9,1.9,0,0,1,.3.08,1.2,1.2,0,0,1-.31,0l-.88-.15-3.25-.55c-2.74-.46-6.54-1-10.76-1.48s-8-.71-10.82-.85l-3.29-.15-.89,0A2.35,2.35,0,0,1,188.76,227.71Z"/><path d="M205.86,229.86a1,1,0,0,1,.3,0l.83.07c.73.08,1.78.2,3.07.38,2.58.35,6.14.94,10,1.79s7.36,1.8,9.86,2.55c1.24.38,2.25.7,2.94.94l.79.28a1,1,0,0,1,.27.11,1.09,1.09,0,0,1-.29-.06l-.8-.24-3-.85c-2.5-.72-6-1.64-9.86-2.48s-7.43-1.47-10-1.86L207,230l-.83-.12Z"/><path d="M308.21,232.6s-.34-.09-1-.25a15,15,0,0,0-2.66-.4,29.39,29.39,0,0,0-8.78,1.11,51.92,51.92,0,0,1-8.77,1.72,17,17,0,0,1-2.71,0c-.32,0-.57-.07-.73-.09a.82.82,0,0,1-.26-.05s.36,0,1,0a20.4,20.4,0,0,0,2.7-.07,57.81,57.81,0,0,0,8.72-1.79,28.21,28.21,0,0,1,8.86-1,13.11,13.11,0,0,1,2.67.49c.31.08.54.18.7.23S308.22,232.59,308.21,232.6Z"/><path d="M307.86,230.44a3.83,3.83,0,0,1-.7,0l-1.9,0c-1.61,0-3.83,0-6.28,0s-4.67.19-6.28.3l-1.89.13a4.63,4.63,0,0,1-.7,0,3.15,3.15,0,0,1,.69-.12c.44-.06,1.09-.13,1.89-.21,1.6-.16,3.82-.31,6.28-.38s4.68,0,6.29.05c.8,0,1.45.07,1.9.11A3.12,3.12,0,0,1,307.86,230.44Z"/><path d="M311.69,229.54a4.25,4.25,0,0,1-.74,0l-2,0c-1.68,0-4,0-6.59,0s-4.9.18-6.59.29l-2,.12a4.07,4.07,0,0,1-.73,0,3.49,3.49,0,0,1,.73-.11c.46-.06,1.15-.13,2-.2,1.68-.15,4-.3,6.59-.36s4.92,0,6.61,0c.84,0,1.53.07,2,.11A3.37,3.37,0,0,1,311.69,229.54Z"/><path d="M308.62,231.29c0,.07-3.93.43-8.79.8s-8.81.61-8.81.54,3.93-.43,8.79-.8S308.61,231.22,308.62,231.29Z"/><path d="M312.58,228.84s-.08,0-.24,0l-.69,0-2.55.1c-2.15.09-5.12.23-8.4.44s-6.24.46-8.38.66l-2.54.22-.7.06a.75.75,0,0,1-.24,0l.24-.06.68-.1,2.54-.3c2.14-.24,5.1-.52,8.39-.73s6.25-.33,8.41-.37l2.55,0h.69Z"/><path d="M315.65,228.61c0,.07-4.81-.11-10.73-.4s-10.72-.59-10.72-.66,4.81.11,10.73.4S315.65,228.54,315.65,228.61Z"/><path d="M317.69,227.42c0,.07-3.63,0-8.11-.14s-8.1-.34-8.1-.41,3.63,0,8.11.15S317.69,227.35,317.69,227.42Z"/><path d="M321.52,227.32a3.44,3.44,0,0,1-.68-.07L319,227c-1.55-.22-3.7-.49-6.08-.69s-4.54-.27-6.11-.31L305,226a3.32,3.32,0,0,1-.68,0,3.1,3.1,0,0,1,.68-.06c.44,0,1.07,0,1.85,0,1.57,0,3.74,0,6.13.24s4.54.49,6.09.76c.77.13,1.39.25,1.82.35A3,3,0,0,1,321.52,227.32Z"/><path d="M319.22,226.79a.6.6,0,0,1-.23,0l-.65,0h-2.42c-2,0-4.86-.1-8-.31S302,226,300,225.8c-1-.12-1.83-.23-2.4-.32l-.65-.1a.78.78,0,0,1-.22-.06H297l.65,0,2.41.24c2,.2,4.83.45,7.93.65s5.92.32,8,.38l2.41.08.65,0Z"/><path d="M327.27,225.54c0,.07-4.75-.15-10.6-.5s-10.59-.69-10.59-.76,4.75.16,10.6.51S327.27,225.47,327.27,225.54Z"/><path d="M322.92,224.42c0,.07-3.09-.1-6.9-.38s-6.89-.56-6.89-.63,3.1.1,6.91.38S322.93,224.35,322.92,224.42Z"/><path d="M319.48,224.81c0,.07-4.53-.11-10.09-.39s-10.09-.58-10.08-.65,4.52.1,10.09.39S319.48,224.74,319.48,224.81Z"/><path d="M320.63,224.38c0,.07-3.83.13-8.56.13s-8.55-.06-8.55-.13,3.83-.12,8.55-.12S320.63,224.31,320.63,224.38Z"/><path d="M326.24,225.55c0,.07-5.52-.23-12.32-.67S301.6,224,301.61,224s5.52.23,12.32.67S326.25,225.48,326.24,225.55Z"/><path d="M320,228.16a7.27,7.27,0,0,1-.83.07l-2.25.12-7.45.28-7.45.2-2.25,0a7.62,7.62,0,0,1-.83,0,4.25,4.25,0,0,1,.83-.08l2.25-.12,7.44-.28,7.45-.2,2.26,0A4.55,4.55,0,0,1,320,228.16Z"/><path d="M316,228.47a.75.75,0,0,1-.24,0l-.7,0-2.58.07c-2.17.06-5.17.15-8.48.31s-6.32.35-8.48.51l-2.57.18-.7,0H292l.24-.05.7-.08,2.56-.26c2.17-.2,5.17-.43,8.48-.59s6.33-.22,8.5-.23l2.58,0,.7,0A.64.64,0,0,1,316,228.47Z"/><path d="M305.56,228.43c0,.07-3.29.83-7.37,1.7s-7.41,1.52-7.42,1.45,3.28-.83,7.36-1.7S305.54,228.36,305.56,228.43Z"/><path d="M304.16,227.59a16.84,16.84,0,0,1-1.87,0c-1.14,0-2.73.07-4.48.22s-3.32.38-4.45.56-1.84.32-1.84.29a1.7,1.7,0,0,1,.47-.16c.32-.08.77-.19,1.34-.3a37.54,37.54,0,0,1,4.46-.64,39.57,39.57,0,0,1,4.51-.15c.57,0,1,0,1.36.07A1.92,1.92,0,0,1,304.16,227.59Z"/><path d="M310.29,226a4.56,4.56,0,0,1-.75.05l-2.05.05c-1.73,0-4.12.15-6.75.33s-5,.44-6.72.63l-2,.24a6.81,6.81,0,0,1-.76.06,3.46,3.46,0,0,1,.74-.16c.48-.09,1.17-.2,2-.32,1.71-.24,4.09-.51,6.72-.7s5-.26,6.77-.26c.86,0,1.56,0,2.05,0A3.48,3.48,0,0,1,310.29,226Z"/><path d="M321.52,224.7a.8.8,0,0,1-.27,0h-.75l-2.77,0c-2.33,0-5.56,0-9.13.1s-6.78.35-9.11.54l-2.76.24-.75.06h-.27a.82.82,0,0,1,.26-.05l.75-.11c.65-.09,1.59-.2,2.75-.32,2.33-.24,5.55-.49,9.12-.61s6.81-.1,9.15,0c1.17,0,2.11.08,2.77.12l.75.06Z"/><path d="M327.9,224.66a3.1,3.1,0,0,1-.68.06l-1.86.05-6.14.06h-6.14l-1.86,0a3.69,3.69,0,0,1-.68-.05,3.69,3.69,0,0,1,.68-.05l1.86,0,6.14-.07h6.14l1.86,0A3.32,3.32,0,0,1,327.9,224.66Z"/><ellipse cx="318.2" cy="223.36" rx="0.64" ry="0.13"/><path d="M335.31,223.68c0,.07-4.32-.25-9.64-.73S316,222,316,222s4.33.25,9.65.73S335.32,223.61,335.31,223.68Z"/><path d="M332.23,222.65a2.89,2.89,0,0,1-.57-.11l-1.54-.34c-1.3-.28-3.1-.64-5.11-.94s-3.84-.47-5.17-.58l-1.57-.11a3.61,3.61,0,0,1-.58-.07,2.24,2.24,0,0,1,.58,0c.38,0,.92,0,1.58,0,1.34.06,3.18.21,5.2.51s3.82.69,5.11,1c.65.16,1.17.31,1.52.42A2.1,2.1,0,0,1,332.23,222.65Z"/><path d="M331.85,222a2.93,2.93,0,0,1-.53-.07l-1.44-.26c-1.22-.22-2.9-.5-4.76-.76s-3.57-.43-4.8-.55l-1.46-.14a1.83,1.83,0,0,1-.53-.08,2.82,2.82,0,0,1,.54,0c.35,0,.85,0,1.47,0,1.23.07,2.94.22,4.81.48s3.56.57,4.76.84c.61.13,1.1.24,1.43.33A1.66,1.66,0,0,1,331.85,222Z"/><path d="M339.14,224.11c0,.07-2.93-.41-6.52-1.06s-6.5-1.25-6.48-1.32,2.93.41,6.52,1.06S339.15,224,339.14,224.11Z"/><path d="M337.6,223.63c0,.07-2.62-.38-5.82-1s-5.78-1.2-5.77-1.27,2.62.39,5.82,1S337.62,223.56,337.6,223.63Z"/><path d="M337.73,223.76c0,.07-1.48-.49-3.3-1s-3.34-.87-3.33-.94a3.2,3.2,0,0,1,1,.12,24.13,24.13,0,0,1,2.38.58,23.8,23.8,0,0,1,2.32.81A3.93,3.93,0,0,1,337.73,223.76Z"/><path d="M341.43,224.26a6.42,6.42,0,0,1-1.1-.26c-.68-.19-1.61-.44-2.65-.69s-2-.44-2.67-.58a7,7,0,0,1-1.1-.27,4,4,0,0,1,1.13.09c.7.09,1.66.27,2.7.51s2,.54,2.64.77A3.93,3.93,0,0,1,341.43,224.26Z"/><path d="M339.77,227.11c0,.07-4.88-.87-10.87-2.08s-10.83-2.27-10.82-2.34,4.88.87,10.87,2.09S339.78,227,339.77,227.11Z"/><path d="M339.26,226.24c0,.07-3.19-.22-7.1-.65s-7.08-.83-7.07-.9,3.19.22,7.1.65S339.27,226.17,339.26,226.24Z"/><path d="M326.89,226.4c0,.07-3.48-.42-7.74-1.1s-7.72-1.28-7.71-1.35,3.48.42,7.75,1.1S326.9,226.33,326.89,226.4Z"/><path d="M335.69,226.9c0,.07-3.43-.11-7.66-.42s-7.66-.6-7.65-.67,3.44.12,7.67.42S335.7,226.83,335.69,226.9Z"/><path d="M332.37,226.74c0,.07-3.27-.2-7.29-.6s-7.27-.78-7.26-.85,3.27.2,7.28.6S332.37,226.67,332.37,226.74Z"/><path d="M327.39,227c0,.07-2.69,0-6-.07s-6-.26-6-.33,2.69,0,6,.07S327.4,226.88,327.39,227Z"/><path d="M330.71,228.06c0,.07-3.83-.08-8.56-.33s-8.54-.52-8.54-.59,3.84.08,8.56.33S330.72,228,330.71,228.06Z"/><ellipse cx="325.67" cy="227.57" rx="7.47" ry="0.13"/><path d="M321,228.38c0,.07-2.55,0-5.69-.18s-5.68-.36-5.67-.43,2.55,0,5.68.18S321,228.31,321,228.38Z"/><path d="M326.24,228.34c0-.07.2-.13.45-.13s.45.06.45.13-.2.13-.45.13S326.24,228.41,326.24,228.34Z"/><path d="M338.75,227.23a.76.76,0,0,1-.26,0H325.73l-9.21.12-2.79.05H313a.76.76,0,0,1-.26,0l.26,0,.76,0,2.79-.13c2.35-.09,5.61-.17,9.21-.2s6.85,0,9.21.07l2.79.08.76,0Z"/><path d="M330.84,224.71c0,.07-4.4.11-9.83.08s-9.83-.11-9.83-.18,4.4-.1,9.83-.08S330.84,224.64,330.84,224.71Z"/><path d="M328.92,223.51c0,.07-4.89-.35-10.92-.94s-10.91-1.12-10.9-1.19,4.9.35,10.93.94S328.93,223.44,328.92,223.51Z"/><path d="M331.86,222.14c0,.07-3.54,0-7.91-.06s-7.92-.25-7.92-.32,3.55,0,7.92.06S331.87,222.07,331.86,222.14Z"/><path d="M329.43,222.1a2.13,2.13,0,0,1-.58,0l-1.58-.16c-1.34-.14-3.19-.31-5.23-.44s-3.9-.18-5.24-.21l-1.59,0a2.11,2.11,0,0,1-.58,0,3.8,3.8,0,0,1,.58-.05c.38,0,.92,0,1.59,0,1.35,0,3.21,0,5.26.14s3.9.33,5.23.51c.66.09,1.2.18,1.57.24A3.33,3.33,0,0,1,329.43,222.1Z"/><path d="M341.3,224.46c0,.07-3.08-.34-6.85-.92s-6.82-1.1-6.81-1.17,3.08.34,6.85.92S341.31,224.39,341.3,224.46Z"/><path d="M343,225a2.17,2.17,0,0,1-.58,0c-.36,0-.89,0-1.55-.11-1.31-.11-3.11-.31-5.09-.64s-3.75-.69-5-1c-.64-.16-1.15-.29-1.5-.4a2.41,2.41,0,0,1-.55-.18,2.54,2.54,0,0,1,.57.09l1.52.31c1.28.26,3.06.61,5,.93s3.77.56,5.07.71l1.54.19A2.51,2.51,0,0,1,343,225Z"/><path d="M336.2,224.94c0,.07-3.91-.37-8.7-1s-8.67-1.16-8.66-1.23,3.9.37,8.69,1S336.21,224.87,336.2,224.94Z"/><path d="M339.13,225.75c0,.07-3-.19-6.65-.59s-6.62-.76-6.61-.83,3,.19,6.64.58S339.14,225.68,339.13,225.75Z"/><path d="M340.67,223.78a3.12,3.12,0,0,1-.68-.05l-1.83-.2c-1.54-.17-3.67-.4-6-.58s-4.5-.3-6.06-.37l-1.83-.09a3.1,3.1,0,0,1-.68-.06,3.32,3.32,0,0,1,.68,0c.43,0,1.06,0,1.84,0,1.55,0,3.7.11,6.07.29s4.5.44,6,.66l1.81.28A3.46,3.46,0,0,1,340.67,223.78Z"/><path d="M341.17,222.52c0,.07-2.25-.27-5-.75a48.74,48.74,0,0,1-4.95-1c0-.07,2.25.27,5,.75A48.74,48.74,0,0,1,341.17,222.52Z"/><path d="M337.35,220.71h-.62l-1.68-.09c-1.41-.1-3.37-.28-5.52-.53s-4.09-.54-5.49-.78l-1.66-.3a2.72,2.72,0,0,1-.6-.15,5.58,5.58,0,0,1,.62,0l1.66.22c1.41.19,3.35.45,5.5.71s4.1.45,5.51.6l1.67.17A3,3,0,0,1,337.35,220.71Z"/><path d="M342.71,221.6a3.74,3.74,0,0,1-.67-.11l-1.81-.37c-1.53-.31-3.64-.73-6-1.15s-4.47-.74-6-1l-1.82-.27a5.22,5.22,0,0,1-.67-.13,2.92,2.92,0,0,1,.68,0c.43,0,1.06.1,1.84.2,1.55.18,3.68.49,6,.9s4.46.87,6,1.23l1.79.44A3.57,3.57,0,0,1,342.71,221.6Z"/><path d="M340.67,224.1a1.4,1.4,0,0,1-.47,0l-1.28-.19c-1.08-.18-2.56-.45-4.19-.82s-3.08-.73-4.13-1l-1.24-.37c-.29-.1-.45-.16-.44-.18a15.89,15.89,0,0,1,1.72.37l4.15,1,4.16.88A13.69,13.69,0,0,1,340.67,224.1Z"/><path d="M336,226c0,.07-2.93-.35-6.53-.94s-6.49-1.11-6.48-1.18,2.93.35,6.53.93S336,226,336,226Z"/><path d="M333.65,225.55c0,.07-3.66,0-8.18-.14s-8.16-.33-8.16-.4,3.66,0,8.17.14S333.65,225.48,333.65,225.55Z"/><path d="M310.17,226.87a3.52,3.52,0,0,1-.67.22l-1.87.5c-1.57.43-3.74,1-6.11,1.78s-4.5,1.48-6,2l-1.82.64a3.4,3.4,0,0,1-.68.21,6.12,6.12,0,0,1,.65-.3c.42-.18,1-.43,1.79-.72,1.52-.59,3.65-1.35,6-2.1s4.56-1.33,6.15-1.71c.79-.19,1.44-.34,1.88-.43A4,4,0,0,1,310.17,226.87Z"/><path d="M305.82,224.52s-.66.28-1.7.77a23.48,23.48,0,0,0-3.87,2.29,22.9,22.9,0,0,0-3.35,3,2.5,2.5,0,0,0-.64,1.15,4.54,4.54,0,0,0,0,.49.8.8,0,0,1-.08-.5,2.43,2.43,0,0,1,.59-1.26,19.52,19.52,0,0,1,3.34-3.08,19.79,19.79,0,0,1,3.94-2.24c.54-.23,1-.39,1.29-.49A2,2,0,0,1,305.82,224.52Z"/><path d="M310.43,222.27s-.78.31-2,.86a27,27,0,0,0-8.56,6c-.94,1-1.46,1.62-1.5,1.59a3.16,3.16,0,0,1,.34-.48,13.57,13.57,0,0,1,1-1.23,23.7,23.7,0,0,1,8.62-6c.63-.25,1.15-.44,1.51-.55A2.18,2.18,0,0,1,310.43,222.27Z"/><path d="M315.41,225.31A15.63,15.63,0,0,1,314,226c-.9.43-2.15,1.05-3.49,1.79a21.19,21.19,0,0,0-3.29,2.08,2.45,2.45,0,0,0-.78,1.35,1.76,1.76,0,0,1,.65-1.48,17,17,0,0,1,3.3-2.17c1.35-.75,2.61-1.34,3.54-1.74A8.57,8.57,0,0,1,315.41,225.31Z"/><path d="M298.67,231a14.18,14.18,0,0,1-2.14,1l-.1-.21c.33-.19.71-.39,1.11-.57a15.35,15.35,0,0,1,2.39-.89,3.59,3.59,0,0,1,1-.21c0,.07-1.54.49-3.33,1.33-.39.18-.76.37-1.1.55l-.1-.22A13.87,13.87,0,0,1,298.67,231Z"/><path d="M311.7,224.78a15.4,15.4,0,0,0-2.82,1.66l-.11-.21,1.5-.45c1.29-.37,2.47-.7,3.32-.92a6.61,6.61,0,0,1,1.39-.31,8.74,8.74,0,0,1-1.34.48c-.84.27-2,.62-3.29,1l-1.51.43-.61.17.5-.38a9.22,9.22,0,0,1,2.07-1.2A3.1,3.1,0,0,1,311.7,224.78Z"/><path d="M318.08,226.84c0,.07-4.39,1.2-9.85,2.54s-9.89,2.35-9.91,2.28,4.39-1.2,9.85-2.53S318.07,226.77,318.08,226.84Z"/><path d="M317.57,224.79s-.71.15-1.85.37a46,46,0,0,0-8.68,2.57c-.34.14-.37.1-.22.2a1.69,1.69,0,0,0,.54.16c.32,0,.5,0,.5,0a.85.85,0,0,1-.5.1,1.45,1.45,0,0,1-.6-.13l-.22-.13-.12-.09s.06,0,.08-.07l.47-.21a34.2,34.2,0,0,1,8.72-2.58c.58-.09,1-.14,1.37-.17A2.47,2.47,0,0,1,317.57,224.79Z"/><path d="M334.67,225.05a4.34,4.34,0,0,1-.48,0l-1.37,0-5.05.1c-4.26.12-10.14.37-16.62.93-5.22.44-10,1-13.89,1.51l0-.2,6.79-1.58,1.89-.42c.43-.09.66-.12.66-.12l-.65.18L304,226l-6.77,1.66,0-.21c3.86-.54,8.67-1.12,13.89-1.56,6.49-.55,12.38-.77,16.65-.85,2.13,0,3.86,0,5.05,0l1.37,0C334.51,225,334.67,225.05,334.67,225.05Z"/><path d="M334.54,225.05a4.7,4.7,0,0,1-.85,0h-2.33c-2,0-4.68,0-7.67.07s-5.71.16-7.67.25l-2.33.1a7.83,7.83,0,0,1-.85,0,4.62,4.62,0,0,1,.85-.11l2.32-.18c2-.13,4.67-.27,7.67-.33s5.72,0,7.68,0l2.33.08A5.3,5.3,0,0,1,334.54,225.05Z"/><path d="M316.3,225.08a6.6,6.6,0,0,1-.84.17l-2.27.41c-1.92.36-4.56.92-7.45,1.68s-5.45,1.57-7.29,2.21l-2.19.76a6.69,6.69,0,0,1-.81.26,4.73,4.73,0,0,1,.78-.35c.5-.22,1.24-.5,2.16-.84,1.83-.68,4.4-1.53,7.29-2.29s5.54-1.29,7.48-1.6c1-.16,1.74-.27,2.29-.34A5.22,5.22,0,0,1,316.3,225.08Z"/><path d="M302.23,227.53a5.26,5.26,0,0,1-1.3.42,26.16,26.16,0,0,1-3.23.61,25,25,0,0,1-3.29.2,6.17,6.17,0,0,1-1.36-.08,7.94,7.94,0,0,1,1.36-.1c.84,0,2-.12,3.26-.27s2.4-.37,3.22-.53A10.53,10.53,0,0,1,302.23,227.53Z"/><path d="M303,226.06c0,.07-1,.3-2.16.77s-2.06,1-2.1.92a5.58,5.58,0,0,1,2-1.16A5.71,5.71,0,0,1,303,226.06Z"/><path d="M302.88,224.91a6.19,6.19,0,0,1-1.17.21c-.73.11-1.73.29-2.81.56a27,27,0,0,0-2.74.86,8.21,8.21,0,0,1-1.13.39,4.84,4.84,0,0,1,1.06-.56,19.46,19.46,0,0,1,2.74-.94,17.83,17.83,0,0,1,2.86-.49A4.58,4.58,0,0,1,302.88,224.91Z"/><path d="M306.59,222.76a9.82,9.82,0,0,1-1.3.14c-.81.06-1.91.16-3.13.31-.86.1-1.66.22-2.34.33l-1.51.24.11.26a.67.67,0,0,1,0,.12s0,0-.09-.09-.1-.15-.23-.37l.74-.18.9-.19c.68-.14,1.48-.27,2.35-.37a27.84,27.84,0,0,1,3.15-.24A5.34,5.34,0,0,1,306.59,222.76Z"/><path d="M315.14,222.74a41.42,41.42,0,0,1-4.66.1,43.37,43.37,0,0,1-4.66-.16,41.42,41.42,0,0,1,4.66-.1A43.55,43.55,0,0,1,315.14,222.74Z"/><path d="M321.78,223.13a1.87,1.87,0,0,1-.52,0h-1.4c-1.18,0-2.8,0-4.6.06s-3.42.17-4.6.25l-1.39.1a1.75,1.75,0,0,1-.52,0,2.87,2.87,0,0,1,.5-.1l1.39-.18c1.18-.13,2.81-.26,4.61-.32s3.44,0,4.62,0c.59,0,1.07.05,1.4.08A2.93,2.93,0,0,1,321.78,223.13Z"/><path d="M321.52,223.13a15.93,15.93,0,0,1-1.76.05l-4.24,0-4.24.11a15.06,15.06,0,0,1-1.76,0,1.39,1.39,0,0,1,.47-.08c.3,0,.74-.07,1.28-.11,1.08-.08,2.59-.15,4.25-.18s3.16,0,4.24,0l1.29.07A1.72,1.72,0,0,1,321.52,223.13Z"/><path d="M334.8,225.66a4.68,4.68,0,0,1-.81-.1l-2.19-.33c-1.84-.26-4.4-.58-7.24-.79s-5.42-.27-7.29-.28h-2.21a3.94,3.94,0,0,1-.81,0,5,5,0,0,1,.8-.08c.53,0,1.28-.06,2.22-.08,1.87,0,4.46,0,7.3.21s5.42.55,7.26.87c.92.15,1.67.29,2.18.4A4.53,4.53,0,0,1,334.8,225.66Z"/><ellipse cx="321.65" cy="226.3" rx="8.43" ry="0.13"/><ellipse cx="319.54" cy="226.55" rx="6.19" ry="0.13"/><path d="M333.52,231.52a2.87,2.87,0,0,0-1.44-1.38,8.9,8.9,0,0,0-2.15-.62c-.83-.16-1.75-.32-2.72-.44a44.4,44.4,0,0,0-5-.32h-1.52a1.89,1.89,0,0,1-.56,0,2.47,2.47,0,0,1,.55-.08c.36,0,.88-.07,1.53-.09a32.81,32.81,0,0,1,5,.25c1,.12,1.9.28,2.74.46a8,8,0,0,1,2.18.69,2.92,2.92,0,0,1,1.16,1A1.27,1.27,0,0,1,333.52,231.52Z"/><path d="M308.27,233.61s-.35-.09-1-.25a15.3,15.3,0,0,0-2.66-.4,29.41,29.41,0,0,0-8.79,1.11,51.74,51.74,0,0,1-8.77,1.72,17,17,0,0,1-2.71,0c-.32,0-.56-.07-.73-.09a.7.7,0,0,1-.25-.05s.35,0,1,0a20.26,20.26,0,0,0,2.69-.07,57.57,57.57,0,0,0,8.72-1.79,28.21,28.21,0,0,1,8.86-1,13,13,0,0,1,2.67.49c.31.08.54.18.7.23A.86.86,0,0,1,308.27,233.61Z"/><path d="M307.91,231.45a3.83,3.83,0,0,1-.7,0l-1.9,0c-1.61,0-3.83,0-6.28,0s-4.67.19-6.27.3l-1.9.13a4.63,4.63,0,0,1-.7,0,3.34,3.34,0,0,1,.69-.12c.44-.06,1.09-.13,1.89-.21,1.61-.15,3.83-.31,6.28-.38s4.68,0,6.29,0c.81,0,1.46.07,1.91.11A3.08,3.08,0,0,1,307.91,231.45Z"/><path d="M311.74,230.55a4.16,4.16,0,0,1-.73,0l-2,0c-1.69,0-4,0-6.6,0s-4.9.18-6.59.29l-2,.12a4.2,4.2,0,0,1-.74,0,3.49,3.49,0,0,1,.73-.11c.47-.06,1.15-.13,2-.2,1.68-.15,4-.3,6.6-.36s4.91,0,6.6,0c.85,0,1.53.07,2,.11A3.37,3.37,0,0,1,311.74,230.55Z"/><path d="M308.67,232.3c0,.07-3.93.43-8.79.8s-8.81.61-8.81.54,3.93-.43,8.79-.8S308.67,232.23,308.67,232.3Z"/><path d="M312.64,229.85a.83.83,0,0,1-.24,0l-.7,0-2.54.1c-2.16.09-5.13.23-8.41.44s-6.24.46-8.38.66l-2.54.22-.69.06h-.25a.81.81,0,0,1,.24-.06l.69-.1,2.53-.3c2.14-.24,5.11-.52,8.39-.73s6.26-.33,8.41-.37l2.55,0h.7Z"/><path d="M315.7,229.62c0,.07-4.81-.11-10.73-.4s-10.72-.59-10.71-.66,4.8.11,10.72.4S315.7,229.55,315.7,229.62Z"/><path d="M317.74,228.43c0,.08-3.63,0-8.11-.14s-8.1-.34-8.1-.41,3.64,0,8.11.15S317.75,228.36,317.74,228.43Z"/><path d="M321.57,228.33a3.33,3.33,0,0,1-.67-.07l-1.84-.27c-1.55-.22-3.7-.49-6.08-.69s-4.54-.27-6.1-.31L305,227a3.32,3.32,0,0,1-.68,0,3.1,3.1,0,0,1,.68-.06c.44,0,1.07,0,1.86-.05,1.57,0,3.74,0,6.12.24s4.54.49,6.09.76c.77.13,1.39.25,1.82.35A2.82,2.82,0,0,1,321.57,228.33Z"/><path d="M319.28,227.8a.6.6,0,0,1-.23,0l-.66,0H316c-2,0-4.85-.1-8-.31s-5.91-.48-7.94-.72c-1-.12-1.83-.23-2.4-.32l-.64-.1-.23-.06H297l.66,0,2.4.24c2,.2,4.83.45,7.94.65s5.91.32,8,.38l2.41.08.66,0A.72.72,0,0,1,319.28,227.8Z"/><path d="M327.32,226.55c0,.07-4.75-.15-10.6-.5s-10.59-.69-10.59-.76,4.75.16,10.6.51S327.32,226.48,327.32,226.55Z"/><path d="M323,225.43c0,.07-3.1-.1-6.91-.38s-6.89-.56-6.88-.63,3.09.1,6.9.38S323,225.36,323,225.43Z"/><path d="M319.53,225.82c0,.07-4.52-.1-10.09-.39s-10.08-.58-10.08-.65,4.52.1,10.09.39S319.53,225.75,319.53,225.82Z"/><path d="M320.68,225.39c0,.07-3.83.13-8.55.13s-8.56-.06-8.56-.13,3.83-.12,8.56-.12S320.68,225.32,320.68,225.39Z"/><path d="M326.3,226.56c0,.07-5.53-.23-12.33-.67s-12.31-.85-12.31-.92,5.52.23,12.33.67S326.3,226.49,326.3,226.56Z"/><path d="M320,229.17a7,7,0,0,1-.83.07l-2.25.12-7.45.28-7.44.21-2.26,0a7.79,7.79,0,0,1-.83,0,4.4,4.4,0,0,1,.83-.08l2.25-.12,7.45-.28,7.44-.2,2.26,0A4.55,4.55,0,0,1,320,229.17Z"/><path d="M316.08,229.48a.75.75,0,0,1-.24,0l-.7,0-2.57.07c-2.18.06-5.18.15-8.49.31s-6.31.35-8.48.51l-2.57.18-.7,0h-.24a1,1,0,0,1,.24,0l.69-.08,2.56-.26c2.17-.2,5.17-.43,8.49-.59s6.32-.22,8.49-.23l2.58,0,.7,0A.64.64,0,0,1,316.08,229.48Z"/><path d="M305.61,229.44c0,.07-3.29.83-7.37,1.7s-7.41,1.52-7.42,1.45,3.28-.83,7.37-1.7S305.59,229.37,305.61,229.44Z"/><path d="M304.21,228.6a16.58,16.58,0,0,1-1.86,0c-1.15,0-2.74.07-4.49.22s-3.31.38-4.45.56-1.83.32-1.84.29a1.71,1.71,0,0,1,.48-.16c.31-.08.76-.19,1.33-.3a37.85,37.85,0,0,1,4.46-.64,39.63,39.63,0,0,1,4.51-.15c.58,0,1,0,1.36.07A1.82,1.82,0,0,1,304.21,228.6Z"/><path d="M310.34,227a4.56,4.56,0,0,1-.75,0l-2,.05c-1.73,0-4.11.15-6.74.33s-5,.44-6.73.63l-2,.24a6.74,6.74,0,0,1-.75.06,3.24,3.24,0,0,1,.73-.16c.48-.09,1.17-.2,2-.32,1.71-.24,4.09-.51,6.73-.7s5-.26,6.76-.26c.86,0,1.56,0,2,0A3.48,3.48,0,0,1,310.34,227Z"/><path d="M321.57,225.71a.76.76,0,0,1-.26,0h-.76l-2.76,0c-2.34,0-5.57,0-9.13.1s-6.79.35-9.12.54l-2.76.24-.75.06h-.26a.7.7,0,0,1,.25-.05l.75-.11c.65-.09,1.59-.2,2.75-.32,2.33-.24,5.56-.49,9.13-.61s6.8-.1,9.14,0c1.17,0,2.12.08,2.77.12l.75.06Z"/><path d="M328,225.67a3.26,3.26,0,0,1-.69.06l-1.86.05-6.14.06h-6.13l-1.87,0a3.83,3.83,0,0,1-.68-.05,3.69,3.69,0,0,1,.68,0l1.86-.05,6.14-.07h6.14l1.86,0A3.48,3.48,0,0,1,328,225.67Z"/><ellipse cx="318.25" cy="224.37" rx="0.64" ry="0.13"/><path d="M335.37,224.69c0,.07-4.33-.25-9.65-.73s-9.63-.91-9.62-1,4.32.25,9.64.73S335.37,224.62,335.37,224.69Z"/><path d="M332.28,223.66a3,3,0,0,1-.57-.11l-1.54-.34c-1.3-.28-3.1-.64-5.11-.94s-3.84-.47-5.16-.58l-1.58-.11a2.41,2.41,0,0,1-.57-.07,2.17,2.17,0,0,1,.58,0c.37,0,.91,0,1.58,0,1.33.06,3.17.21,5.19.51s3.82.69,5.11,1c.65.16,1.17.31,1.53.42A2.1,2.1,0,0,1,332.28,223.66Z"/><path d="M331.91,223a2.11,2.11,0,0,1-.54-.07l-1.44-.26c-1.21-.22-2.9-.5-4.76-.76s-3.57-.43-4.8-.55l-1.45-.13a3.54,3.54,0,0,1-.54-.08,1.84,1.84,0,0,1,.54,0c.35,0,.85,0,1.47.05,1.23.07,2.94.22,4.81.48s3.56.57,4.77.84c.6.13,1.09.24,1.42.33A2,2,0,0,1,331.91,223Z"/><path d="M339.82,228.12c0,.07-4.88-.86-10.87-2.08s-10.83-2.27-10.82-2.34,4.88.87,10.87,2.09S339.83,228.05,339.82,228.12Z"/><path d="M326.94,227.41c0,.07-3.48-.42-7.74-1.1s-7.71-1.28-7.7-1.35,3.47.42,7.74,1.1S327,227.34,326.94,227.41Z"/><path d="M335.75,227.91c0,.07-3.44-.11-7.67-.41s-7.65-.61-7.65-.68,3.44.12,7.67.42S335.75,227.84,335.75,227.91Z"/><path d="M332.42,227.75c0,.07-3.27-.2-7.29-.6s-7.27-.78-7.26-.85,3.27.2,7.29.6S332.43,227.68,332.42,227.75Z"/><path d="M327.45,228c0,.07-2.69,0-6-.07s-6-.26-6-.33,2.69,0,6,.07S327.45,227.89,327.45,228Z"/><path d="M330.77,229.07c0,.07-3.84-.08-8.56-.33s-8.55-.52-8.55-.59,3.84.08,8.56.33S330.77,229,330.77,229.07Z"/><ellipse cx="325.72" cy="228.58" rx="7.47" ry="0.13"/><path d="M321.06,229.39c0,.07-2.55,0-5.69-.18s-5.68-.36-5.67-.43,2.55,0,5.69.18S321.06,229.32,321.06,229.39Z"/><path d="M338.81,228.24a.8.8,0,0,1-.27,0H325.78l-9.2.12-2.8,0H313a.8.8,0,0,1-.27,0l.26,0,.76-.05,2.79-.13c2.36-.09,5.61-.17,9.21-.2s6.86,0,9.21.07l2.79.08.76,0A.94.94,0,0,1,338.81,228.24Z"/><path d="M330.89,225.72c0,.07-4.4.11-9.83.08s-9.83-.11-9.83-.18,4.41-.1,9.83-.07S330.89,225.65,330.89,225.72Z"/><path d="M329,224.52c0,.07-4.9-.35-10.93-.94s-10.9-1.12-10.9-1.19,4.9.35,10.93.94S329,224.45,329,224.52Z"/><path d="M331.92,223.15c0,.07-3.55,0-7.92-.06s-7.92-.25-7.91-.32,3.54,0,7.91.06S331.92,223.08,331.92,223.15Z"/><path d="M329.49,223.11a2.21,2.21,0,0,1-.59,0l-1.58-.16c-1.34-.14-3.18-.31-5.23-.44s-3.89-.18-5.24-.21l-1.59,0a2.11,2.11,0,0,1-.58-.05,4,4,0,0,1,.58-.05c.38,0,.92,0,1.6,0,1.34,0,3.2,0,5.25.14s3.9.33,5.23.51c.67.09,1.2.18,1.58.24A3.7,3.7,0,0,1,329.49,223.11Z"/><path d="M336.25,226c0,.07-3.9-.37-8.7-1s-8.67-1.16-8.66-1.23,3.9.37,8.7,1S336.26,225.88,336.25,226Z"/><path d="M340.72,224.79a3.15,3.15,0,0,1-.68,0l-1.82-.2c-1.55-.17-3.68-.4-6-.58s-4.5-.3-6.05-.37l-1.84-.09a3,3,0,0,1-.67-.06,3.26,3.26,0,0,1,.67,0c.44,0,1.07,0,1.84,0,1.56,0,3.7.11,6.07.29s4.5.44,6,.66l1.82.28A3.21,3.21,0,0,1,340.72,224.79Z"/><path d="M337.4,221.72h-.62l-1.68-.09c-1.41-.1-3.37-.27-5.52-.53s-4.09-.54-5.49-.78l-1.66-.3a3,3,0,0,1-.6-.15,5.27,5.27,0,0,1,.62,0l1.67.22c1.4.19,3.34.45,5.49.71s4.1.45,5.51.6l1.67.17A2.79,2.79,0,0,1,337.4,221.72Z"/><path d="M336,227c0,.07-2.93-.35-6.52-.94S323,225,323,224.92s2.94.35,6.53.93S336,227,336,227Z"/><path d="M333.7,226.56c0,.07-3.66,0-8.17-.14s-8.17-.33-8.17-.4,3.66,0,8.18.14S333.7,226.49,333.7,226.56Z"/><path d="M310.23,227.88a4.29,4.29,0,0,1-.68.22l-1.86.5c-1.58.43-3.74,1-6.12,1.78s-4.5,1.48-6,2l-1.82.64a3.64,3.64,0,0,1-.68.21,4.44,4.44,0,0,1,.64-.3c.42-.18,1-.43,1.79-.72,1.52-.59,3.65-1.35,6-2.1s4.55-1.33,6.14-1.71c.79-.19,1.44-.34,1.89-.43A3.69,3.69,0,0,1,310.23,227.88Z"/><path d="M305.87,225.53s-.66.28-1.7.77a23.89,23.89,0,0,0-3.87,2.29,22.9,22.9,0,0,0-3.35,3,2.46,2.46,0,0,0-.63,1.15,3.58,3.58,0,0,0,0,.49.8.8,0,0,1-.08-.5,2.43,2.43,0,0,1,.59-1.26,20.18,20.18,0,0,1,7.29-5.32c.53-.23,1-.39,1.28-.49A2,2,0,0,1,305.87,225.53Z"/><path d="M310.49,223.28s-.78.31-2,.86a27.86,27.86,0,0,0-4.58,2.58,28.44,28.44,0,0,0-4,3.42c-.94,1-1.46,1.62-1.5,1.59a3.16,3.16,0,0,1,.34-.48,13.57,13.57,0,0,1,1-1.23,24.1,24.1,0,0,1,4-3.51A24.91,24.91,0,0,1,308.4,224c.63-.25,1.15-.44,1.51-.55A2.2,2.2,0,0,1,310.49,223.28Z"/><path d="M315.46,226.32a15.63,15.63,0,0,1-1.46.73c-.9.43-2.14,1-3.48,1.79a20.87,20.87,0,0,0-3.3,2.08,2.45,2.45,0,0,0-.78,1.35,1.76,1.76,0,0,1,.65-1.48,17.28,17.28,0,0,1,3.3-2.17c1.35-.74,2.61-1.34,3.54-1.74A8.9,8.9,0,0,1,315.46,226.32Z"/><path d="M298.72,232a14.18,14.18,0,0,1-2.14,1l-.1-.21q.51-.28,1.11-.57a15.35,15.35,0,0,1,2.39-.89,3.59,3.59,0,0,1,1-.21c0,.07-1.53.49-3.32,1.33-.4.18-.77.37-1.11.55l-.1-.22A13.87,13.87,0,0,1,298.72,232Z"/><path d="M311.75,225.79a15.4,15.4,0,0,0-2.82,1.66l-.11-.21,1.51-.45c1.29-.37,2.46-.7,3.31-.92a6.62,6.62,0,0,1,1.4-.31,9.21,9.21,0,0,1-1.35.48c-.84.27-2,.62-3.29,1l-1.51.43-.61.17.5-.38a9.45,9.45,0,0,1,2.07-1.2A3.1,3.1,0,0,1,311.75,225.79Z"/><path d="M318.14,227.85c0,.07-4.4,1.2-9.86,2.54s-9.89,2.35-9.91,2.28,4.4-1.2,9.85-2.53S318.12,227.78,318.14,227.85Z"/><path d="M317.62,225.8s-.71.15-1.85.37-2.7.56-4.4,1.07-3.2,1.06-4.28,1.5c-.33.14-.37.1-.21.2a1.56,1.56,0,0,0,.54.16c.31,0,.49,0,.49,0a.85.85,0,0,1-.5.1,1.45,1.45,0,0,1-.6-.13l-.22-.13-.12-.09s.06,0,.09-.07l.46-.21A34.9,34.9,0,0,1,311.3,227a34,34,0,0,1,4.44-1c.58-.09,1.05-.14,1.37-.17A2.46,2.46,0,0,1,317.62,225.8Z"/><path d="M334.72,226.06a4.34,4.34,0,0,1-.48,0l-1.37,0-5.05.1c-4.26.12-10.14.37-16.62.93-5.22.44-10,1-13.89,1.51l0-.2,6.8-1.58,1.88-.42c.43-.09.67-.12.67-.12l-.66.18-1.87.48-6.77,1.66,0-.21c3.86-.54,8.67-1.12,13.9-1.56,6.48-.55,12.38-.77,16.64-.85,2.13,0,3.86,0,5.05,0l1.37,0C334.56,226,334.72,226.06,334.72,226.06Z"/><path d="M334.59,226.06a4.7,4.7,0,0,1-.85,0h-2.33c-2,0-4.67,0-7.67.07s-5.71.16-7.67.25l-2.32.1a8,8,0,0,1-.86,0,4.62,4.62,0,0,1,.85-.11l2.32-.18c2-.13,4.68-.27,7.67-.33s5.72,0,7.69,0l2.32.08A5.3,5.3,0,0,1,334.59,226.06Z"/><path d="M316.35,226.09a6.64,6.64,0,0,1-.83.17l-2.28.42c-1.92.35-4.56.91-7.44,1.67s-5.45,1.58-7.3,2.21l-2.19.76a6.69,6.69,0,0,1-.81.26,5.32,5.32,0,0,1,.78-.35c.5-.22,1.24-.5,2.16-.84,1.83-.68,4.4-1.53,7.29-2.29s5.55-1.29,7.48-1.6c1-.16,1.75-.27,2.29-.34A5.29,5.29,0,0,1,316.35,226.09Z"/><path d="M302.29,228.54a5.47,5.47,0,0,1-1.3.42,26.74,26.74,0,0,1-3.24.61,25,25,0,0,1-3.28.2,6.23,6.23,0,0,1-1.37-.08,8.09,8.09,0,0,1,1.36-.1c.84,0,2-.12,3.26-.27s2.41-.37,3.23-.53A10.2,10.2,0,0,1,302.29,228.54Z"/><path d="M303.07,227.07c0,.07-1,.3-2.17.77s-2.06,1-2.1.92a5.69,5.69,0,0,1,2-1.16A5.92,5.92,0,0,1,303.07,227.07Z"/><path d="M302.94,225.93a8.75,8.75,0,0,1-1.18.2c-.73.11-1.73.29-2.81.56a27.88,27.88,0,0,0-2.74.86,8.21,8.21,0,0,1-1.13.39,4.79,4.79,0,0,1,1.07-.56,18.6,18.6,0,0,1,2.74-.94,17.55,17.55,0,0,1,2.85-.49A3.89,3.89,0,0,1,302.94,225.93Z"/><path d="M306.64,223.77a9.82,9.82,0,0,1-1.3.14c-.8.06-1.91.16-3.13.31-.86.1-1.66.22-2.34.33l-1.51.24.11.26c0,.07,0,.12,0,.12s0,0-.09-.09-.1-.15-.23-.37l.74-.18.91-.19c.67-.14,1.48-.27,2.34-.37a30.59,30.59,0,0,1,3.15-.24A5.34,5.34,0,0,1,306.64,223.77Z"/><path d="M315.19,223.75a41.42,41.42,0,0,1-4.66.1,43.55,43.55,0,0,1-4.66-.16,44.48,44.48,0,0,1,4.66-.1A43.37,43.37,0,0,1,315.19,223.75Z"/><path d="M321.83,224.14a1.81,1.81,0,0,1-.52,0h-1.39c-1.18,0-2.81,0-4.61.06s-3.42.17-4.6.25l-1.39.1a1.78,1.78,0,0,1-.52,0,2.87,2.87,0,0,1,.51-.1l1.39-.18c1.17-.13,2.8-.26,4.6-.32s3.44,0,4.62,0c.59,0,1.07,0,1.4.08A2.72,2.72,0,0,1,321.83,224.14Z"/><path d="M321.57,224.14a15.93,15.93,0,0,1-1.76.05l-4.24,0-4.24.11a15.12,15.12,0,0,1-1.76,0,1.47,1.47,0,0,1,.47-.08c.3,0,.74-.07,1.28-.11,1.09-.08,2.59-.15,4.25-.18s3.16,0,4.25,0l1.28.06A1.62,1.62,0,0,1,321.57,224.14Z"/><path d="M334.85,226.67a4.79,4.79,0,0,1-.81-.1l-2.18-.32c-1.85-.27-4.41-.59-7.25-.8s-5.42-.27-7.29-.28h-2.21a3.94,3.94,0,0,1-.81,0,4.89,4.89,0,0,1,.81-.07c.52,0,1.28-.07,2.21-.09,1.87,0,4.46,0,7.31.21s5.41.55,7.25.87c.93.15,1.67.29,2.18.4A4.53,4.53,0,0,1,334.85,226.67Z"/><ellipse cx="321.7" cy="227.31" rx="8.43" ry="0.13"/><ellipse cx="319.6" cy="227.56" rx="6.19" ry="0.13"/><path d="M333.58,232.53a2.93,2.93,0,0,0-1.45-1.38,8.81,8.81,0,0,0-2.14-.62c-.84-.16-1.76-.31-2.73-.44a44.24,44.24,0,0,0-5-.32h-1.53a1.89,1.89,0,0,1-.56,0,3.89,3.89,0,0,1,.56-.08c.36,0,.88-.07,1.52-.09a32.81,32.81,0,0,1,5,.25c1,.12,1.91.28,2.74.46a7.88,7.88,0,0,1,2.18.69,2.85,2.85,0,0,1,1.16,1A1.43,1.43,0,0,1,333.58,232.53Z"/><path d="M337.47,229.39a9.53,9.53,0,0,1-1.53-.17c-.94-.12-2.24-.27-3.69-.38s-2.75-.16-3.7-.18a9.9,9.9,0,0,1-1.54-.07,8.09,8.09,0,0,1,1.54-.11c.95,0,2.27,0,3.72.11s2.76.29,3.7.46A7.44,7.44,0,0,1,337.47,229.39Z"/><path d="M340.49,231.93a9.7,9.7,0,0,1-1.11-.56,20.33,20.33,0,0,0-2.75-1.16,19.55,19.55,0,0,0-2.91-.7,10,10,0,0,1-1.22-.21,4.5,4.5,0,0,1,1.25,0,14.41,14.41,0,0,1,2.95.64,13.77,13.77,0,0,1,2.76,1.24A4.17,4.17,0,0,1,340.49,231.93Z"/><path d="M198.59,228.88a2.91,2.91,0,0,1,.63-.07c.41,0,1,0,1.73-.05,1.46,0,3.48,0,5.71.12s4.24.35,5.69.54l1.71.26a4.42,4.42,0,0,1,.62.13,2.59,2.59,0,0,1-.64,0l-1.72-.18c-1.45-.15-3.45-.33-5.68-.46s-4.23-.18-5.69-.2l-1.73,0A3.44,3.44,0,0,1,198.59,228.88Z"/><path d="M201.9,227a2.32,2.32,0,0,1,.58-.06c.37,0,.91,0,1.58,0A47.18,47.18,0,0,1,214.38,228c.65.15,1.17.29,1.53.39a2.1,2.1,0,0,1,.55.19,3.75,3.75,0,0,1-.57-.09l-1.54-.31c-1.31-.26-3.11-.56-5.13-.79s-3.84-.32-5.17-.36l-1.57,0A2.56,2.56,0,0,1,201.9,227Z"/><path d="M198.07,227.36c0-.07,4.61-.1,10.28-.07s10.28.11,10.28.18-4.6.11-10.28.08S198.07,227.43,198.07,227.36Z"/><path d="M200.88,227.73a19.64,19.64,0,0,1,3.13-.07,20.22,20.22,0,0,1,3.13.19,19.64,19.64,0,0,1-3.13.07A20.22,20.22,0,0,1,200.88,227.73Z"/><path d="M224.75,229.42a15,15,0,0,1,1.13,1.11c.69.68,1.66,1.61,2.8,2.56s2.23,1.74,3,2.29a13.71,13.71,0,0,1,1.29.91s-.15,0-.39-.17-.59-.33-1-.59a28.55,28.55,0,0,1-3.1-2.24,28.19,28.19,0,0,1-2.77-2.64,11.33,11.33,0,0,1-.75-.88A1.61,1.61,0,0,1,224.75,229.42Z"/><path d="M226.86,234.79c0-.07,3.34-.08,7.47,0s7.46.18,7.46.25-3.34.07-7.47,0S226.86,234.86,226.86,234.79Z"/><path d="M227.38,233.9a74.39,74.39,0,0,1,8.17,2.55,36.26,36.26,0,0,1-4.12-1.15A34,34,0,0,1,227.38,233.9Z"/><path d="M228.52,232.8a7.66,7.66,0,0,1,2.81,0,8.29,8.29,0,0,1-2.81,0Z"/><path d="M223.65,231.8a.47.47,0,0,0-.31.07c-.09,0-.17.16-.1.18h.2l.29,0c.81.08,1.92.2,3.15.35s2.34.29,3.15.41a6,6,0,0,1,1.29.25A8,8,0,0,1,230,233c-.81-.07-1.93-.19-3.16-.34s-2.34-.3-3.14-.42l-.6-.09-.08,0,0-.08a.59.59,0,0,1,.06-.14.46.46,0,0,1,.18-.15C223.53,231.67,223.67,231.79,223.65,231.8Z"/><path d="M228.23,232.67a2.12,2.12,0,0,0,.81.9,15.56,15.56,0,0,0,2.83,1c1.14.37,2.16.72,2.89,1a6.65,6.65,0,0,1,1.18.47,5.46,5.46,0,0,1-1.23-.3c-.75-.22-1.78-.54-2.92-.91a12.68,12.68,0,0,1-2.85-1.13A1.38,1.38,0,0,1,228.23,232.67Z"/><path d="M229.79,233.11a7.15,7.15,0,0,1,1.48.16,33.08,33.08,0,0,1,3.53.76,33.67,33.67,0,0,1,3.42,1.15,7.53,7.53,0,0,1,1.35.62,10.62,10.62,0,0,1-1.42-.45c-.87-.3-2.07-.7-3.42-1.07s-2.59-.65-3.49-.84A8.87,8.87,0,0,1,229.79,233.11Z"/><path d="M228,232.16a11.53,11.53,0,0,1,3.1.16,11.85,11.85,0,0,1,3,.73c0,.07-1.38-.23-3.06-.47S228,232.23,228,232.16Z"/><path d="M225.84,233.82c0-.07,1.2.48,2.72,1s2.78.74,2.77.81a9,9,0,0,1-2.85-.57A9.54,9.54,0,0,1,225.84,233.82Z"/><path d="M222.65,232.16a41.5,41.5,0,0,1,6.38.89,19.92,19.92,0,0,1-3.21-.32A21.11,21.11,0,0,1,222.65,232.16Z"/><path d="M220.73,232.41a9,9,0,0,1,2.12.13,8.8,8.8,0,0,1,2.09.38,9,9,0,0,1-2.12-.13A8.94,8.94,0,0,1,220.73,232.41Z"/><path d="M215.11,231.15a13,13,0,0,1,2.45.4,12.67,12.67,0,0,1,2.4.64,12.38,12.38,0,0,1-2.45-.39A12,12,0,0,1,215.11,231.15Z"/><ellipse cx="224.31" cy="232.28" rx="4.72" ry="0.13"/><path d="M216.26,232.16a11.51,11.51,0,0,1,3.45,0,12.46,12.46,0,0,1-3.45,0Z"/><path d="M215.62,231.52c0-.07.45-.07,1,0s1,.18.94.25-.45.07-1,0S215.61,231.59,215.62,231.52Z"/><ellipse cx="215.56" cy="232.28" rx="1.47" ry="0.13"/><path d="M209,233.05c0-.07,1.54.06,3.44.12s3.45.06,3.45.14a4,4,0,0,1-1,.11c-.63,0-1.49,0-2.45,0s-1.81-.11-2.44-.19A3.82,3.82,0,0,1,209,233.05Z"/><path d="M210.78,231.88a22.47,22.47,0,0,1,3.4.32,22.18,22.18,0,0,1,3.36.57,22.38,22.38,0,0,1-3.4-.32A21.88,21.88,0,0,1,210.78,231.88Z"/><path d="M210,231.3a17.78,17.78,0,0,1,3,0,18.23,18.23,0,0,1,3,.25,36,36,0,0,1-6-.25Z"/><path d="M209.11,230.88a1.74,1.74,0,0,1-.47.05l-1.29,0v-.17c1.2,0,2.9,0,4.8,0l4.64.1,1.4.05a1.77,1.77,0,0,1,.51.06,1.88,1.88,0,0,1-.51,0l-1.41,0-4.64,0c-1.89,0-3.59-.06-4.78-.1v-.17l1.3,0A1.57,1.57,0,0,1,209.11,230.88Z"/><path d="M217.54,229.6a8.33,8.33,0,0,1,2.05,0,8,8,0,0,1,2,.26,8.33,8.33,0,0,1-2.05,0A8.12,8.12,0,0,1,217.54,229.6Z"/><path d="M216.9,228.58a8,8,0,0,1,1.58,0c1,0,2.33.11,3.81.26s2.82.33,3.78.49a9.9,9.9,0,0,1,1.55.32,10.1,10.1,0,0,1-1.57-.14l-3.79-.42-3.79-.33A11.19,11.19,0,0,1,216.9,228.58Z"/><path d="M225.84,229.73c0-.07.14-.13.32-.13s.32.06.32.13-.15.13-.32.13S225.84,229.8,225.84,229.73Z"/><path d="M221.24,230.13a3.81,3.81,0,0,1,1.07.13,15.49,15.49,0,0,1,2.5.74,15.09,15.09,0,0,1,2.34,1.14,3.55,3.55,0,0,1,.88.62c0,.07-1.44-.8-3.31-1.52S221.22,230.21,221.24,230.13Z"/><path d="M215.64,229.71a1.63,1.63,0,0,1,.5-.11c.32-.06.79-.12,1.37-.17a21.35,21.35,0,0,1,4.56.13,20.8,20.8,0,0,1,4.43,1.1c.55.2,1,.39,1.28.53a2.12,2.12,0,0,1,.45.24s-.68-.24-1.78-.6a26,26,0,0,0-4.41-1,25.67,25.67,0,0,0-4.52-.2C216.36,229.66,215.65,229.75,215.64,229.71Z"/><path d="M220,230.35a1.39,1.39,0,0,1,.48,0c.31,0,.76,0,1.31.07,1.11.08,2.64.23,4.31.46s3.19.52,4.28.75c.54.11,1,.21,1.28.29a1.7,1.7,0,0,1,.46.15,15.38,15.38,0,0,1-1.78-.27c-1.09-.18-2.6-.43-4.27-.66s-3.19-.41-4.29-.54A15.9,15.9,0,0,1,220,230.35Z"/><path d="M226.22,231.24a30.88,30.88,0,0,1,4,.27,32.06,32.06,0,0,1,3.95.52,30.88,30.88,0,0,1-4-.27A29.91,29.91,0,0,1,226.22,231.24Z"/><path d="M226,230.94c0-.07,2.51.26,5.57.73s5.54.92,5.53,1-2.5-.26-5.57-.73S226,231,226,230.94Z"/><path d="M229.28,231a11.78,11.78,0,0,1,3.11.13,10.81,10.81,0,0,1,3,.75c0,.07-1.37-.26-3.06-.5S229.28,231.09,229.28,231Z"/><path d="M235.41,233.81a9.68,9.68,0,0,1,2.25.19,10.51,10.51,0,0,1,2.22.44,9.68,9.68,0,0,1-2.25-.19A10,10,0,0,1,235.41,233.81Z"/><path d="M233.88,234.84c0-.07.36-.07.79,0s.75.18.74.25-.36.07-.79,0S233.87,234.91,233.88,234.84Z"/><path d="M230.06,231.86a1.89,1.89,0,0,1,.54.11c.35.08.84.22,1.45.4,1.22.37,2.89.92,4.69,1.62s3.41,1.43,4.55,2c.58.28,1,.51,1.35.68a2.89,2.89,0,0,1,.47.28,2,2,0,0,1-.52-.19l-1.37-.61c-1.16-.51-2.77-1.2-4.57-1.9S233.2,233,232,232.55l-1.42-.49A2.13,2.13,0,0,1,230.06,231.86Z"/><path d="M229.17,232.48c0-.07,2.79.4,6.21,1.06s6.17,1.23,6.16,1.3-2.79-.4-6.21-1.05S229.15,232.55,229.17,232.48Z"/><path d="M228.65,232.67a3.31,3.31,0,0,1,1,.1,20.38,20.38,0,0,1,2.5.57,21.23,21.23,0,0,1,2.4.88,3.82,3.82,0,0,1,.94.49c0,.07-1.51-.57-3.42-1.12S228.63,232.74,228.65,232.67Z"/><path d="M231.07,233.31a10.94,10.94,0,0,1,2.28.64,10.63,10.63,0,0,1,2.19.89,11.39,11.39,0,0,1-2.28-.65A11.72,11.72,0,0,1,231.07,233.31Z"/><path d="M222.68,231.54a3.16,3.16,0,0,1,.62.12l1.68.45c1.4.39,3.34,1,5.44,1.72s4,1.49,5.34,2.06c.67.28,1.21.52,1.58.7a3,3,0,0,1,.57.29,3,3,0,0,1-.6-.2l-1.62-.62c-1.36-.53-3.25-1.25-5.35-2s-4-1.35-5.42-1.79l-1.65-.52A3.66,3.66,0,0,1,222.68,231.54Z"/><path d="M221.87,231.06c0-.07,3.2.73,7.12,1.78s7.07,2,7,2-3.21-.73-7.12-1.78S221.85,231.13,221.87,231.06Z"/><path d="M218.82,232c0-.07,3.59.45,8,1.15s7.95,1.34,7.94,1.41-3.58-.45-8-1.15S218.81,232.09,218.82,232Z"/><path d="M218.57,232.37a1.68,1.68,0,0,1,.54.07l1.46.26c1.23.24,2.93.55,4.81.86s3.59.57,4.83.74l1.47.22a2,2,0,0,1,.54.11,2.35,2.35,0,0,1-.55,0c-.35,0-.86-.07-1.48-.14-1.25-.13-3-.35-4.85-.66s-3.58-.66-4.81-.94l-1.44-.35A3.23,3.23,0,0,1,218.57,232.37Z"/><path d="M222.14,229.32a6,6,0,0,1,1.24.15c.76.14,1.8.37,2.94.69a29.16,29.16,0,0,1,2.85,1,5.49,5.49,0,0,1,1.14.52,5.91,5.91,0,0,1-1.2-.35c-.73-.24-1.74-.57-2.86-.89s-2.16-.57-2.91-.75A6.4,6.4,0,0,1,222.14,229.32Z"/><path d="M215,226.11a31.23,31.23,0,0,1,4,.64,32.6,32.6,0,0,1,4,.89,33.46,33.46,0,0,1-4-.64A31.61,31.61,0,0,1,215,226.11Z"/><path d="M214,227.08a3,3,0,0,1,.54,0c.35,0,.85,0,1.47,0a37.88,37.88,0,0,1,4.81.49,39.9,39.9,0,0,1,4.71,1.1c.59.18,1.07.34,1.39.47a1.92,1.92,0,0,1,.49.21,2.21,2.21,0,0,1-.52-.12l-1.41-.38c-1.19-.32-2.85-.71-4.7-1s-3.55-.47-4.78-.56l-1.46-.1A2.06,2.06,0,0,1,214,227.08Z"/><path d="M226.22,228.58a8.46,8.46,0,0,1,2.53.62,7.77,7.77,0,0,1,2.32,1.17c0,.06-1.07-.44-2.41-.93S226.2,228.66,226.22,228.58Z"/><path d="M224.69,227.43a2.16,2.16,0,0,1,1,.07c.57.11,1,.25,1,.32a2.16,2.16,0,0,1-1-.07C225.12,227.64,224.68,227.5,224.69,227.43Z"/><path d="M219.17,226.53c-.08,0-.06-.41.35-.59s.74.08.68.13-.29,0-.57.1S219.24,226.54,219.17,226.53Z"/><path d="M219.07,228.06a5,5,0,0,1,1.12,0c.69,0,1.63.09,2.68.22s2,.29,2.65.42a4,4,0,0,1,1.08.29,6.17,6.17,0,0,1-1.11-.11l-2.65-.35-2.67-.29A5.1,5.1,0,0,1,219.07,228.06Z"/><path d="M208,227.59c0-.07,3.78.3,8.44.83s8.42,1,8.41,1.08-3.79-.3-8.44-.83S208,227.66,208,227.59Z"/><path d="M210.9,227.59c0-.07,2.67.13,5.95.45s5.93.63,5.92.7-2.67-.13-6-.45S210.89,227.66,210.9,227.59Z"/><path d="M208.09,226.54s-.11,0-.28-.11l-.31-.16L207,226l-.21-.12c-.07,0-.19-.09-.05-.08l.51,0,.72,0c.46,0,1,0,1.48,0a26.66,26.66,0,0,1,2.69.15,3.85,3.85,0,0,1,1.1.19,6.16,6.16,0,0,1-1.12,0c-.68,0-1.63-.07-2.67-.08h-2s-.12,0-.06,0l.08.05.18.12.29.2C208,226.46,208.1,226.52,208.09,226.54Z"/><path d="M214,227.05a6.41,6.41,0,0,1,2.56.26,3.36,3.36,0,0,1-1.29,0A3.57,3.57,0,0,1,214,227.05Z"/><path d="M212.56,227a25.35,25.35,0,0,1,3.58,0,25.8,25.8,0,0,1,3.57.25,25.3,25.3,0,0,1-3.58,0A25.8,25.8,0,0,1,212.56,227Z"/><path d="M199.16,226.41s-.14,0-.37-.17l-.4-.24-.78-.47,1.21,0h1.1c.79,0,1.67,0,2.59.05,1.69.07,3.22.22,4.32.36.55.08,1,.14,1.3.2a1.57,1.57,0,0,1,.47.11,14,14,0,0,1-1.79-.13c-1.1-.09-2.63-.21-4.31-.29-.92,0-1.79-.06-2.58-.07h-1.75l.29.2.38.27A2.28,2.28,0,0,1,199.16,226.41Z"/><path d="M214.73,230.6a13.66,13.66,0,0,1,1.8.11l4.33.33,4.33.24a12.24,12.24,0,0,1,1.8.13,2.49,2.49,0,0,1-.49,0h-1.32c-1.11,0-2.64-.05-4.34-.17s-3.22-.26-4.33-.4c-.55-.07-1-.14-1.3-.19A1.85,1.85,0,0,1,214.73,230.6Z"/><path d="M216.13,230a26.1,26.1,0,0,1,3.66.43,27.4,27.4,0,0,1,3.62.68,26.1,26.1,0,0,1-3.66-.43A27.4,27.4,0,0,1,216.13,230Z"/><path d="M213.33,229.08c0-.07,2.88.41,6.4,1.07s6.36,1.25,6.35,1.32-2.88-.41-6.4-1.07S213.32,229.15,213.33,229.08Z"/><path d="M210.9,229.36a43,43,0,0,1,4.61.35,42.64,42.64,0,0,1,4.57.61,42.9,42.9,0,0,1-4.6-.35A42.61,42.61,0,0,1,210.9,229.36Z"/><path d="M210.14,230.33a27.89,27.89,0,0,1,3.71.26,26.75,26.75,0,0,1,3.69.51,26.07,26.07,0,0,1-3.71-.26A25,25,0,0,1,210.14,230.33Z"/><path d="M204.9,229.23c0-.07,2.58.15,5.75.48s5.74.67,5.73.74-2.58-.15-5.75-.48S204.89,229.3,204.9,229.23Z"/><path d="M203.63,229.07a33.13,33.13,0,0,1,4.15.21,33.17,33.17,0,0,1,4.14.46,33.26,33.26,0,0,1-4.16-.21A32.84,32.84,0,0,1,203.63,229.07Z"/><path d="M203.37,230a20.12,20.12,0,0,1,3.14.26,19.17,19.17,0,0,1,3.11.51,20,20,0,0,1-3.14-.26A19.17,19.17,0,0,1,203.37,230Z"/><path d="M197.12,223.52a12.73,12.73,0,0,1-1.46.27,23.88,23.88,0,0,0-3.44.88,13,13,0,0,0-3.21,1.45,2,2,0,0,0-.77,1.18.73.73,0,0,1,0-.41,1.84,1.84,0,0,1,.62-.91,11.33,11.33,0,0,1,3.25-1.55,18.87,18.87,0,0,1,3.49-.82A6.2,6.2,0,0,1,197.12,223.52Z"/><path d="M207.71,225.42a2.65,2.65,0,0,1-.63,0l-1.7,0c-1.44,0-3.42.15-5.59.42s-4.12.67-5.52,1l-1.66.4a2.89,2.89,0,0,1-.61.12,2.2,2.2,0,0,1,.59-.22c.38-.13.94-.29,1.64-.48a45.67,45.67,0,0,1,5.53-1.06,43,43,0,0,1,5.62-.35c.72,0,1.3,0,1.7.06A2.64,2.64,0,0,1,207.71,225.42Z"/><path d="M194.94,226.65a1.23,1.23,0,0,1,.28,0H196c.67,0,1.65.06,2.86.13,2.42.13,5.76.4,9.44.84s7,1,9.36,1.44c1.19.23,2.15.42,2.81.57l.76.17.26.08-.27,0-.77-.12-2.83-.49c-2.38-.4-5.69-.92-9.35-1.37s-7-.73-9.42-.91l-2.86-.21-.78-.06A.79.79,0,0,1,194.94,226.65Z"/><path d="M201.23,227.89s0-.13.2-.28a1.5,1.5,0,0,1,.88-.3,29,29,0,0,1,3,.22c1.16.11,2.21.23,3,.33a7,7,0,0,1,1.23.21,5.68,5.68,0,0,1-1.24,0c-.77,0-1.82-.14-3-.26s-2.22-.27-3-.29A1.4,1.4,0,0,0,201.23,227.89Z"/><path d="M204.26,228c0-.07,3.72,0,8.31.16s8.29.35,8.29.42-3.72,0-8.3-.16S204.26,228,204.26,228Z"/><path d="M200.3,229.78a4.83,4.83,0,0,1,1.11-.19,27,27,0,0,1,2.72-.15c1.06,0,2,.06,2.72.13a4.57,4.57,0,0,1,1.11.18,5.5,5.5,0,0,1-1.12,0c-.7,0-1.65-.06-2.71-.05s-2,0-2.71.07A5.17,5.17,0,0,1,200.3,229.78Z"/><path d="M202.73,231.29a56.48,56.48,0,0,1,7.66.38,56.48,56.48,0,0,1-7.66-.38Z"/><path d="M197.25,229.17c0-.07,2.73.31,6.08.85s6,1,6,1.1-2.73-.31-6.08-.85S197.24,229.24,197.25,229.17Z"/><path d="M192.13,228.08a51.3,51.3,0,0,1,5.12.36,50.54,50.54,0,0,1,5.1.62,51.3,51.3,0,0,1-5.12-.36C194.41,228.42,192.13,228.15,192.13,228.08Z"/><path d="M188.56,225.89a1.81,1.81,0,0,1,.52,0l1.4,0c1.19.05,2.83.15,4.63.35s3.42.45,4.59.67c.59.1,1.06.2,1.38.27l.5.14a2,2,0,0,1-.52,0l-1.39-.2c-1.17-.16-2.79-.39-4.59-.58s-3.43-.34-4.61-.43l-1.4-.11A2,2,0,0,1,188.56,225.89Z"/><path d="M188.56,227.31a3.46,3.46,0,0,1,1.25-.38,3.2,3.2,0,0,1,1.3-.13,3.76,3.76,0,0,1-1.25.38A3.42,3.42,0,0,1,188.56,227.31Z"/><path d="M182,230.32a39.59,39.59,0,0,1,4.32-.95,35.88,35.88,0,0,1,4.36-.71,38.14,38.14,0,0,1-4.32,1A37,37,0,0,1,182,230.32Z"/><path d="M182.18,230.19a34,34,0,0,1,4.15,0,33.66,33.66,0,0,1,4.15.24,32.86,32.86,0,0,1-4.16,0A34.48,34.48,0,0,1,182.18,230.19Z"/><path d="M184.35,227.84a30.4,30.4,0,0,1,3.88-.43,30.09,30.09,0,0,1,3.91-.18,27.67,27.67,0,0,1-3.89.44A28.79,28.79,0,0,1,184.35,227.84Z"/><path d="M184.86,227.68a35.59,35.59,0,0,1,4.19-.65,35.67,35.67,0,0,1,4.23-.4,35.55,35.55,0,0,1-4.2.65A35.42,35.42,0,0,1,184.86,227.68Z"/><path d="M187.54,227c0-.08,2.71-.22,6.06-.32s6.06-.13,6.07-.06-2.71.21-6.06.31S187.54,227.11,187.54,227Z"/><path d="M189.71,228.33l-.31-.05-1.07-.24,3.94-.21,5.25-.23,6.94-.25,2.1,0a5.7,5.7,0,0,1,.77,0,3.68,3.68,0,0,1-.77.08l-2.1.13-6.93.32-5.25.2-2.05.06h-1.11A5.52,5.52,0,0,1,189.71,228.33Z"/><path d="M200.69,228.3a39.84,39.84,0,0,1,4.47-.07,38.05,38.05,0,0,1,4.46.17,38.21,38.21,0,0,1-4.46.08A39.72,39.72,0,0,1,200.69,228.3Z"/><ellipse cx="206.62" cy="228.33" rx="6.06" ry="0.13"/><path d="M195.32,229.38a7.42,7.42,0,0,1,.75.14l2,.45c1.71.38,4.09.87,6.74,1.33s5.05.78,6.8,1l2.07.25a4.14,4.14,0,0,1,.76.12,4.13,4.13,0,0,1-.77,0c-.49,0-1.2-.08-2.08-.17-1.75-.17-4.17-.47-6.82-.92s-5-1-6.75-1.4c-.85-.21-1.54-.39-2-.53A3.84,3.84,0,0,1,195.32,229.38Z"/><path d="M186.65,228.9a3.78,3.78,0,0,1,.54,0c.35,0,.86,0,1.48.09,1.25.1,3,.29,4.85.58s3.59.62,4.8.9l1.44.35a2,2,0,0,1,.52.17,2.15,2.15,0,0,1-.54-.07l-1.45-.27c-1.23-.24-2.92-.54-4.81-.83s-3.59-.5-4.83-.65l-1.46-.17A2.28,2.28,0,0,1,186.65,228.9Z"/><path d="M200.05,227.25a2.11,2.11,0,0,1,.55,0l1.51.08c1.27.1,3,.3,4.95.63s3.63.75,4.86,1.1c.62.17,1.11.32,1.45.43a4.11,4.11,0,0,1,.52.2,2.16,2.16,0,0,1-.55-.1l-1.46-.36c-1.24-.3-3-.68-4.87-1s-3.65-.55-4.92-.7l-1.5-.16A1.93,1.93,0,0,1,200.05,227.25Z"/><path d="M202.34,226.23c0-.07,3,.09,6.72.36s6.69.55,6.69.62-3-.09-6.71-.36S202.34,226.3,202.34,226.23Z"/><path d="M207,225.94l.23,0,.65.09c.57.08,1.39.22,2.39.4,2,.37,4.79.94,7.83,1.7s5.75,1.55,7.7,2.18c1,.31,1.76.57,2.3.76l.62.23c.14.05.22.09.21.1l-.22,0-.64-.18-2.32-.69c-2-.58-4.68-1.35-7.71-2.11s-5.79-1.35-7.8-1.76l-2.37-.48-.65-.14Z"/><path d="M216,226.17a1.2,1.2,0,0,1,.45,0c.29,0,.71.07,1.23.14a37.74,37.74,0,0,1,4,.81,38.65,38.65,0,0,1,3.9,1.23l1.14.47c.27.12.41.19.4.21a12.76,12.76,0,0,1-1.6-.51c-1-.33-2.36-.76-3.9-1.15s-2.95-.69-4-.88A16.43,16.43,0,0,1,216,226.17Z"/><path d="M190.41,226.94a.89.89,0,0,1,.33-.78,1.66,1.66,0,0,1,.91-.45,7,7,0,0,1,1.33-.06l7.63.11,7.64.19,2.31.08a5.3,5.3,0,0,1,.85.07,4.7,4.7,0,0,1-.85,0h-2.32l-7.63-.11-7.64-.19a2.89,2.89,0,0,0-2.17.4A1.24,1.24,0,0,0,190.41,226.94Z"/><path d="M185.56,226a3.21,3.21,0,0,1,.49-.24,13,13,0,0,1,1.37-.53,20.64,20.64,0,0,1,9.62-.8,10.85,10.85,0,0,1,1.44.29,1.81,1.81,0,0,1,.52.16s-.76-.13-2-.28a24.51,24.51,0,0,0-4.81-.09,24.26,24.26,0,0,0-4.72.89C186.29,225.77,185.58,226.05,185.56,226Z"/><path d="M183.43,228.61a1.77,1.77,0,0,1,.15-.46,4.61,4.61,0,0,1,.68-1.12,7.13,7.13,0,0,1,3.62-2.28,13.34,13.34,0,0,1,4.28-.38c.55,0,1,.07,1.3.11a1.47,1.47,0,0,1,.47.08,15.27,15.27,0,0,1-1.77,0A15,15,0,0,0,188,225a7.41,7.41,0,0,0-3.55,2.16A10.21,10.21,0,0,0,183.43,228.61Z"/><path d="M179.07,228.55s0-.05.11-.12a2,2,0,0,1,.35-.27,4.09,4.09,0,0,1,1.56-.52,17.88,17.88,0,0,1,2.42-.1h3l5.37.06,1.62,0a2.41,2.41,0,0,1,.6.06,3.56,3.56,0,0,1-.6,0l-1.62,0h-5.37l-3,0a20.38,20.38,0,0,0-2.4,0A4.15,4.15,0,0,0,179.07,228.55Z"/><path d="M185.14,231.37s.14-.32.32-.83a8.64,8.64,0,0,1,.86-2,2.22,2.22,0,0,1,.92-.81,1.65,1.65,0,0,1,1-.1c.59.13.76.53.73.53a1.64,1.64,0,0,0-.76-.36,1.66,1.66,0,0,0-.88.14,2.27,2.27,0,0,0-.81.74,12.07,12.07,0,0,0-.9,1.91C185.4,231.12,185.17,231.39,185.14,231.37Z"/><path d="M179.57,228.57a1.48,1.48,0,0,1,.4-.2c.27-.11.66-.25,1.15-.41a20.9,20.9,0,0,1,3.94-.81,20.1,20.1,0,0,1,4,0,11.89,11.89,0,0,1,1.2.16,2.06,2.06,0,0,1,.44.1s-.64,0-1.66-.08a25.35,25.35,0,0,0-4,.1,26.11,26.11,0,0,0-3.91.74C180.19,228.4,179.59,228.61,179.57,228.57Z"/><path d="M183.73,229.85a1.42,1.42,0,0,1,.33-.84,3.09,3.09,0,0,1,1.84-1.15,5.86,5.86,0,0,1,2.17,0,2.75,2.75,0,0,1,.87.21,4.07,4.07,0,0,1-.89,0,7.3,7.3,0,0,0-2.09.09,3.29,3.29,0,0,0-1.76,1C183.86,229.53,183.78,229.86,183.73,229.85Z"/><path d="M192.13,229.25c0-.07,3.5.37,7.8,1s7.78,1.16,7.77,1.23-3.5-.37-7.8-1S192.12,229.32,192.13,229.25Z"/><path d="M193,228.19c0-.07,3.9.32,8.69.87s8.67,1.05,8.66,1.12-3.9-.32-8.69-.87S193,228.26,193,228.19Z"/><path d="M188.31,228.33a1.77,1.77,0,0,1,.31,0h.89c.78,0,1.91,0,3.3.07,2.78.09,6.62.32,10.84.77s8,1,10.76,1.55c1.37.25,2.48.47,3.24.64l.87.19.3.09-.31,0-.88-.14-3.25-.56c-2.74-.45-6.54-1-10.76-1.47s-8-.71-10.82-.85l-3.29-.15-.89,0A1.11,1.11,0,0,1,188.31,228.33Z"/><path d="M205.41,230.48h.3l.83.08c.73.07,1.78.2,3.07.37,2.58.36,6.14.94,10,1.79s7.36,1.8,9.86,2.56c1.24.38,2.25.7,2.94.94l.79.27a1.23,1.23,0,0,1,.27.12l-.29-.07-.8-.23-3-.86c-2.5-.71-6-1.63-9.86-2.48s-7.43-1.46-10-1.86l-3.05-.45-.83-.13A1.19,1.19,0,0,1,205.41,230.48Z"/><path d="M198.14,229.5a2.64,2.64,0,0,1,.63-.06c.41,0,1-.05,1.73-.06,1.46,0,3.48,0,5.71.13s4.24.34,5.69.54c.72.09,1.3.18,1.71.25a2.67,2.67,0,0,1,.62.14,3.07,3.07,0,0,1-.64,0l-1.72-.17c-1.45-.15-3.45-.34-5.68-.47s-4.23-.18-5.69-.2l-1.73,0A2.83,2.83,0,0,1,198.14,229.5Z"/><path d="M201.45,227.58a4,4,0,0,1,.58-.05c.37,0,.91,0,1.58-.05a49.24,49.24,0,0,1,5.19.29,46.78,46.78,0,0,1,5.13.87c.65.15,1.17.28,1.53.39a2.41,2.41,0,0,1,.55.18,2,2,0,0,1-.57-.09l-1.54-.31c-1.31-.25-3.11-.56-5.13-.79s-3.84-.32-5.17-.36l-1.57,0A2,2,0,0,1,201.45,227.58Z"/><path d="M197.62,228c0-.07,4.61-.11,10.28-.07s10.28.11,10.28.18-4.6.1-10.28.07S197.62,228.06,197.62,228Z"/><path d="M200.43,228.35a19,19,0,0,1,3.13-.06,18.83,18.83,0,0,1,3.13.19,19,19,0,0,1-3.13.06A18.83,18.83,0,0,1,200.43,228.35Z"/><path d="M137.11,215a4.53,4.53,0,0,1,.32-.33c.2-.22.55-.49.91-.93a18.5,18.5,0,0,0,2.76-3.91,29.87,29.87,0,0,0,2.52-6.64c.7-2.59,1.22-5.5,1.74-8.56a61.86,61.86,0,0,1,2-8.53,25.83,25.83,0,0,1,3-6.47,16.14,16.14,0,0,1,3.23-3.57,11.75,11.75,0,0,1,1.45-1s-.12.11-.36.29-.61.42-1,.81a16.59,16.59,0,0,0-3.14,3.59,26.4,26.4,0,0,0-3,6.45,64,64,0,0,0-2,8.49c-.52,3.06-1.05,6-1.76,8.58a29.57,29.57,0,0,1-2.59,6.67,17.94,17.94,0,0,1-2.84,3.89A14.56,14.56,0,0,1,137.11,215Z"/><path d="M139.53,220.08a12.31,12.31,0,0,1-.2-1.67,15.35,15.35,0,0,1,.46-4.54,23.66,23.66,0,0,1,2.61-6.26,44.79,44.79,0,0,1,4.89-6.71c1.93-2.22,3.84-4.28,5.48-6.22a44.83,44.83,0,0,0,4-5.44,25.15,25.15,0,0,0,2-4.06c.21-.49.31-.9.42-1.16a2.11,2.11,0,0,1,.16-.41,15.31,15.31,0,0,1-.49,1.61,23.9,23.9,0,0,1-2,4.12,42.91,42.91,0,0,1-4,5.49c-1.64,2-3.54,4-5.47,6.24a46.36,46.36,0,0,0-4.88,6.66,24.11,24.11,0,0,0-2.64,6.18,16.28,16.28,0,0,0-.53,4.5c0,.54.07,1,.08,1.24S139.53,220.08,139.53,220.08Z"/><path d="M152,229.92a1.25,1.25,0,0,1,.09-.31c.08-.21.18-.51.32-.89.3-.77.67-1.89,1.08-3.3a48.27,48.27,0,0,0,1.16-5,54.29,54.29,0,0,0,.68-6.26,53.06,53.06,0,0,0-.16-6.28,48.57,48.57,0,0,0-.74-5.09c-.29-1.43-.57-2.59-.8-3.37l-.25-.92a2,2,0,0,1-.07-.32,1.41,1.41,0,0,1,.12.31l.29.9a33.93,33.93,0,0,1,.88,3.36,43.31,43.31,0,0,1,.8,5.1,47.85,47.85,0,0,1,.18,6.32,48.54,48.54,0,0,1-.7,6.29,44.5,44.5,0,0,1-1.22,5,34.46,34.46,0,0,1-1.15,3.28l-.37.88C152.1,229.83,152.05,229.93,152,229.92Z"/><path d="M140.57,203.06a37,37,0,0,1-2.43-6.19,46.44,46.44,0,0,1-1.87-15.9,45.86,45.86,0,0,1,1.35-8.75c.16-.66.34-1.3.54-1.91s.37-1.22.58-1.79a17.19,17.19,0,0,1,1.47-3,7.91,7.91,0,0,1,3.52-3.3,5.26,5.26,0,0,1,1.29-.35c.3,0,.46,0,.46,0a7.23,7.23,0,0,0-1.71.47,8,8,0,0,0-3.41,3.31,16.84,16.84,0,0,0-1.42,3c-.21.57-.38,1.17-.56,1.78s-.37,1.25-.53,1.91a46.31,46.31,0,0,0-1.32,8.7,47.68,47.68,0,0,0,1.78,15.84c.59,2,1.16,3.53,1.59,4.59l.51,1.22C140.52,202.91,140.57,203.06,140.57,203.06Z"/><path d="M146.2,242.66a2.22,2.22,0,0,1,.19-.31l.56-.87c.51-.74,1.21-1.84,2.05-3.2a95.27,95.27,0,0,0,10.23-22.85c.46-1.54.8-2.79,1-3.66l.27-1a3.09,3.09,0,0,1,.11-.34,1.68,1.68,0,0,1-.06.36l-.22,1c-.19.88-.51,2.14-.95,3.69a87.63,87.63,0,0,1-10.24,22.89c-.87,1.36-1.6,2.44-2.12,3.17l-.61.84C146.29,242.57,146.21,242.67,146.2,242.66Z"/><path d="M155.12,242.49c-.07,0,0-.38.13-.81s.3-.75.37-.72,0,.38-.13.8S155.19,242.51,155.12,242.49Z"/><path d="M154.5,192c-.07,0,.36-7.21,1-16.09s1.16-16.08,1.23-16.07-.37,7.2-1,16.08S154.57,192,154.5,192Z"/><path d="M162.39,191.45a1.36,1.36,0,0,1,0-.3l0-.86.15-3.18c.13-2.68.25-6.38.26-10.47s-.09-7.8-.2-10.48c-.06-1.34-.1-2.42-.13-3.17l0-.87a1.36,1.36,0,0,1,0-.3,1.4,1.4,0,0,1,0,.3l.08.86c.07.75.15,1.83.22,3.17.16,2.68.29,6.39.28,10.49s-.17,7.8-.34,10.48c-.08,1.34-.16,2.42-.23,3.17l-.09.86C162.41,191.35,162.39,191.45,162.39,191.45Z"/><path d="M127.13,172.57a15.81,15.81,0,0,1,1.55-3.41,20,20,0,0,1,2.43-3.27,22.78,22.78,0,0,1,3.78-3.26,23.12,23.12,0,0,1,4.44-2.28,20.15,20.15,0,0,1,3.94-1,15.26,15.26,0,0,1,3.74-.16.9.9,0,0,1-.26,0l-.74,0a8.82,8.82,0,0,0-1.17.07,15.1,15.1,0,0,0-1.54.21,21.69,21.69,0,0,0-3.89,1.06,24.15,24.15,0,0,0-4.38,2.27,23.67,23.67,0,0,0-3.75,3.21,21,21,0,0,0-2.44,3.2,14.36,14.36,0,0,0-.77,1.35,8.22,8.22,0,0,0-.51,1.06l-.31.67A1,1,0,0,1,127.13,172.57Z"/><path d="M136.46,187.84a18.17,18.17,0,0,1,.77-4.16,23.22,23.22,0,0,1,1.72-4.27,26.72,26.72,0,0,1,3.17-4.66,27,27,0,0,1,4.15-3.82,22.85,22.85,0,0,1,4-2.33,18.29,18.29,0,0,1,4-1.37l-.27.11-.8.26a11.14,11.14,0,0,0-1.24.46,15.77,15.77,0,0,0-1.61.7,24.26,24.26,0,0,0-3.9,2.36,27,27,0,0,0-4.09,3.8,27.42,27.42,0,0,0-3.16,4.6,24.77,24.77,0,0,0-1.76,4.21c-.22.61-.33,1.19-.46,1.69a11.71,11.71,0,0,0-.27,1.3l-.14.83A1.48,1.48,0,0,1,136.46,187.84Z"/><path d="M143,167.52a3.36,3.36,0,0,1,.37-.61c.26-.39.64-.94,1.14-1.6a47.55,47.55,0,0,1,9.1-9.12c.66-.5,1.2-.89,1.58-1.14a3.37,3.37,0,0,1,.62-.38,4.14,4.14,0,0,1-.56.46l-1.53,1.2a60.87,60.87,0,0,0-4.79,4.29,62.19,62.19,0,0,0-4.28,4.8c-.5.65-.91,1.18-1.2,1.54A4.78,4.78,0,0,1,143,167.52Z"/><path d="M184.29,154.17s.13-.09.38-.21.62-.27,1.09-.44a18.74,18.74,0,0,1,3.77-.94,19.38,19.38,0,0,1,3.89-.16c.49,0,.89.08,1.17.13a1.31,1.31,0,0,1,.42.09s-.62,0-1.6,0a23.26,23.26,0,0,0-7.59,1.09C184.87,154,184.3,154.21,184.29,154.17Z"/><path d="M170.49,159.74l.65-.16,1.88-.42,6.9-1.49,22.81-4.83,22.81-4.76c1.46-.32,2.81-.52,3.92-.87a3.35,3.35,0,0,0,1.38-.81,1.34,1.34,0,0,0,.41-1.22A1.51,1.51,0,0,0,230,144a.86.86,0,0,0-.58.26.71.71,0,0,1,.58-.31,1.57,1.57,0,0,1,1.36,1.24,1.44,1.44,0,0,1-.42,1.32,3.33,3.33,0,0,1-1.42.86c-1.14.38-2.47.58-3.93.92l-22.8,4.83L180,157.84,173,159.26l-1.89.37Z"/><path d="M381.79,200.62s0-.23,0-.67.1-1.08.18-1.92c.16-1.66.4-4.07.52-7.06a51.14,51.14,0,0,0-.52-10.46,30.31,30.31,0,0,0-1.61-5.95c-.18-.51-.4-1-.63-1.49a13.47,13.47,0,0,0-.74-1.47c-.28-.48-.54-1-.82-1.46s-.63-.94-.94-1.41a72.88,72.88,0,0,0-8.56-9.56,78.65,78.65,0,0,1-7.1-7.75,28.57,28.57,0,0,1-3.62-6.09c-.59-1.57-.84-2.46-.84-2.46s.09.21.25.62.34,1,.68,1.8a29.47,29.47,0,0,0,3.67,6,79.16,79.16,0,0,0,7.13,7.69,71.46,71.46,0,0,1,8.59,9.59l.95,1.42c.29.48.56,1,.83,1.47A14.68,14.68,0,0,1,380,173c.23.5.45,1,.63,1.51a30.2,30.2,0,0,1,1.62,6,50.44,50.44,0,0,1,.46,10.5c-.14,3-.41,5.4-.6,7.06-.1.83-.18,1.48-.23,1.92S381.79,200.62,381.79,200.62Z"/><path d="M374.21,225.59l.8-.48c.26-.16.6-.33,1-.58l1.28-.87A28.62,28.62,0,0,0,384,216.6a34.19,34.19,0,0,0,5.29-13.45,42.22,42.22,0,0,0-1.14-17.67,63.55,63.55,0,0,0-7.16-16.3,113.09,113.09,0,0,0-8.42-11.91c-2.59-3.25-4.78-5.81-6.28-7.59l-1.73-2c-.4-.47-.59-.73-.59-.73s3.49,3.79,8.74,10.24a113.2,113.2,0,0,1,8.49,11.91,63.3,63.3,0,0,1,7.19,16.35,42.22,42.22,0,0,1,1.13,17.78,34,34,0,0,1-5.37,13.51,28,28,0,0,1-6.86,7l-1.29.86c-.38.23-.72.4-1,.55C374.5,225.45,374.21,225.59,374.21,225.59Z"/><path d="M382,227.2s0-.18,0-.53.08-.85.13-1.5.14-1.46.16-2.39.11-2,.07-3.17,0-2.46-.13-3.84-.25-2.84-.42-4.38a68.9,68.9,0,0,0-2.14-9.86,68,68,0,0,0-3.68-9.4c-.71-1.38-1.35-2.71-2.07-3.89s-1.37-2.28-2-3.26-1.27-1.84-1.81-2.6-1-1.4-1.46-1.9l-.94-1.19c-.22-.27-.32-.42-.32-.42s.13.13.36.39l1,1.15c.43.5.94,1.12,1.49,1.88s1.22,1.59,1.85,2.59,1.37,2.05,2.05,3.26,1.39,2.51,2.1,3.89a67,67,0,0,1,3.72,9.42,68.42,68.42,0,0,1,2.12,9.9c.17,1.55.36,3,.4,4.41s.11,2.67.1,3.85-.06,2.24-.11,3.18a23.15,23.15,0,0,1-.2,2.39c-.08.65-.14,1.16-.18,1.5S382,227.2,382,227.2Z"/><path d="M379.22,232.35s0-.16,0-.45l0-1.27c.05-1.11.08-2.72.09-4.7a145.11,145.11,0,0,0-.78-15.47,141.6,141.6,0,0,0-2.47-15.28c-.42-1.94-.78-3.5-1.06-4.58l-.3-1.24a4.15,4.15,0,0,1-.09-.44s.06.15.14.43.2.69.35,1.23c.3,1.07.7,2.62,1.14,4.56a129.33,129.33,0,0,1,3.25,30.79c0,2-.09,3.59-.17,4.7,0,.55-.06,1-.08,1.28A3.85,3.85,0,0,1,379.22,232.35Z"/><path d="M386.71,239.59s-2.15-4.2-5.14-11.22c-1.5-3.51-3.15-7.74-4.86-12.48s-3.38-10-4.95-15.64-2.81-11-3.84-15.95-1.75-9.42-2.28-13.2c-1.07-7.55-1.39-12.26-1.39-12.26s0,.29.11.85.16,1.38.28,2.44.26,2.35.47,3.85.4,3.22.71,5.1c.55,3.77,1.33,8.24,2.33,13.17s2.31,10.33,3.85,15.93,3.27,10.87,4.93,15.63,3.33,9,4.81,12.49c.71,1.77,1.42,3.34,2,4.73s1.14,2.58,1.59,3.54.79,1.72,1,2.23S386.71,239.59,386.71,239.59Z"/><path d="M363.22,250.12s-.09-.19-.24-.56a7.84,7.84,0,0,1-.38-1.69,11.16,11.16,0,0,1,1.3-6.17c1.18-2.44,3.4-4.82,5.75-7.45a28.44,28.44,0,0,0,5.84-9.81,41.17,41.17,0,0,0,2.17-11.26,73.37,73.37,0,0,0-.11-9.4c-.18-2.67-.4-4.83-.55-6.33-.07-.74-.12-1.32-.16-1.71s0-.61,0-.61,0,.21.09.6.12,1,.21,1.71c.18,1.49.43,3.65.63,6.33a69.53,69.53,0,0,1,.16,9.43,40.86,40.86,0,0,1-2.16,11.32,30.68,30.68,0,0,1-2.55,5.42,28.69,28.69,0,0,1-3.35,4.46c-2.37,2.64-4.58,5-5.77,7.39a11.14,11.14,0,0,0-1.36,6.07A8.87,8.87,0,0,0,363.22,250.12Z"/><path d="M371.28,213.42s0-.23.06-.66.13-1.06.23-1.87l.17-1.35c.06-.5.08-1,.13-1.62.07-1.16.22-2.48.21-3.95,0-.73,0-1.5,0-2.3s-.05-1.63-.07-2.49c0-1.72-.23-3.55-.41-5.48a81.77,81.77,0,0,0-2.46-12.34,80.46,80.46,0,0,0-4.5-11.75c-.88-1.73-1.68-3.39-2.58-4.86-.43-.74-.83-1.47-1.26-2.14l-1.26-1.93c-.77-1.25-1.6-2.28-2.28-3.23-.35-.46-.66-.91-1-1.3l-.87-1.05c-.52-.64-.92-1.13-1.2-1.46s-.4-.53-.4-.53l.44.49,1.23,1.43.89,1c.31.39.63.83,1,1.3.69.93,1.53,2,2.31,3.21L361,162.5c.44.67.83,1.41,1.28,2.15.91,1.47,1.72,3.13,2.61,4.85a73.72,73.72,0,0,1,7,24.17c.17,1.94.37,3.78.38,5.5,0,.87.08,1.7.06,2.5s0,1.57-.05,2.31c0,1.47-.16,2.79-.25,4-.05.58-.09,1.12-.14,1.62s-.14.95-.2,1.35c-.12.81-.22,1.44-.28,1.87S371.28,213.42,371.28,213.42Z"/><path d="M385.5,174.69s.23.17.7.45a5.47,5.47,0,0,0,2.25.72,7.47,7.47,0,0,0,3.66-.6,7.28,7.28,0,0,0,3.53-3.35,10.5,10.5,0,0,0,1.07-5.84,15.94,15.94,0,0,0-2.2-6.51,45.5,45.5,0,0,0-4.49-6.23c-1.66-2.09-3.5-4.16-5.42-6.24a119.66,119.66,0,0,0-22.2-18.55c-3.11-2-5.74-3.49-7.55-4.52l-2.11-1.13c-.48-.26-.72-.41-.72-.41a95,95,0,0,1,10.48,5.91,117.37,117.37,0,0,1,22.29,18.53c1.92,2.08,3.76,4.16,5.43,6.25a47,47,0,0,1,4.5,6.27,16.11,16.11,0,0,1,2.2,6.61A10.71,10.71,0,0,1,395.8,172a7.41,7.41,0,0,1-7.36,4,5.49,5.49,0,0,1-2.26-.77A4.9,4.9,0,0,1,385.5,174.69Z"/><path d="M366.06,160.18a3.82,3.82,0,0,0,1.89-.3,5.25,5.25,0,0,0,2.9-4.13c.35-2.22-.36-4.87-.94-7.77s-1.4-6.08-2.32-9.39A168.38,168.38,0,0,0,362,121.94c-.84-2.08-1.55-3.76-2-4.92l-.57-1.33c-.13-.31-.19-.47-.19-.47s.09.15.23.45L360,117c.52,1.15,1.26,2.81,2.11,4.9a151.76,151.76,0,0,1,5.69,16.64c.93,3.31,1.69,6.5,2.31,9.41s1.27,5.57.89,7.85a5.31,5.31,0,0,1-3,4.19,3.21,3.21,0,0,1-1.43.27A2.2,2.2,0,0,1,366.06,160.18Z"/><path d="M374.33,170.51a4.91,4.91,0,0,0,1.18-1.69,6.73,6.73,0,0,0-.43-5.46A22.58,22.58,0,0,0,373,160l-2.66-3.65c-1.89-2.56-4-5.34-6.31-8.2-4.58-5.74-9-10.72-12.23-14.27l-3.89-4.16c-.46-.49-.82-.87-1.07-1.12a5.35,5.35,0,0,1-.35-.41s.14.12.39.37l1.1,1.09c.95,1,2.3,2.36,3.95,4.11,3.29,3.52,7.72,8.49,12.3,14.23,2.3,2.87,4.42,5.65,6.3,8.22l2.64,3.67a21,21,0,0,1,2.06,3.36,6.79,6.79,0,0,1,.36,5.58,4.18,4.18,0,0,1-.86,1.29A2.47,2.47,0,0,1,374.33,170.51Z"/><path d="M204.2,33.13l.67-.15,1.93-.36,1.41-.26c.51-.08,1.07-.14,1.68-.21,1.21-.13,2.58-.35,4.11-.4l2.4-.13c.83,0,1.7,0,2.6,0,1.81,0,3.73.13,5.75.26a72.27,72.27,0,0,1,25.26,7c1.8.93,3.53,1.78,5.05,2.74.77.46,1.54.88,2.23,1.34l2,1.35c1.29.83,2.35,1.73,3.32,2.46.48.38.93.71,1.33,1l1.07.94,1.47,1.31c.34.3.5.47.5.47s-.19-.14-.53-.43l-1.5-1.27-1.08-.93c-.41-.33-.87-.66-1.35-1-1-.72-2-1.6-3.33-2.42l-2-1.33c-.69-.46-1.46-.87-2.23-1.33-1.52-1-3.25-1.79-5-2.71a73,73,0,0,0-25.17-7c-2-.13-3.93-.31-5.73-.28-.9,0-1.76,0-2.6,0l-2.39.11c-1.53,0-2.9.24-4.11.36-.6.07-1.16.11-1.68.19l-1.4.23-1.94.32Z"/><path d="M203.22,48.26l.54-.08,1.53-.2c.67-.09,1.48-.18,2.44-.22s2-.16,3.24-.14,2.52,0,3.93.07,2.91.22,4.5.38a62.75,62.75,0,0,1,19.75,5.85c1.42.72,2.78,1.38,4,2.12s2.33,1.41,3.33,2.08,1.88,1.31,2.65,1.87,1.41,1.08,1.92,1.52.91.77,1.18,1,.4.36.4.36l-.43-.32c-.28-.22-.68-.55-1.21-1s-1.16-.94-1.95-1.48-1.63-1.22-2.66-1.84-2.1-1.37-3.34-2-2.57-1.39-4-2.1a70.1,70.1,0,0,0-9.61-3.71,69,69,0,0,0-10.07-2.11c-1.58-.17-3.07-.36-4.48-.4s-2.72-.11-3.92-.11-2.28.06-3.23.1-1.77.11-2.44.18l-1.54.15C203.41,48.26,203.22,48.26,203.22,48.26Z"/><path d="M212.89,59.74a4.19,4.19,0,0,1,.62-.1c.4-.06,1-.11,1.7-.16a44.64,44.64,0,0,1,5.64,0,45.78,45.78,0,0,1,5.61.66c.71.13,1.28.25,1.67.35a2.62,2.62,0,0,1,.6.18l-.62-.08-1.68-.27c-1.43-.22-3.4-.46-5.59-.58s-4.18-.1-5.62,0l-1.71.08A2.47,2.47,0,0,1,212.89,59.74Z"/><path d="M173,57.94s.27,0,.78,0l2.21.13c1.92.12,4.7.34,8.13.66,6.87.63,16.32,1.76,26.69,3.53s19.66,3.86,26.34,5.54c3.34.84,6,1.56,7.89,2.09l2.13.61.74.22s-.26,0-.75-.18L245,70c-1.86-.49-4.56-1.18-7.9-2-6.69-1.64-16-3.69-26.34-5.47s-19.81-2.92-26.66-3.6c-3.43-.34-6.21-.59-8.13-.74L173.8,58Z"/><path d="M317.63,17.12l-.46.12-1.32.32c-.57.13-1.27.29-2.07.52s-1.73.44-2.73.77c-2,.59-4.37,1.41-6.95,2.44a85,85,0,0,0-8.16,3.84,86.61,86.61,0,0,0-7.67,4.75C286,31.49,284,33,282.44,34.39c-.82.66-1.51,1.31-2.13,1.87s-1.15,1-1.57,1.46l-1,.93c-.23.21-.36.31-.36.31a62,62,0,0,1,4.91-4.71c1.58-1.39,3.55-2.94,5.82-4.56a83.17,83.17,0,0,1,7.68-4.78A80.76,80.76,0,0,1,304,21.07c2.59-1,5-1.83,7-2.4A61.41,61.41,0,0,1,317.63,17.12Z"/><path d="M338.87,22.64c0,.06-12.05,6.09-27,13.46s-27.05,13.3-27.08,13.24,12-6.09,27-13.46S338.83,22.58,338.87,22.64Z"/><path d="M364.05,24a4,4,0,0,0-.58-2.09,5.23,5.23,0,0,0-1.85-1.75,6.66,6.66,0,0,0-3.26-.83,20.9,20.9,0,0,0-4.13.45l-4.71.85L338.7,22.57,319.05,26l-6,1-1.62.26-.57.08a5.41,5.41,0,0,1,.56-.13l1.62-.31,5.94-1.1,19.64-3.52,10.81-1.91,4.73-.82a19.48,19.48,0,0,1,4.16-.43,6.78,6.78,0,0,1,3.33.88,5.17,5.17,0,0,1,1.86,1.83,3.62,3.62,0,0,1,.51,1.56A2.34,2.34,0,0,1,364.05,24Z"/><path d="M341,16.65l-.61.14-1.75.35c-1.51.32-3.7.82-6.35,1.61a79,79,0,0,0-29.23,15.92,37,37,0,0,0-6.61,7.08,18.9,18.9,0,0,0-2.76,5.89,16.33,16.33,0,0,0-.33,1.74c-.06.41-.1.62-.1.62s0-.21.05-.62a11.47,11.47,0,0,1,.29-1.77,18.61,18.61,0,0,1,2.7-6,36.9,36.9,0,0,1,6.61-7.15,77.46,77.46,0,0,1,29.33-15.92c2.66-.77,4.86-1.23,6.38-1.53l1.76-.31Z"/><path d="M350.29,23.61l-.7.21-2,.56-7.38,2.09C334,28.25,325.41,30.81,316,33.86s-17.83,6-23.91,8.27l-7.19,2.66-2,.73c-.44.16-.68.23-.68.23l.67-.28,1.93-.77C286.56,44,289,43.09,292,42c6.06-2.27,14.49-5.28,23.89-8.34s18-5.59,24.23-7.33c3.11-.87,5.64-1.55,7.4-2l2-.52C350,23.65,350.29,23.61,350.29,23.61Z"/><path d="M292.11,25.23l-.67.25-1.95.68c-1.69.58-4.12,1.46-7.11,2.62s-6.5,2.61-10.37,4.33-8,3.79-12.34,6.08-8.31,4.67-11.91,6.9-6.75,4.37-9.36,6.22-4.7,3.38-6.12,4.47L230.64,58l-.59.42s.19-.17.56-.46l1.61-1.28c1.4-1.12,3.48-2.67,6.08-4.54s5.76-4,9.34-6.27,7.6-4.61,11.91-6.93,8.51-4.32,12.37-6.06,7.4-3.17,10.4-4.29,5.44-2,7.14-2.54l2-.64Z"/><path d="M300.3,42.11s-.17.08-.5.2l-1.45.52c-1.27.44-3.09,1.1-5.33,1.93-4.48,1.66-10.63,4.07-17.3,7s-12.59,5.9-16.83,8.11c-2.12,1.1-3.83,2-5,2.65l-1.36.73c-.31.16-.48.23-.48.23l.46-.28,1.33-.77c1.16-.66,2.86-1.6,5-2.72,4.22-2.26,10.13-5.22,16.8-8.19s12.85-5.35,17.35-7c2.25-.81,4.08-1.44,5.35-1.85l1.47-.48Z"/><path d="M313.54,32.9s-.17.06-.49.14l-1.4.35c-1.21.29-3,.75-5.12,1.35A142.47,142.47,0,0,0,274.35,48.2c-1.94,1.11-3.5,2-4.56,2.7l-1.23.75-.44.25a4.3,4.3,0,0,1,.41-.29l1.21-.79c1-.69,2.59-1.64,4.52-2.77a133.43,133.43,0,0,1,32.22-13.48c2.16-.58,3.93-1,5.15-1.27L313,33Z"/><path d="M310.43,23l-.49.13-1.4.32c-1.22.27-3,.68-5.14,1.23a168.63,168.63,0,0,0-16.63,5.2,164.38,164.38,0,0,0-16,7c-2,1-3.6,1.83-4.7,2.43l-1.27.67-.45.22a4.85,4.85,0,0,1,.43-.26l1.24-.72c1.09-.62,2.68-1.48,4.66-2.5a150.12,150.12,0,0,1,32.65-12.16c2.17-.53,3.94-.92,5.16-1.16l1.41-.27Z"/><path d="M335.47,20.24l-.62.1-1.79.23c-.78.09-1.74.21-2.84.38s-2.36.33-3.74.59c-2.76.46-6,1.13-9.64,2s-7.53,2-11.58,3.36-7.85,2.88-11.25,4.36-6.4,2.95-8.88,4.26c-1.25.63-2.35,1.26-3.33,1.8s-1.81,1-2.49,1.41l-1.56.91-.55.3s2.89-1.92,7.85-4.58c2.47-1.34,5.47-2.81,8.87-4.32s7.2-3,11.25-4.38,8-2.47,11.61-3.35,6.9-1.51,9.68-1.95C332,20.47,335.47,20.24,335.47,20.24Z"/><path d="M163.11,283.69c.08,0,.16.35-.08.94a3.59,3.59,0,0,1-2,1.85,7.94,7.94,0,0,1-4.2.24,17.61,17.61,0,0,1-5.17-1.65,33.14,33.14,0,0,1-10.59-9,49.56,49.56,0,0,1-8.37-14.71,60.89,60.89,0,0,1-3.31-16.54,92.23,92.23,0,0,1,.14-13.67c.66-7.75,2-12.4,2.3-12.34s-.21,4.8-.38,12.44a118.65,118.65,0,0,0,.44,13.37,64.67,64.67,0,0,0,3.37,15.82A51.36,51.36,0,0,0,143,274.53a34,34,0,0,0,9.54,8.84,18,18,0,0,0,4.57,1.86,7.56,7.56,0,0,0,3.57.24,3.51,3.51,0,0,0,1.85-1.12C162.9,284,163,283.67,163.11,283.69Z"/><path d="M150.15,250.75c.15.13,0,.54-.14,1.23s-.09,1.69-.19,3.2a6.12,6.12,0,0,1-.78,2.58,3.81,3.81,0,0,1-1.24,1.3,3.6,3.6,0,0,1-1.94.53,5.54,5.54,0,0,1-3.41-1.44,11.47,11.47,0,0,1-2.25-2.7,18.83,18.83,0,0,1-2.16-6c-.37-1.87-.57-3.5-.77-4.86-.37-2.7-.82-4.32-.48-4.5s1.47,1.31,2.35,4.06,1.46,6.59,3.4,9.9a9.83,9.83,0,0,0,1.67,2.09,3.34,3.34,0,0,0,1.75.94,1.28,1.28,0,0,0,1.2-.56,4.78,4.78,0,0,0,.76-1.68,11,11,0,0,1,1.11-3.26C149.52,250.82,150,250.62,150.15,250.75Z"/><path d="M358.69,283.06c.16-.15.82.49,2.33.67a18.09,18.09,0,0,0,6.51-.83,25,25,0,0,0,8.58-4.65,20.33,20.33,0,0,0,6.81-9.44,59.36,59.36,0,0,0,1.38-6.2c.41-2.09.88-4.1,1.38-6,1-3.78,2.08-7.12,3.05-9.89,2-5.54,3.45-8.86,3.8-8.75s-.47,3.66-2,9.31c-.73,2.83-1.61,6.19-2.46,9.93-.42,1.87-.83,3.84-1.19,5.88a50.8,50.8,0,0,1-1.41,6.54,19.41,19.41,0,0,1-3.28,6.13,24.82,24.82,0,0,1-4.56,4.45,24.47,24.47,0,0,1-9.66,4.54,19,19,0,0,1-4.1.42,10.22,10.22,0,0,1-3.13-.42,4.19,4.19,0,0,1-1.76-1.05C358.71,283.36,358.63,283.12,358.69,283.06Z"/><path d="M364.55,270.06c0-.4.92-.72,2.25-1.32a16.61,16.61,0,0,0,4.61-3,16.8,16.8,0,0,0,3.27-4.39c.69-1.29,1.08-2.2,1.47-2.16s.65,1.08.36,2.77a10.8,10.8,0,0,1-3.24,5.77,10.64,10.64,0,0,1-6,2.83C365.59,270.78,364.56,270.41,364.55,270.06Z"/><path d="M186.36,353.86c.15-.13,2.44,2.21,6.48,6.52s9.84,10.59,17.25,18.1A248.29,248.29,0,0,0,237.73,403,157.87,157.87,0,0,0,256,414.74a55.55,55.55,0,0,0,10.39,4.44,28.83,28.83,0,0,0,11.28,1.18,34.91,34.91,0,0,0,11-3.13,72.61,72.61,0,0,0,9.89-5.6,201.2,201.2,0,0,0,17.43-13c5.33-4.45,10.16-9,14.49-13.37a90.2,90.2,0,0,0,11-13,39.64,39.64,0,0,0,5.8-12.62,30.11,30.11,0,0,0,.76-10.45,26.1,26.1,0,0,0-1.58-6.48,11.15,11.15,0,0,1-.84-2.23,6.24,6.24,0,0,1,1.34,2,22.22,22.22,0,0,1,2.13,6.56,29.56,29.56,0,0,1-.33,10.94,40.21,40.21,0,0,1-5.66,13.33,89.09,89.09,0,0,1-11,13.55A193.95,193.95,0,0,1,300,413.85a73.06,73.06,0,0,1-10.26,5.85,37.39,37.39,0,0,1-11.85,3.37,31.2,31.2,0,0,1-12.32-1.29,58.15,58.15,0,0,1-10.89-4.69A156.49,156.49,0,0,1,236.22,405a229.62,229.62,0,0,1-27.51-25.13c-7.27-7.72-12.84-14.22-16.66-18.74-1.9-2.26-3.36-4-4.32-5.26A8.43,8.43,0,0,1,186.36,353.86Z"/><path d="M-12.2,481.91A8.67,8.67,0,0,1-9.92,481c1.51-.52,3.76-1.26,6.65-2.17,1.46-.42,3-1.05,4.76-1.69L7.13,475l1.54-.57,1.57-.66,3.28-1.38L17,471l1.81-.76,1.82-.85c9.91-4.41,21.34-10.47,33.8-17.6s25.91-15.47,40.21-24a462.75,462.75,0,0,1,41.29-22.32l9.65-4.28a67.9,67.9,0,0,0,8.81-4.15,18.12,18.12,0,0,0,6.27-6,33.14,33.14,0,0,0,3.21-7.61c.79-2.58,1.48-5.1,2.33-7.45a34.62,34.62,0,0,1,3.11-6.37,33.64,33.64,0,0,1,7.48-8.41,30.11,30.11,0,0,1,6-3.77,6.86,6.86,0,0,1,2.32-.84,11.4,11.4,0,0,1-2.06,1.32,38.36,38.36,0,0,0-5.58,4.1,34.23,34.23,0,0,0-6.85,8.39,33.45,33.45,0,0,0-2.78,6.15c-.76,2.28-1.38,4.78-2.13,7.42a34,34,0,0,1-3.25,8.16,19,19,0,0,1-3,3.78,23.61,23.61,0,0,1-3.91,3,67.88,67.88,0,0,1-9.06,4.43L137,407.73c-13,6.16-26.72,13.9-41,22.39s-27.77,16.76-40.36,23.81a345.09,345.09,0,0,1-34.27,17.18l-1.85.82-1.84.72L14.16,474l-3.34,1.3-1.59.62-1.58.52-5.74,1.88c-1.77.57-3.37,1.13-4.87,1.47-2.95.77-5.25,1.34-6.82,1.7A8,8,0,0,1-12.2,481.91Z"/><path d="M377.3,367.54c0,.34-2.63,1.06-7.09,1.26A55.08,55.08,0,0,1,353,366.68a15.17,15.17,0,0,1-4.83-2.21,8.81,8.81,0,0,1-3.09-4.2,13.94,13.94,0,0,1-.73-4.39c0-1.35,0-2.56.07-3.65a47.78,47.78,0,0,0,.07-5.08c0-.6-.07-1.06-.09-1.39s0-.52.12-.55.23.1.41.39a5.91,5.91,0,0,1,.6,1.35,21.3,21.3,0,0,1,.81,5.26c.08,1.1.13,2.28.26,3.51a13.06,13.06,0,0,0,.82,3.65,6.62,6.62,0,0,0,2.31,2.94,13.53,13.53,0,0,0,4,1.76,79.69,79.69,0,0,0,16.52,2.81C374.55,367.17,377.26,367.14,377.3,367.54Z"/><path d="M490.26,516.29s.06-.22.27-.56l.39-.61.49-.87a16.3,16.3,0,0,0,1.75-6.3,40,40,0,0,0-.76-10.44c-.74-4.08-1.62-8.73-2.67-13.85a527,527,0,0,0-22.47-78.4c-2.78-7.42-5.82-14.58-10.4-20.29s-10.75-9.42-17-12.12c-3.12-1.36-6.27-2.53-9.35-3.66s-6.06-2.22-8.95-3.22a128.64,128.64,0,0,0-16.33-4.67,58.93,58.93,0,0,0-24.3-.37c-5.67,1.25-8.55,2.84-8.66,2.59a7.12,7.12,0,0,1,2-1.23,35.09,35.09,0,0,1,6.38-2.39c5.69-1.58,14.47-2.45,24.92-.5a124.52,124.52,0,0,1,16.68,4.43c2.94,1,5.95,2,9,3.11s6.3,2.23,9.54,3.6a58.25,58.25,0,0,1,9.6,5.06,40,40,0,0,1,4.49,3.48,40.83,40.83,0,0,1,4,4.22c4.92,6.09,8.06,13.52,10.87,21a463.35,463.35,0,0,1,21.81,79c.94,5.16,1.68,9.84,2.29,14a38.25,38.25,0,0,1,.3,10.81,15.12,15.12,0,0,1-2.33,6.45c-.23.32-.44.59-.62.83a7.42,7.42,0,0,1-.52.55C490.46,516.19,490.3,516.32,490.26,516.29Z"/><path d="M342.93,518.43c-.18,0,.13-2.3.9-6.34s2-9.86,3.76-17a519.78,519.78,0,0,1,16.85-54.95c3.88-10.53,7.82-20.41,10.26-29.71a79.32,79.32,0,0,0,3-25.15,53.36,53.36,0,0,0-3.55-16.69c-1.51-3.77-2.7-5.71-2.5-5.84s1.62,1.69,3.47,5.42a48.44,48.44,0,0,1,4.5,17,77,77,0,0,1-2.45,25.91c-2.36,9.54-6.27,19.56-10.14,30-7.71,21-13.59,40.37-17.54,54.5-1.93,7.07-3.5,12.79-4.59,16.75S343.12,518.47,342.93,518.43Z"/><path d="M515,409.66c-.35.26-2.33-2.1-6-5.27l-1.46-1.23c-.51-.43-1.09-.81-1.66-1.25-1.12-.88-2.42-1.68-3.75-2.57a55.11,55.11,0,0,0-19.33-7.43c-1.58-.23-3.09-.51-4.51-.6-.71-.06-1.4-.16-2.06-.19l-1.91-.07c-4.88-.12-7.93.31-8-.12s2.89-1.42,8-1.8l2-.11c.69,0,1.41,0,2.16,0a43.32,43.32,0,0,1,4.76.39,47.44,47.44,0,0,1,20.3,7.8,45.48,45.48,0,0,1,3.8,2.91c.56.49,1.13.94,1.62,1.42l1.41,1.42C513.75,406.67,515.21,409.49,515,409.66Z"/><path d="M414.54,501c-.28.06-1.51-5.19-.65-13.71a95.42,95.42,0,0,1,2.77-14.66c1.4-5.43,3.26-11.28,5.11-17.4a142.43,142.43,0,0,0,4.2-17.4,68.3,68.3,0,0,0,.94-14.47c-.42-8.28-2.61-13.11-2.14-13.28.15-.06.85,1.06,1.74,3.28a37.73,37.73,0,0,1,2.32,9.85,61.09,61.09,0,0,1-.38,15,120.49,120.49,0,0,1-4.07,17.81c-1.86,6.17-3.78,12-5.3,17.28a118.57,118.57,0,0,0-3.28,14.24C414.48,495.79,415,501,414.54,501Z"/><path d="M452.55,512c-.42,0,.1-5.9.42-15.35.08-2.37.16-4.95.15-7.73s0-5.74-.06-8.86c-.17-6.24-.54-13.09-1.24-20.26s-1.74-13.95-2.81-20.1c-.58-3.06-1.09-6-1.7-8.7s-1.14-5.24-1.68-7.54c-2.2-9.19-3.86-14.82-3.46-15s2.63,5.32,5.32,14.47c.67,2.29,1.38,4.8,2,7.53s1.31,5.65,2,8.74c1.21,6.19,2.3,13,3,20.29s1,14.19,1,20.5c0,3.15,0,6.15-.19,8.95s-.29,5.4-.49,7.78C454.07,506.22,452.88,512,452.55,512Z"/><path d="M390.6,512.73c0-.09.28-.31.85-.62.29-.17.61-.43,1-.69a11.31,11.31,0,0,0,1.15-1.15c1.61-1.84,2.84-5.34,3.06-9.86.15-2.24,0-4.74-.05-7.48s-.13-5.63-.2-8.7c-.13-6.13-.22-12.86-.28-19.93-.12-14.15-.08-26.95.08-36.22s.46-15,.84-15,.76,5.72,1.09,15,.59,22.07.71,36.21c.06,7.07.08,13.81.07,19.94,0,3.06,0,6-.05,8.7a74.74,74.74,0,0,1-.3,7.67,23.72,23.72,0,0,1-1.48,6.29,11.46,11.46,0,0,1-2.73,4.13,8.88,8.88,0,0,1-1.46,1.09,10.47,10.47,0,0,1-1.22.52C391,512.78,390.62,512.82,390.6,512.73Z"/><path d="M379,525.58c-.18,0-.51-2.14-1-6.06-.1-1-.22-2.08-.34-3.27s-.16-2.5-.24-3.9c-.14-2.8-.38-6-.36-9.53,0-1.77,0-3.62,0-5.54s.1-3.94.15-6c.07-4.16.41-8.59.71-13.25.77-9.31,2-19.51,3.74-30.14,3.57-21.26,8.25-40.18,11.83-53.81,1.79-6.81,3.33-12.3,4.45-16.07s1.83-5.85,2-5.8-.18,2.2-1,6.06-2.06,9.41-3.61,16.27c-3.1,13.73-7.46,32.66-11,53.79-1.74,10.57-3,20.69-3.93,29.92-.36,4.62-.79,9-.95,13.12-.1,2.06-.25,4.05-.3,6s-.09,3.75-.13,5.5c-.15,3.51,0,6.68,0,9.47,0,1.4,0,2.7,0,3.89s.08,2.29.11,3.27C379.2,523.38,379.17,525.56,379,525.58Z"/><ellipse cx="400.8" cy="383.19" rx="1.36" ry="12.51"/><path d="M456.54,387.53c0,.31-3,.74-7.63-.06l-1.83-.34c-.63-.13-1.27-.32-1.95-.49-1.35-.33-2.75-.8-4.23-1.28-2.93-1-6.08-2.27-9.33-3.63s-6.35-2.58-9.19-3.58c-1.43-.44-2.77-.94-4.06-1.24l-1.86-.49-1.74-.35c-4.44-.84-7.3-.69-7.35-1.14,0-.19.68-.4,2-.63l1.1-.17c.4,0,.84,0,1.31-.05a19.81,19.81,0,0,1,3.21.09l1.86.18c.64.1,1.3.23,2,.36,1.38.22,2.8.66,4.32,1.05,3,.9,6.18,2.1,9.45,3.46s6.35,2.67,9.17,3.78c1.41.53,2.74,1.07,4,1.48.63.21,1.24.44,1.83.62l1.71.49C453.7,386.83,456.55,387.09,456.54,387.53Z"/><path d="M450.2,388.16c.12-.13,1.2.58,2.87,2.19a35.44,35.44,0,0,1,5.95,7.83,39.14,39.14,0,0,1,2.84,6.25,12.47,12.47,0,0,1,.7,4,6.57,6.57,0,0,1-.44,2.33,5.17,5.17,0,0,1-1.52,2.08,5.48,5.48,0,0,1-2.4,1.13,7.32,7.32,0,0,1-2.51,0,16.32,16.32,0,0,1-4.48-1.44l-4-2c-1.36-.63-2.72-1.31-4.14-1.92a163.91,163.91,0,0,0-30-10c-7.91-1.83-12.92-2.55-12.87-3s5.13-.29,13.25,1.07a129.09,129.09,0,0,1,30.69,9.44c1.44.63,2.83,1.32,4.21,2l4,2a13.9,13.9,0,0,0,3.7,1.27,3.68,3.68,0,0,0,2.95-.53,3.28,3.28,0,0,0,1.16-2.55,10.06,10.06,0,0,0-.47-3.28,41.63,41.63,0,0,0-2.38-6,47.87,47.87,0,0,0-5-8C450.89,389.27,450.07,388.31,450.2,388.16Z"/><path d="M183.43,352a14.31,14.31,0,0,1,.16,3c.06,2,.1,4.87.5,8.57A55.57,55.57,0,0,0,187,376.78a38.22,38.22,0,0,0,9.42,14.78,33.65,33.65,0,0,0,8.46,5.67c3.22,1.6,6.78,2.95,10.4,4.67a62.94,62.94,0,0,1,10.57,6.52c3.41,2.53,6.73,5.32,10.18,8.06A73.58,73.58,0,0,0,247,424a37.38,37.38,0,0,0,6.23,2.68c1.09.31,2.18.61,3.31.86s2.33.42,3.55.69a18.68,18.68,0,0,1,3.73,1.13,9.73,9.73,0,0,1,3.43,2.45,11.22,11.22,0,0,1,2.06,3.61c.47,1.25.78,2.48,1.14,3.65a102.09,102.09,0,0,0,5.25,14A103.34,103.34,0,0,0,283,466.16c.67,1,1.35,2,2.06,3l.28.4s0,.1.06-.12l.14-.42.37-1c.43-1.15.83-2.31,1.29-3.44a143.59,143.59,0,0,1,28.2-45c5.35-5.84,10.55-11,15-16a102.73,102.73,0,0,0,10.91-14.22,61.4,61.4,0,0,0,5.93-12.12,47.36,47.36,0,0,0,2.16-8.27,15.81,15.81,0,0,1,.56-3,10.31,10.31,0,0,1,0,3,39,39,0,0,1-1.69,8.53,59.47,59.47,0,0,1-5.64,12.58,99.19,99.19,0,0,1-10.76,14.7c-4.38,5.12-9.51,10.4-14.74,16.25A145.84,145.84,0,0,0,302,441a143.4,143.4,0,0,0-12.35,24.59c-.45,1.11-.84,2.24-1.26,3.37l-.33.93-.51,1.51c-.35,1-.69,2-1,3l-.26.76a1.25,1.25,0,0,1-.06.18l-.14-.19-.27-.36-1.08-1.48-1.09-1.48-.53-.72-.27-.39c-.73-1-1.42-2.06-2.12-3.11a104.9,104.9,0,0,1-7.43-13.42,103.17,103.17,0,0,1-5.38-14.36c-.71-2.42-1.28-4.73-2.62-6.25s-3.44-2.27-5.7-2.75c-1.14-.24-2.31-.44-3.52-.69s-2.41-.61-3.59-.94a40.07,40.07,0,0,1-6.65-2.91,75.4,75.4,0,0,1-11.36-7.88c-3.47-2.8-6.75-5.6-10.06-8.1a61.58,61.58,0,0,0-10.12-6.41c-3.48-1.71-7-3.12-10.35-4.82a35.39,35.39,0,0,1-8.85-6.16,39.39,39.39,0,0,1-9.53-15.67A53.77,53.77,0,0,1,183,363.72a69.7,69.7,0,0,1,0-8.68A11.46,11.46,0,0,1,183.43,352Z"/><path d="M283.54,504c-.76-.1-.6-6-.41-13.18s.38-13.08,1.14-13.13,1.79,5.85,1.58,13.21S284.27,504.08,283.54,504Z"/></svg>