<svg id="Layer_1" data-name="Layer 1" xmlns="http://www.w3.org/2000/svg" viewBox="0 0 500 500"><defs><style>.cls-1{fill:#0e0e0e;}.cls-2{fill:#52d1e2;}.cls-3{fill:#0f1111;}.cls-4{fill:#070707;}.cls-5{fill:#57d2e3;}.cls-6{fill:#42a7af;}.cls-7{fill:#e8e38e;}.cls-8{fill:#c8c381;}</style></defs><title>player7</title><path class="cls-1" d="M387.44,707.77c-.39.18-2.47-3.54-5.91-10.44l-2.84-5.76c-1-2.13-1.95-4.49-3-7-2.1-5.06-4.68-10.76-6.94-17.28Q367,662.42,365,657.1c-.67-1.76-1.19-3.61-1.79-5.48s-1.18-3.77-1.78-5.71S360.23,642,359.6,640c-.3-1-.63-2-.92-3s-.54-2.07-.82-3.12q-1.64-6.27-3.38-12.91a469.76,469.76,0,0,1-10.08-58.57,469.1,469.1,0,0,1-1.94-59.4q.38-6.84.71-13.33c.06-1.08.12-2.15.17-3.21s.2-2.12.3-3.16q.3-3.13.6-6.17t.59-5.95c.22-1.95.35-3.87.65-5.73q.82-5.6,1.57-10.73c.89-6.84,2.27-12.94,3.32-18.32.55-2.68,1-5.18,1.56-7.47s1.13-4.34,1.61-6.21c2-7.45,3.28-11.52,3.69-11.42s-.09,4.35-1.35,11.91c-.33,1.89-.69,4-1.08,6.28s-.67,4.82-1.06,7.51c-.72,5.39-1.79,11.49-2.39,18.3q-.56,5.1-1.17,10.67c-.24,1.84-.31,3.75-.46,5.68s-.27,3.9-.42,5.91-.29,4-.44,6.1c-.07,1-.16,2.08-.21,3.13s-.07,2.12-.1,3.19q-.21,6.4-.44,13.18a533.74,533.74,0,0,0,2.39,58.62,534.48,534.48,0,0,0,9.48,57.9q1.59,6.58,3.09,12.82c.25,1,.5,2.07.74,3.1s.56,2,.84,3c.56,2,1.12,4,1.66,5.89s1.08,3.84,1.6,5.7,1,3.72,1.6,5.48q1.73,5.33,3.29,10.21c2,6.55,4.25,12.3,6,17.44.92,2.56,1.73,5,2.55,7.14s1.63,4.15,2.32,5.94C386.47,703.53,387.82,707.59,387.44,707.77Z"/><ellipse class="cls-2" cx="198.23" cy="231.84" rx="10.08" ry="9.54"/><ellipse class="cls-3" cx="198.48" cy="231.96" rx="3.09" ry="2.59"/><path class="cls-4" d="M226.59,232.75c.32.27.11,1.16-.69,2.5a21.6,21.6,0,0,1-4.3,4.93,31.82,31.82,0,0,1-8.33,5.15A33.5,33.5,0,0,1,201.46,248a52.39,52.39,0,0,1-11.71-1c-.87-.16-1.7-.33-2.51-.51l-1.19-.25-1.22-.3a17.39,17.39,0,0,1-4.55-1.82,11.8,11.8,0,0,1-3.07-2.73,14.78,14.78,0,0,1-1.55-2.41c-.69-1.37-.86-2.25-.54-2.52s1.15.12,2.35,1a19.76,19.76,0,0,0,4.73,2.81,17.69,17.69,0,0,0,3.58.71l4.76.45a77.05,77.05,0,0,0,10.66.48,40.68,40.68,0,0,0,17.9-5.24C223.41,234.25,225.9,232.16,226.59,232.75Z"/><path class="cls-4" d="M226.26,231.44c-.82.37-2.56-2.35-6.79-4.37a23.1,23.1,0,0,0-7.87-2.1,44.59,44.59,0,0,0-5-.22c-1.79,0-3.65.08-5.51.25-7.47.6-13.95,2.95-18.87,4.65s-8.14,2.56-8.52,1.79,2.12-2.93,6.68-5.72a53.49,53.49,0,0,1,8.56-4.18,43.15,43.15,0,0,1,11.62-2.64,51,51,0,0,1,6.14-.15,36.38,36.38,0,0,1,5.8.64,21.84,21.84,0,0,1,9.33,4,13.51,13.51,0,0,1,4.3,5.37C226.7,230.32,226.62,231.27,226.26,231.44Z"/><path class="cls-4" d="M292.1,310.79c-.43-.06-.75-.46-1.14-.91a10.9,10.9,0,0,0-1.48-1.5,6.65,6.65,0,0,0-2.27-1.19,7.69,7.69,0,0,0-3.11-.09,14,14,0,0,0-3.55,1.12c-1.15.51-2.24,1.11-3.22,1.61-2,1-3.51,1.53-4.1.91s-.19-2.13,1.23-4.16a14.45,14.45,0,0,1,3.15-3.19,12.69,12.69,0,0,1,5.53-2.34,10.13,10.13,0,0,1,6.47,1,8.06,8.06,0,0,1,3.58,4.07,5.11,5.11,0,0,1,.15,3.59C293,310.56,292.5,310.86,292.1,310.79Z"/><path class="cls-4" d="M291.36,311.08c-.11,1.68-2.67,2.88-5.72,2.67s-5.41-1.74-5.3-3.43,2.68-2.89,5.72-2.68S291.48,309.39,291.36,311.08Z"/><path class="cls-4" d="M241.68,309.16c-.4.09-.9-.18-1.31-.94a5.4,5.4,0,0,1-.36-3.54,7.64,7.64,0,0,1,3.15-4.66,8.71,8.71,0,0,1,7-1.19,8.41,8.41,0,0,1,3.39,1.74,8.77,8.77,0,0,1,2.11,2.62,10.19,10.19,0,0,1,1.18,4.83c0,2.67-.88,4.12-1.69,4.15s-1.61-1.39-2.55-3.25a13.11,13.11,0,0,0-1.7-2.7,4.36,4.36,0,0,0-2.24-1.45,4.71,4.71,0,0,0-2.62.12,5,5,0,0,0-2,1.41C242.91,307.53,242.52,309,241.68,309.16Z"/><path class="cls-4" d="M258.15,313a1.35,1.35,0,0,1,.26,1.43,4.76,4.76,0,0,1-1.52,2.25,10.39,10.39,0,0,1-8.2,2.18,13.75,13.75,0,0,1-7.11-3.2c-1.45-1.29-2.06-2.47-1.69-3.23s1.72-.93,3.51-.7,4,.77,6.11,1.06a23.66,23.66,0,0,0,5.36.06C256.3,312.75,257.48,312.47,258.15,313Z"/><path class="cls-4" d="M233.05,281.07c.74.44.76,1.88.46,3.85s-.88,4.5-1.48,7.29-1.09,5.34-1.62,7.27-1.14,3.23-2,3.32-1.77-1.11-2.35-3.28a20.26,20.26,0,0,1,3.5-16.41C231,281.37,232.33,280.65,233.05,281.07Z"/><path class="cls-4" d="M206.68,334.68c-1.53-.66,1.49-11.23,7.71-23.16S227.55,291,229,291.94s-3.07,10.69-9.14,22.4S208.26,335.35,206.68,334.68Z"/><path class="cls-4" d="M272.08,348.07c-.65.7-3.55-1.55-8.82-2.8a30,30,0,0,0-9.34-.69,33.19,33.19,0,0,0-11,2.84c-7.48,3.46-13.12,9-17,13.1s-6.4,6.92-7.15,6.45.46-4,3.74-9.13a47.33,47.33,0,0,1,6.84-8.32,40.5,40.5,0,0,1,11.07-7.67,32.48,32.48,0,0,1,13.4-2.92,27.28,27.28,0,0,1,11,2.25,17.92,17.92,0,0,1,6.13,4.31C272,346.83,272.35,347.79,272.08,348.07Z"/><path class="cls-4" d="M319.66,363.13c-.7.55-3.21-1.63-7.15-4.94s-9.41-7.69-16.27-10.55a37.86,37.86,0,0,0-10-2.58,34.41,34.41,0,0,0-8.49.09c-4.84.65-7.79,2.07-8.31,1.3-.22-.34.22-1.15,1.41-2.22A17.74,17.74,0,0,1,276.7,341a27.57,27.57,0,0,1,9.89-1.52,33.7,33.7,0,0,1,12,2.55,41,41,0,0,1,10.3,6.28,44.87,44.87,0,0,1,6.74,6.92C319,359.5,320.3,362.64,319.66,363.13Z"/><path class="cls-4" d="M323.2,372.92c-.33.34-1.58-.61-4.05-1.38a17.7,17.7,0,0,0-4.55-.76,20.93,20.93,0,0,0-6,.73,26.94,26.94,0,0,0-6.82,3,76.78,76.78,0,0,0-7.39,5.13c-2.6,2-5.39,4.14-8.61,6.14a33.4,33.4,0,0,1-11.19,4.61,24.69,24.69,0,0,1-6.4.33,27.82,27.82,0,0,1-6-1.17,47.47,47.47,0,0,1-10-4.54c-2.93-1.7-5.58-3.49-8-5s-4.68-2.92-6.79-4a34.91,34.91,0,0,0-10.5-3.72c-2.62-.44-4.19-.45-4.27-.9s1.39-1.19,4.35-1.49A27.25,27.25,0,0,1,239.21,372a65.69,65.69,0,0,1,7.6,3.58c2.64,1.43,5.29,3,8.12,4.47a47.66,47.66,0,0,0,8.93,3.72,20.74,20.74,0,0,0,9.55.58,29.55,29.55,0,0,0,9.23-3.74c2.92-1.71,5.66-3.69,8.41-5.57a66,66,0,0,1,8.29-5,28.65,28.65,0,0,1,8.35-2.77,21.44,21.44,0,0,1,7.33.12,15.74,15.74,0,0,1,5.16,2C322.77,371.05,323.47,372.69,323.2,372.92Z"/><path class="cls-4" d="M317,369.62c-.34.3-1.48-.55-3.58-1.77a36.13,36.13,0,0,0-9.3-3.87,56.19,56.19,0,0,0-15-1.49c-5.81.09-12.32.48-19.05,1.07-27,2.33-48.38,8.76-48.94,7.06-.26-.76,4.77-3.4,13.45-6.21a167.49,167.49,0,0,1,54.62-7.56,49.11,49.11,0,0,1,16.25,3A26.18,26.18,0,0,1,315,366C316.78,368,317.33,369.37,317,369.62Z"/><path class="cls-5" d="M191.89,228.67c.86-1.46,2.06-2.34,2.67-2s.42,1.84-.44,3.3-2.06,2.34-2.67,2S191,230.13,191.89,228.67Z"/><path class="cls-5" d="M188.76,232.07a2.84,2.84,0,1,1,5.63.12,2.82,2.82,0,1,1-5.63-.12Z"/><path class="cls-5" d="M206,227.23c.87,1.45,1.05,2.94.4,3.33a.79.79,0,0,1-.59.07l-.17,0-.59-.93a4.86,4.86,0,0,0-.47-.6c-.26-.27-.41-.29-.43-.29s0,0,0,0h0l-.3.07a1.07,1.07,0,0,1-1.19-.28,2,2,0,0,1-.18-1.63c.1-.5.44-.95.41-1.12a.82.82,0,0,1,.34-.48C203.89,224.92,205.13,225.78,206,227.23Z"/><path class="cls-5" d="M206.38,230.93c.64,1.56.41,3.14-.52,3.52s-2.21-.59-2.84-2.15-.41-3.15.52-3.53S205.75,229.36,206.38,230.93Z"/><path class="cls-6" d="M202.66,225.21a2.81,2.81,0,0,1-.42,3.9,2.06,2.06,0,0,1-.93.31c-.38.06-.49-.13-.72-.31-.47-.34-1.15-.56-1.8-1a2.15,2.15,0,0,1-1.08-2.22,5.9,5.9,0,0,1,.56-1.22,2.07,2.07,0,0,1,.67-.71C200.08,223.22,201.75,223.78,202.66,225.21Z"/><path class="cls-6" d="M189,230.32c.41-1.65,1.71-2.74,2.92-2.44s1.86,1.87,1.46,3.51-1.71,2.73-2.92,2.44S188.63,232,189,230.32Z"/><path class="cls-6" d="M194.77,237.55c-.74-.43-1.36-.88-1.83-1.18a5.21,5.21,0,0,1-.77-.5,5.7,5.7,0,0,1,.92,0c.56,0,1.33,0,2.17,0a4.72,4.72,0,0,1,2.12.54,1.12,1.12,0,0,1,.66,1.19,1.14,1.14,0,0,1-1.21.63A4.76,4.76,0,0,1,194.77,237.55Z"/><path class="cls-6" d="M204.79,235.7c-1,1.34-2.17,2.2-2.51,1.93s.22-1.57,1.27-2.9,2.16-2.19,2.51-1.92S205.83,234.37,204.79,235.7Z"/><ellipse class="cls-2" cx="329.92" cy="227.25" rx="10.08" ry="9.54" transform="translate(-5.61 8.37) rotate(-1.44)"/><ellipse class="cls-3" cx="329.68" cy="227.38" rx="3.09" ry="2.59" transform="translate(-5.62 8.37) rotate(-1.44)"/><path class="cls-4" d="M301.59,228.88c.68-.61,3.22,1.41,7.59,3.7a40.75,40.75,0,0,0,18,4.78,77.39,77.39,0,0,0,10.64-.74l4.75-.57a17.46,17.46,0,0,0,3.55-.81,19.46,19.46,0,0,0,4.67-2.93c1.18-.87,2-1.28,2.32-1s.18,1.15-.48,2.54a14.17,14.17,0,0,1-1.49,2.44,11.9,11.9,0,0,1-3,2.81,17.25,17.25,0,0,1-4.49,1.93l-1.22.33-1.18.29c-.81.19-1.64.38-2.5.56a52.27,52.27,0,0,1-11.68,1.3,33.53,33.53,0,0,1-11.87-2.37,32.21,32.21,0,0,1-8.46-4.94,21.45,21.45,0,0,1-4.42-4.82C301.52,230,301.29,229.15,301.59,228.88Z"/><path class="cls-4" d="M301.9,227.55c-.38-.15-.48-1.1.08-2.65a13.52,13.52,0,0,1,4.17-5.47,21.9,21.9,0,0,1,9.23-4.27,35.93,35.93,0,0,1,5.78-.78,48.32,48.32,0,0,1,6.14,0A43.12,43.12,0,0,1,339,216.72a53.18,53.18,0,0,1,8.66,4c4.63,2.67,7.17,4.79,6.83,5.54s-3.63,0-8.57-1.58-11.5-3.76-19-4.16c-1.86-.13-3.73-.14-5.52-.12a45.82,45.82,0,0,0-5,.35,23.19,23.19,0,0,0-7.81,2.3C304.4,225.14,302.72,227.91,301.9,227.55Z"/><path class="cls-5" d="M336.19,223.92c.89,1.44,1.13,2.91.52,3.29s-1.83-.48-2.73-1.91-1.13-2.91-.52-3.29S335.29,222.49,336.19,223.92Z"/><path class="cls-5" d="M339.39,227.24a2.81,2.81,0,1,1-5.62.27,2.84,2.84,0,1,1,5.62-.27Z"/><path class="cls-5" d="M322,222.84c.84-1.48,2-2.36,2.71-2a.77.77,0,0,1,.35.48c0,.16.33.61.44,1.1a1.93,1.93,0,0,1-.14,1.63,1.06,1.06,0,0,1-1.18.31l-.3-.06h0s-.17,0-.42.31a3.38,3.38,0,0,0-.46.61l-.57.94-.17,0a.76.76,0,0,1-.58,0C321.06,225.8,321.21,224.31,322,222.84Z"/><path class="cls-5" d="M321.75,226.54c.6-1.58,1.84-2.57,2.78-2.22s1.22,1.93.62,3.51-1.84,2.58-2.78,2.22S321.15,228.12,321.75,226.54Z"/><path class="cls-6" d="M325.33,220.73a2.8,2.8,0,0,1,3.68-1.35,2,2,0,0,1,.7.7,5.61,5.61,0,0,1,.58,1.2,2.14,2.14,0,0,1-1,2.25c-.64.46-1.31.7-1.78,1.06-.22.17-.33.37-.71.32a2,2,0,0,1-.94-.29C324.68,223.92,324.45,222.18,325.33,220.73Z"/><path class="cls-6" d="M339.08,225.5c.44,1.63-.17,3.22-1.37,3.54s-2.54-.73-3-2.36.17-3.22,1.37-3.55S338.64,223.86,339.08,225.5Z"/><path class="cls-6" d="M333.53,232.87a4.7,4.7,0,0,1-2,.78.95.95,0,1,1-.6-1.8,4.7,4.7,0,0,1,2.1-.6c.85-.07,1.62-.07,2.17-.09a5.37,5.37,0,0,1,.92,0,5.89,5.89,0,0,1-.75.52C334.86,232,334.25,232.43,333.53,232.87Z"/><path class="cls-6" d="M323.46,231.28c-1.07-1.31-1.67-2.59-1.34-2.87s1.48.56,2.56,1.87,1.68,2.59,1.34,2.86S324.54,232.59,323.46,231.28Z"/><path class="cls-4" d="M287.64,206.61c.13.89-2.3,1.77-4.72,4.47a17,17,0,0,0-3.22,5.27,20,20,0,0,0-1.14,7.52c.16,5.61,2.13,10.77,3.44,14.66s2,6.53,1.26,6.94-2.69-1.43-5.13-5a36.33,36.33,0,0,1-3.63-6.81,28.42,28.42,0,0,1-2.06-9.63,20.8,20.8,0,0,1,2.12-10,16.51,16.51,0,0,1,5.63-6.29,10.87,10.87,0,0,1,5.32-1.83C286.85,205.86,287.58,206.21,287.64,206.61Z"/><path class="cls-4" d="M240.54,210.62c.4-.68,2.9-.27,6,2.16a20.59,20.59,0,0,1,4.64,5.15,22.63,22.63,0,0,1,3.16,16.61A20.68,20.68,0,0,1,252,241c-2,3.42-4.21,4.72-4.83,4.22s.09-2.64.82-5.86a27.85,27.85,0,0,0-4.5-23.62C241.6,213.05,240.08,211.38,240.54,210.62Z"/><path class="cls-4" d="M233.61,444.67c.09-.19,1.29.12,3.46.87,1.09.36,2.47.73,4.06,1.25.81.23,1.69.44,2.61.69l1.44.38,1.55.33a92.42,92.42,0,0,0,36.3.53,111.93,111.93,0,0,0,24.09-7.19,159.81,159.81,0,0,0,25.52-13.74c4.29-2.8,8.59-5.85,12.88-9.1s8.63-6.68,12.8-10.31a90.56,90.56,0,0,0,11.61-12,61.66,61.66,0,0,0,8.49-14.61,123.62,123.62,0,0,0,5.38-16.46c.73-2.79,1.42-5.59,2.06-8.38s1.34-5.54,1.93-8.29c2.47-11,4.55-21.65,6.27-31.85,3.48-20.41,5.61-38.95,6.92-54.57s1.91-28.31,2.3-37.08c.23-4.39.35-7.8.53-10.12s.36-3.53.58-3.54.43,1.21.65,3.53.49,5.73.63,10.14c.34,8.81.43,21.59-.36,37.36a530,530,0,0,1-5.68,55.18c-1.58,10.33-3.56,21.13-6,32.24-.57,2.79-1.26,5.57-1.89,8.39s-1.32,5.66-2.06,8.53a126.71,126.71,0,0,1-5.63,17.3,67.17,67.17,0,0,1-9.35,16,95,95,0,0,1-12.47,12.71c-4.38,3.77-8.81,7.18-13.22,10.47s-8.88,6.34-13.33,9.16A158.15,158.15,0,0,1,309,446.24,111.4,111.4,0,0,1,283.71,453a93.5,93.5,0,0,1-21.6.6,76.28,76.28,0,0,1-16-3.1l-1.56-.48-1.44-.53c-.93-.35-1.8-.65-2.59-1-1.57-.71-2.9-1.28-3.93-1.84C234.54,445.54,233.52,444.86,233.61,444.67Z"/><path class="cls-4" d="M243.76,448.32c-.31.77-11.79-2.8-30.18-9.36-2.3-.86-4.72-1.81-7.21-2.94-1.24-.57-2.51-1.17-3.75-1.87l-1.9-1-1-.53-.93-.59a75.66,75.66,0,0,1-14.71-11.8c-9.31-9.52-17.16-22.1-22.62-36.25a171,171,0,0,1-6.55-21c-1.71-6.86-3.1-13.5-4.42-19.79-2.61-12.58-5.18-23.74-8.17-32.86a187.83,187.83,0,0,0-8.46-21.15c-2.29-4.9-3.61-7.62-3.23-7.86S133,283.34,136,288a121,121,0,0,1,10.44,20.84c1.79,4.6,3.49,9.73,5.07,15.29s3.06,11.53,4.54,17.8,3,12.83,4.73,19.53a181.35,181.35,0,0,0,6.43,20.29c5.23,13.53,12.52,25.47,21,34.57a74.44,74.44,0,0,0,13.36,11.43l.84.58.88.52,1.73,1c1.12.71,2.28,1.32,3.43,1.91,2.29,1.18,4.57,2.21,6.77,3.18C233.08,442.49,244.09,447.52,243.76,448.32Z"/><path class="cls-4" d="M307.46,421.35c-.74.58-3.84-2.82-9.81-6.59a54.69,54.69,0,0,0-5-2.78,51.86,51.86,0,0,0-6.05-2.44,43.42,43.42,0,0,0-29,.4,50,50,0,0,0-6,2.61,53.56,53.56,0,0,0-4.93,2.92c-5.87,3.93-8.87,7.42-9.63,6.86-.33-.24,0-1.42,1.08-3.29a31.28,31.28,0,0,1,5.87-7,42.22,42.22,0,0,1,5-3.89,45.22,45.22,0,0,1,6.47-3.48,43.15,43.15,0,0,1,39.63,2.84,40.71,40.71,0,0,1,5.14,3.75,31,31,0,0,1,6.06,6.82C307.42,419.93,307.79,421.1,307.46,421.35Z"/><path d="M285.42,197.61a17.26,17.26,0,0,1,6.63-9.7A30.09,30.09,0,0,1,302.92,183c10.3-2.59,21.14-1.71,31.68-.33a29.89,29.89,0,0,0,5.5.4c1.51-.08,3-.39,4.49-.57a54.16,54.16,0,0,1,9.53,0,18.7,18.7,0,0,1,6.4,1.12c2,.86,3.62,2.38,5.65,3.11,1.18.42,2.45.56,3.65.93,3.28,1,5.75,3.67,8.06,6.21,1.67,1.85,3.46,4.34,2.45,6.61a26.26,26.26,0,0,0-13-3.63,44.08,44.08,0,0,1-4.88-.07,32.9,32.9,0,0,1-5.33-1.39c-7.19-2.16-14.79-2.54-22.29-2.91-17-.82-34.79-1.52-50.39,5.37"/><path d="M151.93,191.86a15.79,15.79,0,0,1,3.92-2.12l7-3c5-2.12,10.06-4.27,15.44-5,6.31-.83,12.7.37,18.95,1.57L211.06,186a51.42,51.42,0,0,1,6.13,1.43c4.87,1.55,9.16,4.49,13.37,7.38a9.12,9.12,0,0,1,2.57,2.29,3.12,3.12,0,0,1,.31,3.26c-14-.57-28.23-3.79-42.22-4.36-5.62-.23-11,2.17-16.62,2.11q-6.87-.09-13.75.17a52.71,52.71,0,0,0-6.15.48c-1.35.21-3.65,1.34-4.92.59C146.9,197.64,150.36,193.13,151.93,191.86Z"/><path class="cls-4" d="M293.75,314.35c.13-.86,1.39-1.39,2.74-2.36a10.56,10.56,0,0,0,3.72-4.29c.79-1.75.73-4.21.74-6.21s.25-3.52,1.07-3.79,2,.64,3.11,2.64a12.12,12.12,0,0,1,1.38,4,10.38,10.38,0,0,1-.66,5.76,10.22,10.22,0,0,1-3.78,4.53,9.32,9.32,0,0,1-4.38,1.53,5.6,5.6,0,0,1-3.05-.55C294,315.21,293.7,314.76,293.75,314.35Z"/><path class="cls-4" d="M234.82,314.38c-.48.68-1.58.88-2.95.38a9.07,9.07,0,0,1-5.4-8.78c.17-1.46.84-2.34,1.66-2.47a3.18,3.18,0,0,1,2.51,1.28A18.84,18.84,0,0,1,233,308a19.18,19.18,0,0,1,1.79,3.57A3.13,3.13,0,0,1,234.82,314.38Z"/><path class="cls-4" d="M325.56,339.15c-1.77.3-5.21-13.91-13.08-29.81S295.66,281.91,297,280.7c.6-.54,3.71,1.67,7.82,6.18,1,1.12,2.12,2.39,3.21,3.81s2.22,3,3.38,4.61A97.94,97.94,0,0,1,318,306.65a95.89,95.89,0,0,1,4.91,12.16c.6,1.93,1.16,3.76,1.56,5.51s.78,3.37,1,4.87C326.53,335.2,326.36,339,325.56,339.15Z"/><path class="cls-7" d="M144.45,358.63s18.71,91.68,25.39,165.86-12.69,157-18,167.75-83.54,4-83.54,4l20-80.87s13.37-8.69-10,6S29.5,692.9,29.5,692.9l-62.15-5.34S48.21,549.22,44.87,443,98.34,271.2,98.34,271.2s-32.08-15.37-20-66.83,23.39-78.19,23.39-78.19.67-52.8,50.12-76.86,104.83-66.16,172.38-27.4-61.44,52.8-61.44,52.8-77.52,24-104.26,67.5S135.44,310.34,144.45,358.63Z"/><path class="cls-4" d="M419.82,260.32c.82-.08,1.93,2.49,2.77,6.89a40.65,40.65,0,0,1,.68,8,29.59,29.59,0,0,1-1.84,10,24.25,24.25,0,0,1-2.51,4.86,21,21,0,0,1-3.39,3.86,20.54,20.54,0,0,1-7.35,4.27,14.54,14.54,0,0,1-5.58.77c-1.33-.12-2.05-.5-2.09-.9-.08-.9,2.52-1.69,5.87-3.81a24.93,24.93,0,0,0,5.18-4.35,21.31,21.31,0,0,0,4.15-6.89c2.06-5.46,2.23-11.3,2.56-15.55S419,260.41,419.82,260.32Z"/><path class="cls-7" d="M303.65,55.57a51.66,51.66,0,0,1,69.09-4c22,17.65,49.43,40,66.43,55.24,23.52,21.07,27.64,58.3,28.17,76.67a51,51,0,0,1-5,23.85c-2.11,4.31-4.77,8.4-7.76,10-7.36,3.81,4,84.09-.67,116.46s-10,73.71-23.39,105.5,28.07,23.77-10.7,71.22S332.48,594.66,335,612c1.69,11.49-22.72,47.51-39.47,70.6A51.69,51.69,0,0,1,255.89,704c-23.25,1-54.86,2.3-56.32,2.3-2.32,0,37.79-34.75,50.48-81.53s13.62-62.16,56.26-108.27,24.63-77.62,47-77.24c16.47.28,31-40,37.45-61.31a52,52,0,0,1,14-22.6l0,0A51.67,51.67,0,0,0,420,307.42c-9.76-48.08-27.35-140-16.63-129.12,14.45,14.71-65.85-119-104.23-103.58C280.14,82.32,289.42,70,303.65,55.57Z"/><path class="cls-8" d="M114,253.1c0-.1.1-.28.37-.51a14.32,14.32,0,0,0,1.13-1,9.58,9.58,0,0,0,2.33-5,32.54,32.54,0,0,0,0-9.27l-.48-6.11q-.15-3.26-.31-6.86a188.22,188.22,0,0,1,2-33.87c.2-1.59.51-3.18.82-4.8s.59-3.26,1-4.9l1.19-5c.37-1.68.93-3.33,1.4-5,.24-.84.49-1.69.74-2.54s.57-1.68.85-2.52c.6-1.68,1.15-3.4,1.81-5.09l2.09-5.08c.7-1.7,1.58-3.35,2.37-5,.41-.84.79-1.69,1.23-2.51l1.36-2.42c.92-1.6,1.74-3.25,2.77-4.76l3-4.55,3.19-4.29a111.63,111.63,0,0,1,13.83-14.84A151.92,151.92,0,0,1,171,105.86c4.68-3.24,9.17-6,13.32-8.47,8.32-4.83,15.26-8.29,20.11-10.58s7.64-3.32,7.84-3-2.2,2.13-6.68,5-11.07,6.94-19,12.17c-3.93,2.64-8.2,5.58-12.63,8.91a165.63,165.63,0,0,0-13.46,11.33,109.74,109.74,0,0,0-23.68,31.93c-.75,1.61-1.58,3.17-2.25,4.79s-1.35,3.23-2,4.82-1.18,3.25-1.77,4.85c-.28.81-.59,1.6-.84,2.41s-.49,1.62-.74,2.42c-.46,1.62-1,3.19-1.4,4.8l-1.22,4.76c-.4,1.57-.68,3.15-1,4.7s-.67,3.09-.9,4.62a223.92,223.92,0,0,0-3.27,32.94c0,2.37-.09,4.62-.13,6.75s0,4.15,0,6a30.89,30.89,0,0,1-1.16,10.07,12,12,0,0,1-1.77,3.43,7.46,7.46,0,0,1-2.12,1.92,4.54,4.54,0,0,1-1.62.6Q114,253.25,114,253.1Z"/><path class="cls-8" d="M-7.81,663.5c-.36-.22,1.93-4.65,6.38-12.48s11.07-19,19.35-32.83S36.16,588,47.29,569.9L55.85,556c2.91-4.75,5.93-9.57,8.88-14.49,5.87-9.83,11.5-20.24,14.68-31.66s4-23.23,3.82-34.6-1.4-22.41-2.55-33-2.23-20.68-2.6-30.25a147.75,147.75,0,0,1,1.09-26.66A98.94,98.94,0,0,1,84.62,364a72.74,72.74,0,0,1,7.69-14.8c5.21-7.58,9.44-10.55,9.62-10.33.41.38-3.19,3.91-7.6,11.6a80.21,80.21,0,0,0-6.48,14.69,102.43,102.43,0,0,0-4.38,20.79,151.84,151.84,0,0,0-.32,25.86c.59,9.34,1.83,19.31,3.14,29.86s2.65,21.75,2.94,33.51-.51,24.13-3.92,36.37a102.34,102.34,0,0,1-6.75,17.44c-2.67,5.5-5.66,10.68-8.69,15.67s-6.09,9.78-9.06,14.48l-8.73,13.8c-11.4,18-21.73,34.09-30.48,47.59S5.67,644.85.6,652.28-7.45,663.73-7.81,663.5Z"/><path class="cls-8" d="M95.39,678.83c-.12-.17.59-1,2.06-2.42.72-.72,1.68-1.53,2.72-2.58l3.62-3.61A121.57,121.57,0,0,0,123,644.29a111.44,111.44,0,0,0,8.76-20.38,110.43,110.43,0,0,0,4.9-24.86c.09-2.23.26-4.47.29-6.76,0-1.15,0-2.3,0-3.45s-.09-2.33-.13-3.5c-.06-2.34-.32-4.7-.5-7.09s-.52-4.79-.92-7.21a275,275,0,0,0-6.45-29.84c-2.66-10.19-5.53-20.14-7.85-29.92s-4.26-19.28-5.75-28.39a386.15,386.15,0,0,1-4.84-48.75,319.61,319.61,0,0,1,.5-33c.26-3.88.61-6.89.9-8.92s.54-3.09.76-3.08.36,1.09.47,3.14.15,5.05.26,8.92c.17,7.74.43,18.93,1.44,32.69a465.86,465.86,0,0,0,6.07,48c1.63,9,3.62,18.31,6,27.92s5.26,19.51,8,29.8a260.31,260.31,0,0,1,6.46,30.53c.39,2.51.61,5,.89,7.51s.4,5,.44,7.42c0,1.23.11,2.44.08,3.66s0,2.43,0,3.63c-.06,2.41-.28,4.79-.41,7.13a111.15,111.15,0,0,1-5.71,26,109.76,109.76,0,0,1-9.82,20.92A105.06,105.06,0,0,1,105.42,672l-4.06,3.26c-1.19.93-2.29,1.6-3.14,2.17C96.48,678.5,95.52,679,95.39,678.83Z"/><path class="cls-8" d="M30.1,620.55c-.19-.39,3.36-2.49,9.83-6.07,3.22-1.79,7.17-4,11.67-6.63a169.75,169.75,0,0,0,14.71-9.7,98.66,98.66,0,0,0,15.56-14.23,67.3,67.3,0,0,0,12.35-20.27c2.93-7.81,4.17-16.67,4.32-26s-.68-19.06-1.27-29.19a513.42,513.42,0,0,1,4.27-103.66c1.94-13.15,4-23.7,5.72-30.92s2.93-11.16,3.33-11.08c.94.19-2,16.3-4.75,42.53a631.36,631.36,0,0,0-2.46,102.76c.58,10,1.43,20,1.16,29.69s-1.67,19.31-5.05,27.85A70.43,70.43,0,0,1,85.65,587.3a97.19,97.19,0,0,1-16.82,14.38,147.67,147.67,0,0,1-15.58,9.17c-4.72,2.41-8.86,4.3-12.27,5.77C34.16,619.55,30.28,620.92,30.1,620.55Z"/><path class="cls-8" d="M65,513.83c-.15-.15.49-1.16,1.84-2.94.67-.89,1.52-2,2.54-3.25l1.66-2,.92-1.11c.29-.4.6-.82.92-1.24a277.94,277.94,0,0,0,20-29.49,244.52,244.52,0,0,0,21.31-48.07c.38-1.17.81-2.34,1.15-3.55l1-3.64c.66-2.45,1.38-4.91,2-7.42l1.73-7.65c.28-1.3.62-2.58.85-3.9s.46-2.63.69-4a221.56,221.56,0,0,0,3.54-33.09c.82-22.82-2.17-44.56-6.44-64-2.17-9.7-4.62-18.84-7.1-27.36s-5-16.37-7.49-23.53c-4.83-14.32-9.06-25.84-11.82-33.86s-4.15-12.52-3.75-12.68,2.51,4.05,6,11.8,8.29,19.06,13.68,33.28c2.72,7.11,5.47,15,8.27,23.5s5.38,17.76,7.74,27.59c4.65,19.65,7.9,41.93,7.07,65.41a218.49,218.49,0,0,1-3.77,34c-.25,1.36-.49,2.71-.74,4.06s-.61,2.66-.9,4q-.94,4-1.86,7.84c-.7,2.56-1.47,5.07-2.19,7.57-.36,1.25-.73,2.49-1.09,3.72s-.83,2.42-1.23,3.62a228.52,228.52,0,0,1-23,48.56,207.77,207.77,0,0,1-21.87,28.78l-1,1.16-1,1c-.68.66-1.3,1.29-1.89,1.86q-1.75,1.74-3,2.88C66,513.25,65.11,514,65,513.83Z"/><path class="cls-8" d="M28.74,610.71c-.41.09-1.64-3.91-3.48-11.21s-4.3-17.93-6.88-31.18c-1.3-6.62-2.56-13.91-3.77-21.76l-.84-6c-.15-1-.29-2-.43-3.08L13,534.34q-.36-3.17-.74-6.41l-.6-6.61a269.06,269.06,0,0,1,1-58.38,182.23,182.23,0,0,1,17.1-56A144.83,144.83,0,0,1,57.55,368a109.48,109.48,0,0,1,25.92-19.14c6.78-3.49,10.83-4.67,11-4.34s-3.51,2.36-9.77,6.4a128.19,128.19,0,0,0-24,20.11,150.69,150.69,0,0,0-25.83,38.39,186.68,186.68,0,0,0-16.1,54.36,286.41,286.41,0,0,0-1.46,57.12l.47,6.52q.3,3.23.6,6.34l.29,3.11c.12,1,.23,2,.35,3l.67,6c1,7.81,2,15.08,3,21.72l5,31.44C28.72,606.47,29.16,610.63,28.74,610.71Z"/><path class="cls-8" d="M75.43,581.77c-.21,0-.47-.84-.76-2.44-.15-.8-.3-1.79-.46-3-.08-.58-.17-1.21-.25-1.88s-.27-1.37-.41-2.12l-.91-5q-.63-2.71-1.38-5.87c-1.05-4.19-2.43-8.92-4.16-14.08-3.42-10.36-8.57-22.34-13.93-35.94-2.68-6.81-5.32-14.08-7.61-21.8a125.08,125.08,0,0,1-4.89-24.57A109.9,109.9,0,0,1,41.2,440,145.36,145.36,0,0,1,46,417.24,208.37,208.37,0,0,1,60.55,381a241.73,241.73,0,0,1,13-22.76c3.39-5.18,5.51-7.88,5.86-7.67s-1,3.34-3.79,8.85-6.73,13.45-11.19,23.44a240,240,0,0,0-13,35.93,149.39,149.39,0,0,0-4.29,22,109.34,109.34,0,0,0-.39,23.83A126.21,126.21,0,0,0,51.32,488c2.15,7.5,4.62,14.65,7.13,21.45,5,13.6,9.83,25.92,12.79,36.67,1.5,5.36,2.62,10.29,3.38,14.66.33,2.19.65,4.23.9,6.11l.4,5.18.13,2.2,0,1.94q0,1.8-.12,3C75.8,580.91,75.64,581.76,75.43,581.77Z"/><path class="cls-8" d="M79.77,720.78c-.11-.18.55-.85,1.88-2,.67-.56,1.51-1.22,2.52-2s2.17-1.65,3.43-2.69l4.28-3.39c1.54-1.26,3.18-2.68,5-4.16s3.61-3.17,5.58-4.91,4-3.68,6.06-5.7,4.19-4.25,6.42-6.51c1.13-1.12,2.18-2.37,3.29-3.59s2.24-2.46,3.36-3.76l3.34-4c.56-.68,1.14-1.35,1.7-2.06l1.65-2.15c1.11-1.44,2.26-2.89,3.37-4.39l3.31-4.64c1.14-1.54,2.17-3.19,3.26-4.83s2.21-3.28,3.21-5,2.09-3.46,3.16-5.21l3-5.44a216.7,216.7,0,0,0,10.82-23.45,216.33,216.33,0,0,0,7.69-24.65c.47-2,.94-4,1.41-6s.77-4,1.16-6,.67-3.94,1-5.88.63-3.86.82-5.77.44-3.79.65-5.65.3-3.71.45-5.53c.07-.9.14-1.81.21-2.7s.07-1.79.11-2.67c.08-1.77.15-3.5.22-5.21s0-3.39,0-5.05.05-3.27,0-4.86c-.14-3.17-.14-6.23-.4-9.13s-.35-5.69-.68-8.3-.47-5.09-.84-7.38-.6-4.45-.9-6.42l-.9-5.37c-.24-1.63-.51-3.06-.75-4.3s-.41-2.31-.53-3.17c-.25-1.72-.28-2.66-.07-2.72s.63.77,1.26,2.4c.32.82.69,1.83,1.11,3s.88,2.61,1.3,4.21.92,3.39,1.44,5.34.92,4.12,1.42,6.43.88,4.8,1.33,7.44.77,5.46,1.13,8.42.54,6.07.8,9.32c.15,1.62.16,3.28.22,5s.13,3.41.15,5.17,0,3.53-.06,5.35c0,.9,0,1.82,0,2.74s-.1,1.84-.14,2.78c-.11,1.86-.18,3.76-.33,5.68s-.36,3.85-.55,5.82-.47,3.94-.73,5.95-.51,4-.91,6.07-.74,4.09-1.11,6.17l-1.39,6.24a205.86,205.86,0,0,1-7.8,25.45,207.53,207.53,0,0,1-11.27,24.13l-3.16,5.56-3.31,5.32c-1.06,1.77-2.26,3.44-3.39,5.11s-2.24,3.35-3.44,4.91l-3.5,4.69c-1.18,1.52-2.4,3-3.57,4.43l-1.76,2.16c-.59.7-1.2,1.38-1.8,2.06q-1.8,2-3.55,4c-1.18,1.29-2.4,2.51-3.56,3.74s-2.3,2.44-3.5,3.54c-2.37,2.23-4.56,4.45-6.84,6.37s-4.36,3.86-6.48,5.49-4,3.29-6,4.64-3.68,2.68-5.35,3.82l-4.65,3c-1.39.91-2.67,1.64-3.79,2.25s-2.08,1.13-2.86,1.52C80.76,720.63,79.89,721,79.77,720.78Z"/><path class="cls-8" d="M197.65,707.76c0-.21,1-.56,3.07-1,1-.26,2.26-.46,3.72-.85l5-1.38c1.86-.57,3.89-1.35,6.13-2.1,1.11-.41,2.23-.94,3.41-1.43l1.81-.77.92-.39.92-.46,3.81-1.94c.66-.32,1.31-.69,2-1.09l2-1.18c.68-.39,1.36-.8,2.05-1.21s1.34-.89,2-1.35c1.35-.94,2.79-1.83,4.18-2.88,11.2-8.17,22.92-20.17,33.08-35.49A212.25,212.25,0,0,0,285.87,629c4.37-9.08,8.46-18.72,12.49-28.69,8-20,15.36-39.31,24.06-56.13s18.5-31,28.37-41.41a124,124,0,0,1,14.36-13c1.1-.91,2.28-1.64,3.35-2.42s2.11-1.51,3.15-2.16c2.1-1.25,4-2.44,5.75-3.39l4.76-2.36c1.4-.65,2.64-1.07,3.62-1.45,2-.72,3.05-1,3.13-.81s-.82.85-2.6,1.93c-.88.55-2,1.14-3.3,1.94l-4.38,2.8c-1.64,1.08-3.37,2.39-5.32,3.75-1,.69-1.9,1.5-2.91,2.3s-2.08,1.59-3.1,2.53A138.89,138.89,0,0,0,354,505.66c-9.16,10.5-18.37,24.46-26.54,41.06S312.11,582.52,304,602.6s-16.79,39.07-27.63,54.77-23.29,27.84-35.28,35.88c-1.47,1-3,1.9-4.46,2.82-.74.44-1.44.91-2.17,1.31l-2.19,1.16-2.12,1.12a21.31,21.31,0,0,1-2.1,1l-4.06,1.8-1,.42-1,.35-1.92.68c-1.26.43-2.45.9-3.63,1.24-2.37.61-4.52,1.24-6.48,1.64s-3.75.63-5.27.87-2.84.21-3.89.27C198.77,708,197.67,708,197.65,707.76Z"/><path class="cls-8" d="M431.6,200.75c-.44,0-.61-2.71-.76-7.45a184.8,184.8,0,0,0-1.94-19.91A143.5,143.5,0,0,0,421.25,145c-.25-.65-.49-1.3-.73-2l-.84-1.95L418,137.11c-.64-1.3-1.28-2.62-1.92-3.94l-1-2-1.08-2a129.4,129.4,0,0,0-9.92-15.72,147.06,147.06,0,0,0-24.88-25.95c-8.59-7.11-16.9-12.88-24-17.64s-12.88-8.52-16.82-11.25-6-4.39-5.82-4.76,2.7.61,7,2.7,10.49,5.3,17.92,9.64a223,223,0,0,1,25.2,16.92A138.06,138.06,0,0,1,409,109.84a124.24,124.24,0,0,1,10.28,16.55l1.1,2.07,1,2.11c.65,1.41,1.29,2.79,1.92,4.17s1.13,2.79,1.68,4.16c.28.69.55,1.37.83,2s.47,1.38.7,2.06a126,126,0,0,1,6.65,29.83,107.62,107.62,0,0,1,0,20.53C432.64,198.19,432,200.79,431.6,200.75Z"/><path class="cls-8" d="M120,177.91c-.69-.27,2.63-11.5,10.9-28.48a274.71,274.71,0,0,1,16.42-28.82,284.93,284.93,0,0,1,24.61-32.35c4.78-5.41,9.58-10.59,14.57-15.29a176,176,0,0,1,15-12.79,133.27,133.27,0,0,1,15.06-9.75c2.51-1.29,4.89-2.6,7.31-3.61,1.21-.51,2.36-1.07,3.53-1.52L230.86,44a67.17,67.17,0,0,1,22.22-4.13,34.49,34.49,0,0,1,6.13.37c1.39.2,2.1.41,2.09.62s-.74.42-2.11.62-3.38.29-5.92.77a81.79,81.79,0,0,0-20.86,5.8l-3.22,1.39c-1.09.48-2.17,1.08-3.29,1.63-2.25,1.06-4.48,2.42-6.82,3.74a144,144,0,0,0-14.14,9.82A190.86,190.86,0,0,0,190.62,77.3c-4.77,4.6-9.44,9.69-14.13,15A342.09,342.09,0,0,0,152,123.76c-6.95,10.12-12.7,19.58-17.28,27.69C125.56,167.67,120.84,178.26,120,177.91Z"/><path class="cls-8" d="M143.76,79.37c-.18-.11,0-.71.44-1.79.13-.27.26-.57.42-.9s.38-.64.61-1A18.46,18.46,0,0,1,147,73.25c2.75-3.54,8-7.79,15.3-11a84.22,84.22,0,0,1,12.24-4.16c2.24-.59,4.56-1.12,6.95-1.63L188.79,55a330.81,330.81,0,0,1,33.08-4.43,321.72,321.72,0,0,1,60.53.56c15.41,1.69,24.74,4,24.63,4.76s-9.63.13-24.95-.44a495.63,495.63,0,0,0-59.7,1.23c-11.62,1-22.65,2.33-32.64,3.89-5,.83-9.75,1.53-14.07,2.48a93.1,93.1,0,0,0-11.82,3.23,45.08,45.08,0,0,0-15.17,8.57,27.72,27.72,0,0,0-2,1.91l-.8.78-.64.69C144.45,79.09,143.94,79.48,143.76,79.37Z"/><path class="cls-8" d="M111.39,156c-.21,0-.18-1,0-2.79.12-.9.29-2,.52-3.3.11-.65.24-1.34.37-2.09s.36-1.52.55-2.36l1.4-5.52c.57-2,1.29-4.16,2-6.48s1.71-4.74,2.68-7.33,2.19-5.25,3.44-8.06l1-2.13c.33-.71.71-1.41,1.07-2.13l2.26-4.39c.73-1.51,1.64-3,2.51-4.48s1.75-3.06,2.7-4.6l3-4.63c.52-.78,1-1.58,1.56-2.36L138.19,91c1.14-1.56,2.26-3.17,3.47-4.74l3.79-4.7c1.25-1.62,2.67-3.12,4.05-4.68s2.77-3.17,4.3-4.66l4.56-4.6,4.87-4.45a159.49,159.49,0,0,1,46.54-28.93l6.15-2.4,6.14-2.05c2-.72,4.07-1.22,6.08-1.8s4-1.15,6-1.56L240,25.09c1.94-.38,3.88-.68,5.78-1l2.84-.48c.93-.14,1.88-.23,2.8-.35l5.49-.66c1.8-.17,3.58-.26,5.32-.38s3.45-.28,5.13-.27l4.93-.08c.81,0,1.6,0,2.39,0l2.33.08c3.07.12,6,.17,8.75.48s5.35.43,7.76.84,4.65.67,6.7,1.05l5.58,1.19c.83.19,1.62.35,2.36.55l2,.59c1.26.37,2.33.71,3.18,1,1.71.57,2.58,1,2.53,1.18s-1,.21-2.8,0c-.9-.09-2-.23-3.28-.42l-2.07-.3c-.75-.11-1.54-.17-2.38-.27l-5.57-.65c-2-.2-4.26-.33-6.64-.53s-4.93-.24-7.63-.36-5.55-.05-8.55,0l-2.27,0c-.77,0-1.54.08-2.32.12l-4.8.27c-1.63.05-3.28.29-5,.44s-3.41.32-5.16.54l-5.3.79c-.9.14-1.81.26-2.71.42l-2.74.54c-1.83.37-3.7.7-5.58,1.12l-5.67,1.39c-1.93.43-3.83,1.06-5.77,1.62s-3.91,1.1-5.84,1.82L218,37.39l-5.91,2.38A161.52,161.52,0,0,0,167.2,67.66l-4.76,4.25L158,76.29c-1.51,1.42-2.85,3-4.23,4.44s-2.76,2.91-4,4.45L146,89.66c-1.2,1.5-2.33,3-3.47,4.51l-1.69,2.21c-.55.74-1.06,1.51-1.58,2.25l-3,4.4c-1,1.47-1.86,3-2.77,4.38s-1.83,2.83-2.6,4.27l-2.36,4.18c-.38.69-.78,1.35-1.13,2l-1,2c-1.34,2.68-2.69,5.2-3.74,7.69s-2.23,4.76-3.06,7-1.74,4.27-2.46,6.18-1.32,3.7-1.88,5.29c-.29.79-.58,1.54-.82,2.24l-.64,2q-.61,1.86-1.08,3.12C112,155.13,111.59,156,111.39,156Z"/><path class="cls-8" d="M106.91,333.81c-.2.07-.68-.76-1.41-2.4-.36-.82-.79-1.84-1.28-3.06s-1-2.63-1.56-4.24-1.13-3.42-1.78-5.39-1.19-4.15-1.85-6.49-1.22-4.86-1.85-7.53-1.18-5.53-1.76-8.53-1-6.16-1.54-9.46c-.28-1.64-.43-3.34-.64-5.06s-.41-3.47-.58-5.26-.29-3.61-.43-5.46-.26-3.74-.33-5.65-.18-3.86-.23-5.83,0-4,0-6A245.85,245.85,0,0,1,93,228.13,249.55,249.55,0,0,1,104.52,175a245.71,245.71,0,0,1,9.25-23.62l2.52-5.43c.86-1.78,1.76-3.5,2.62-5.21s1.72-3.39,2.64-5l2.65-4.79c.9-1.56,1.83-3.06,2.71-4.55s1.75-3,2.68-4.34c1.84-2.78,3.51-5.51,5.32-8s3.42-4.88,5.13-7,3.22-4.25,4.81-6.09,3-3.59,4.36-5.14l3.85-4.16c1.15-1.26,2.23-2.32,3.18-3.22s1.76-1.66,2.44-2.25c1.34-1.19,2.12-1.75,2.27-1.6s-.32,1-1.36,2.43c-.52.73-1.19,1.61-2,2.63s-1.73,2.2-2.73,3.56l-3.39,4.45L147.56,103c-1.43,1.9-2.82,4.05-4.36,6.27s-3.06,4.64-4.68,7.16-3.19,5.25-4.89,8c-.87,1.39-1.64,2.87-2.47,4.35s-1.68,3-2.51,4.54-1.63,3.16-2.46,4.77-1.66,3.27-2.46,5-1.64,3.4-2.44,5.15-1.56,3.55-2.35,5.37c-3.07,7.28-6.13,15-8.71,23.22s-5,16.78-7,25.69S100,220.25,99,228.79s-1.46,16.84-1.69,24.74c0,2,0,3.93-.07,5.86s.06,3.83.09,5.7.06,3.72.17,5.54.18,3.6.26,5.36.28,3.48.41,5.17.23,3.36.44,5c.4,3.24.65,6.38,1.13,9.33s.79,5.81,1.3,8.46.85,5.19,1.37,7.52.92,4.52,1.33,6.52.87,3.82,1.25,5.46.7,3.11,1,4.37.54,2.34.72,3.22C107,332.78,107.11,333.74,106.91,333.81Z"/><path class="cls-8" d="M439.52,236.7c-.2.08-.72-.68-1.54-2.22-.4-.78-.92-1.73-1.43-2.9s-1.08-2.52-1.72-4.06a160.33,160.33,0,0,1-7.54-27c-2.36-11.59-4.09-25.54-6.23-40.84C420,152,418.71,144.07,417,135.92a171.82,171.82,0,0,0-7-24.67,106.57,106.57,0,0,0-11.42-22.62,78,78,0,0,0-15.69-17.34,83,83,0,0,0-18.1-11.14,88.56,88.56,0,0,0-33.08-7.56,95.32,95.32,0,0,0-11.73.43c-1.6.19-3,.35-4.28.47s-2.28.38-3.14.49c-1.71.23-2.65.26-2.71.05s.76-.62,2.4-1.25c.82-.3,1.84-.68,3.06-1.07s2.68-.67,4.31-1.05a75.39,75.39,0,0,1,12.07-1.5,81.19,81.19,0,0,1,16.15,1,87,87,0,0,1,19,5.31,84.44,84.44,0,0,1,19.61,11.4,81.25,81.25,0,0,1,17.13,18.36,108.78,108.78,0,0,1,12.2,23.86,168.31,168.31,0,0,1,7.16,25.59c1.7,8.38,2.87,16.53,3.81,24.26,1.84,15.47,3.11,29.32,4.9,40.84a236.16,236.16,0,0,0,5.54,27c.88,3.14,1.56,5.58,2,7.24S439.71,236.62,439.52,236.7Z"/><path class="cls-8" d="M415.67,199.46c-.42,0-.63-2.73-.7-7.57s0-11.85-.29-20.43c-.12-4.29-.41-9-.84-14-.3-2.49-.48-5.08-.92-7.7-.21-1.32-.37-2.66-.61-4s-.52-2.69-.78-4.07a103.53,103.53,0,0,0-4.92-16.7,80.44,80.44,0,0,0-8.85-16.23,75.12,75.12,0,0,0-12.53-13.6c-2.23-2-4.66-3.75-7-5.51s-4.75-3.28-7.18-4.67a185.71,185.71,0,0,0-26.95-13c-8-3.19-14.56-5.57-19.08-7.33s-7-2.89-6.85-3.3,2.8,0,7.55,1,11.56,2.83,19.87,5.54a156.09,156.09,0,0,1,28.31,12.23c2.58,1.38,5.08,3.08,7.68,4.73,2.49,1.83,5.09,3.61,7.51,5.75a77.33,77.33,0,0,1,13.62,14.6,81.6,81.6,0,0,1,9.46,17.61,101.27,101.27,0,0,1,4.87,17.82c.24,1.45.47,2.88.7,4.29s.33,2.8.5,4.18c.36,2.74.44,5.42.64,8,.22,5.17.26,10,.1,14.34-.3,8.73-1,15.75-1.66,20.57S416.09,199.49,415.67,199.46Z"/><path class="cls-8" d="M385.59,202.16c-.42.06-1.17-2-2.16-5.66-.23-.92-.5-1.95-.78-3.07l-1-3.64c-.73-2.6-1.43-5.59-2.44-8.83q-.7-2.44-1.48-5.11c-.51-1.77-1.16-3.59-1.75-5.48-1.16-3.81-2.66-7.79-4.14-12-3.17-8.36-7-17.42-11.49-26.68s-9.51-17.73-14.23-25.32c-2.44-3.74-4.7-7.34-7-10.57-1.15-1.63-2.2-3.24-3.3-4.73l-3.16-4.28c-2-2.77-3.92-5.13-5.54-7.29l-2.28-3-2-2.49c-2.33-3-3.49-4.85-3.19-5.15s2,1,4.94,3.52L327,74.54c.85.81,1.74,1.73,2.7,2.7,1.9,2,4.11,4.19,6.33,6.83l3.53,4.11c1.22,1.44,2.39,3,3.65,4.61,2.56,3.17,5,6.74,7.65,10.49a215.85,215.85,0,0,1,26.32,53.21c1.38,4.36,2.72,8.49,3.69,12.44.5,2,1,3.86,1.45,5.7s.76,3.62,1.12,5.31c.76,3.36,1.17,6.47,1.58,9.17.2,1.36.39,2.62.52,3.78s.18,2.24.26,3.21C386.05,200,386,202.1,385.59,202.16Z"/><path class="cls-8" d="M100.35,204.53c-.35-.23,1-2.9,3.78-7.54l2.33-3.84c.89-1.38,1.93-2.83,3-4.41,2.21-3.14,4.64-6.79,7.69-10.54l4.69-6c1.65-2.06,3.51-4.09,5.36-6.25l2.85-3.27c.49-.55,1-1.12,1.47-1.67l1.56-1.63,6.48-6.75a290.86,290.86,0,0,1,66.37-50l8.28-4.35,2-1c.67-.34,1.35-.64,2-1l3.94-1.84c2.58-1.18,5-2.4,7.48-3.42l7-2.86c4.45-1.89,8.63-3.21,12.25-4.47,1.82-.61,3.5-1.2,5.08-1.67l4.34-1.19c5.22-1.37,8.15-1.94,8.28-1.53s-2.56,1.73-7.51,3.79L255,84.85c-1.5.63-3.11,1.37-4.85,2.12-3.47,1.55-7.48,3.13-11.76,5.25l-6.76,3.18c-2.35,1.11-4.73,2.42-7.22,3.68l-3.8,2c-.64.33-1.3.65-1.94,1l-1.93,1.09-8,4.51a375.77,375.77,0,0,0-34.08,22.57,380.33,380.33,0,0,0-31.12,26.5L137,163.15l-1.59,1.56c-.51.52-1,1.06-1.5,1.58L131,169.4c-1.9,2.06-3.82,4-5.53,5.92L120.51,181c-3.22,3.52-5.85,6.94-8.3,9.84-1.2,1.47-2.36,2.81-3.38,4.07l-2.75,3.5C102.73,202.55,100.71,204.76,100.35,204.53Z"/><path class="cls-8" d="M456.26,240.93c-.21,0-.45-.79-.73-2.31-.14-.75-.29-1.69-.44-2.8s-.3-2.38-.55-3.81-.46-3-.73-4.76-.66-3.61-1-5.63-.86-4.15-1.33-6.42-1.11-4.64-1.74-7.13-1.44-5.06-2.21-7.75c-.37-1.35-.88-2.69-1.34-4.08s-.93-2.78-1.44-4.2l-1.65-4.3c-.28-.72-.55-1.46-.85-2.19s-.63-1.46-.95-2.2c-.64-1.47-1.26-3-1.94-4.48l-2.16-4.52c-.7-1.55-1.54-3-2.34-4.58s-1.59-3.1-2.51-4.61l-2.7-4.65-2.93-4.61a165.9,165.9,0,0,0-29.66-34.36L392.91,118l-4.2-3.34c-1.37-1.13-2.81-2.13-4.2-3.16s-2.76-2.07-4.19-3l-4.16-2.79c-1.38-.9-2.79-1.73-4.15-2.58l-2-1.25c-.68-.41-1.37-.78-2.05-1.17l-4-2.26c-1.32-.71-2.65-1.36-3.95-2s-2.55-1.35-3.83-1.91c-2.56-1.15-5-2.38-7.35-3.32s-4.62-2-6.8-2.76-4.2-1.64-6.16-2.25-3.74-1.29-5.42-1.83l-4.6-1.4c-1.38-.46-2.62-.81-3.69-1.11s-2-.6-2.71-.84c-1.46-.5-2.21-.86-2.18-1.07s.86-.25,2.41-.15c.77.06,1.73.15,2.85.27s2.43.29,3.87.57l4.8.91c1.75.37,3.63.87,5.66,1.37S341,84,343.26,84.72s4.64,1.53,7.13,2.41,5,2,7.7,3c1.34.53,2.66,1.18,4,1.8s2.75,1.26,4.15,2l4.2,2.19c.71.37,1.44.73,2.15,1.13l2.14,1.23c1.43.83,2.9,1.65,4.35,2.54l4.37,2.79c1.49.91,2.92,2,4.39,3s3,2,4.4,3.19l4.4,3.39L401,117a159.37,159.37,0,0,1,30.76,35.63q1.5,2.43,3,4.82l2.71,4.85c.93,1.58,1.7,3.22,2.52,4.82s1.63,3.17,2.32,4.78l2.12,4.73c.66,1.56,1.26,3.14,1.87,4.67.31.77.61,1.54.91,2.3s.54,1.53.81,2.29l1.55,4.48c.47,1.48.88,3,1.32,4.38s.87,2.84,1.19,4.24c.67,2.81,1.43,5.47,1.89,8.07s1,5,1.35,7.4.72,4.55.89,6.64.41,4,.53,5.8.13,3.42.19,4.89,0,2.77,0,3.9-.09,2.09-.15,2.86C456.64,240.12,456.48,240.93,456.26,240.93Z"/><path class="cls-8" d="M393.73,567.3c-.36-.23,1.64-4.32,5.55-11.5l3.28-6c1.16-2.19,2.32-4.63,3.63-7.22,2.56-5.2,5.74-11,8.62-17.68l4.74-10.41c.86-1.79,1.55-3.7,2.34-5.61s1.56-3.87,2.36-5.85l2.44-6.05c.41-1,.85-2,1.24-3.11s.75-2.12,1.13-3.2l4.68-13.26a493.7,493.7,0,0,0,15.71-60.52,493.28,493.28,0,0,0,7.12-62.12q.19-7.21.4-14.05c0-1.14.07-2.27.1-3.39s0-2.24,0-3.35c0-2.21-.07-4.38-.11-6.52s-.06-4.25-.09-6.31,0-4.1-.17-6.08q-.35-6-.68-11.41c-.27-7.29-1.16-13.83-1.67-19.61-.3-2.88-.5-5.57-.8-8s-.64-4.71-.91-6.73c-1.06-8.11-1.46-12.65-1-12.73s1.6,4.3,3.39,12.33c.43,2,.92,4.24,1.45,6.69s.84,5.15,1.3,8c.85,5.78,2.05,12.35,2.6,19.69q.52,5.51,1.08,11.51c.23,2,.25,4.05.36,6.14s.17,4.22.26,6.38.18,4.37.27,6.6c0,1.12.11,2.25.12,3.39s0,2.28,0,3.43q-.08,6.93-.15,14.25a445.32,445.32,0,0,1-6.73,63,443.88,443.88,0,0,1-16.4,61.23q-2.55,6.86-5,13.35-.6,1.62-1.2,3.21c-.42,1.06-.89,2.09-1.33,3.12L428.94,505q-1.31,3-2.55,5.86c-.85,1.91-1.6,3.82-2.54,5.6l-5.15,10.35c-3.15,6.65-6.63,12.35-9.5,17.44-1.47,2.52-2.79,4.9-4.11,7s-2.63,4-3.76,5.73C396.77,563.86,394.09,567.53,393.73,567.3Z"/><path class="cls-8" d="M317,626c-.14-.16.67-1.14,2.34-2.84.83-.85,1.88-1.88,3.13-3.08l2-1.93c.72-.7,1.45-1.47,2.25-2.26l5.29-5.28c1.92-2,3.92-4.15,6.13-6.45s4.43-4.88,6.85-7.56,4.84-5.64,7.42-8.71l1.94-2.33c.66-.79,1.28-1.62,1.92-2.45q1.94-2.48,3.95-5.07c1.38-1.7,2.64-3.54,4-5.37s2.71-3.69,4.06-5.62l4-5.94c.67-1,1.38-2,2-3l2-3.16c1.33-2.12,2.72-4.25,4.05-6.46l4-6.75c1.38-2.26,2.6-4.65,3.91-7s2.64-4.76,3.84-7.26,2.5-5,3.76-7.49l3.59-7.76c4.71-10.5,9.1-21.59,13-33.15s6.92-23.1,9.43-34.33l1.78-8.37q.74-4.17,1.47-8.26c.52-2.71.86-5.43,1.26-8.11s.82-5.32,1.07-8,.59-5.22.87-7.78.42-5.1.63-7.6c.1-1.25.19-2.49.29-3.72s.12-2.46.18-3.67q.16-3.64.33-7.17c.07-2.35.07-4.67.11-6.94s.11-4.5,0-6.69-.08-4.32-.13-6.42c0-1,0-2.08-.07-3.11s-.11-2-.16-3c-.23-4-.36-7.82-.73-11.41s-.54-7-1-10.17-.68-6.11-1.05-8.82-.75-5.18-1.07-7.41c-.17-1.11-.29-2.17-.45-3.15s-.32-1.9-.47-2.76c-.28-1.71-.5-3.16-.66-4.34-.32-2.36-.39-3.63-.18-3.68s.68,1.12,1.39,3.4c.35,1.14.76,2.56,1.24,4.24.23.85.48,1.75.74,2.72s.47,2,.73,3.12q.72,3.33,1.62,7.38c.53,2.71,1,5.67,1.56,8.84s1,6.61,1.44,10.23.81,7.48,1.18,11.53c.09,1,.18,2,.27,3.07s.11,2.09.18,3.15q.15,3.19.32,6.51c.15,2.22.11,4.48.16,6.79s.08,4.66.06,7.05-.11,4.82-.17,7.29c0,1.23,0,2.48-.11,3.73s-.15,2.52-.23,3.79c-.16,2.54-.28,5.13-.49,7.74s-.51,5.25-.77,7.93-.63,5.38-1,8.11-.68,5.5-1.19,8.27-.94,5.59-1.41,8.42-1.16,5.66-1.74,8.53a346.06,346.06,0,0,1-9.49,35A348.34,348.34,0,0,1,405,514.68c-1.25,2.64-2.48,5.27-3.71,7.87s-2.62,5.09-3.91,7.59-2.66,4.93-4,7.34-2.63,4.8-4.06,7.08l-4.14,6.81c-1.39,2.22-2.84,4.37-4.23,6.5L378.82,561c-.7,1-1.44,2.05-2.15,3.06L372.45,570c-1.42,1.93-2.87,3.78-4.27,5.61s-2.74,3.66-4.19,5.34l-4.16,5c-.68.81-1.33,1.63-2,2.41l-2.06,2.3c-2.71,3-5.25,5.94-7.84,8.53s-4.9,5.15-7.28,7.33-4.49,4.31-6.54,6.15l-5.71,4.94c-.87.73-1.67,1.44-2.45,2.07l-2.23,1.73q-2.07,1.6-3.53,2.65C318.24,625.54,317.16,626.19,317,626Z"/><path class="cls-8" d="M202.25,705.81c-.05-.21,1.37-.79,4.11-1.7,1.37-.45,3.07-1,5.08-1.61l3.25-1,3.64-1.29,8.56-3,10-4c7.12-3,15.11-6.71,23.66-11.33,1.07-.57,2.18-1.1,3.25-1.73l3.25-1.92,6.71-4c2.27-1.37,4.49-2.92,6.8-4.42l3.48-2.29c.58-.39,1.18-.76,1.76-1.17l1.72-1.26,7-5.14,1.78-1.31,1.74-1.41,3.51-2.86c4.8-3.72,9.34-8,14.13-12.28a281.94,281.94,0,0,0,27-29.71,257.46,257.46,0,0,0,23.19-36.27,271.37,271.37,0,0,0,16.95-39.66c2.38-6.57,4.19-13.2,6.14-19.63,1.65-6.53,3.44-12.87,4.74-19.18,5.67-25.12,8.6-48.23,10.78-67.65S408,394.8,409,383.89s1.77-16.94,2.2-16.92.48,6.1.18,17.07-1,26.83-2.57,46.42-4.13,42.91-9.58,68.44c-1.24,6.4-3,12.86-4.61,19.5-1.91,6.57-3.71,13.32-6.1,20A267.71,267.71,0,0,1,371.34,579a255.12,255.12,0,0,1-23.89,37.11,276.64,276.64,0,0,1-27.9,30.15c-4.94,4.3-9.64,8.63-14.6,12.36l-3.63,2.85-1.8,1.41-1.84,1.32-7.26,5.11-1.77,1.25c-.6.41-1.22.77-1.82,1.16l-3.6,2.26c-2.39,1.47-4.68,3-7,4.34l-6.93,3.86-3.36,1.86c-1.1.62-2.25,1.12-3.35,1.67a241,241,0,0,1-24.41,10.67c-3.7,1.3-7.13,2.55-10.31,3.6L219,702.51c-1.32.37-2.57.73-3.75,1l-3.35.72c-2.08.43-3.84.79-5.26,1C203.81,705.84,202.3,706,202.25,705.81Z"/><path class="cls-8" d="M62,600.26c-.08-.42,4.86-1.81,13.84-4l7.47-1.76,8.85-2.24c6.35-1.63,13.62-3.3,21.55-5.55l12.49-3.36c4.34-1.18,8.81-2.57,13.46-3.91l7.09-2.07,3.63-1.07,3.66-1.17,15.16-4.81c20.67-6.85,43.2-14.94,66.48-24.4s45-19.6,64.51-29.21l14.19-7.19,3.43-1.74,3.34-1.78,6.51-3.49c4.26-2.31,8.42-4.44,12.34-6.65l11.26-6.35c7.23-4,13.59-7.87,19.25-11.15l7.89-4.61,6.56-4c7.92-4.75,12.42-7.22,12.65-6.86s-3.81,3.48-11.34,8.86l-6.3,4.45c-2.32,1.59-4.9,3.25-7.64,5.05-5.52,3.58-11.74,7.76-18.87,12L342.36,500c-3.88,2.32-8,4.58-12.24,7l-6.47,3.66-3.32,1.85c-1.13.6-2.26,1.21-3.41,1.81l-14.16,7.47c-19.52,10-41.35,20.2-64.74,29.84s-46.18,17.51-67.08,24.11l-15.34,4.59-3.7,1.11-3.67,1-7.17,1.93c-4.71,1.24-9.24,2.53-13.63,3.59l-12.65,3c-8,2-15.41,3.36-21.85,4.68-3.23.64-6.22,1.26-9,1.75l-7.6,1.25C67.18,600.07,62.1,600.67,62,600.26Z"/><path class="cls-8" d="M98.29,667.29c-.11-.41,4.76-2.1,13.65-4.82l37.67-11.23c15.87-4.78,34.72-10.63,55.28-18.08A531.2,531.2,0,0,0,270,604.89c11.11-5.89,21.65-12.17,31.54-18.68l7.29-4.94,7-5.07c2.33-1.64,4.52-3.41,6.71-5.12l3.27-2.57,1.62-1.27,1.56-1.32,6.15-5.2c2-1.72,3.89-3.53,5.81-5.26,3.87-3.4,7.31-7,10.78-10.41,1.71-1.71,3.27-3.5,4.87-5.19.8-.86,1.59-1.7,2.36-2.54l1.17-1.25,1.09-1.29,4.28-5,2.06-2.43,1.91-2.47c2.5-3.27,5-6.3,7.06-9.38l3.11-4.42c.5-.72,1-1.41,1.47-2.12s.9-1.42,1.34-2.11c1.73-2.77,3.42-5.32,4.87-7.72l3.83-6.66c.57-1,1.14-1.94,1.63-2.84s.92-1.75,1.33-2.54c.83-1.58,1.55-2.91,2.14-4,1.2-2.13,1.93-3.21,2.12-3.13s-.15,1.33-1,3.64c-.42,1.15-1,2.57-1.62,4.25l-1.09,2.69c-.41,1-.9,1.94-1.4,3l-3.4,7c-1.32,2.52-2.88,5.19-4.51,8.09l-1.25,2.21c-.43.74-.93,1.46-1.4,2.22l-3,4.62c-2,3.22-4.39,6.39-6.82,9.81L371,530.06c-.67.83-1.34,1.68-2,2.54q-2.07,2.56-4.21,5.25l-1.08,1.34-1.15,1.31-2.34,2.65c-1.59,1.77-3.14,3.63-4.85,5.41-3.45,3.52-6.88,7.29-10.76,10.83-1.92,1.79-3.81,3.68-5.84,5.46l-6.18,5.4L331,571.62l-1.63,1.31-3.29,2.66c-2.22,1.77-4.43,3.6-6.79,5.3l-7.06,5.23-7.38,5.08a365.37,365.37,0,0,1-32,19.11,484.24,484.24,0,0,1-66,28.17c-20.84,7.22-39.92,12.67-56,16.92s-29.17,7.37-38.25,9.38S98.4,667.7,98.29,667.29Z"/><path class="cls-8" d="M263.19,679.28c-.08.2-1,0-2.74-.62-.85-.3-1.9-.69-3.14-1.17s-2.65-1-4.21-1.77a220.73,220.73,0,0,1-25.76-13.62c-2.66-1.55-5.33-3.37-8.17-5.18s-5.66-3.88-8.64-6-6-4.33-9-6.77c-1.51-1.2-3.07-2.4-4.6-3.66l-4.63-3.89c-6.17-5.33-12.53-11.09-18.7-17.48s-12.35-13.22-18.3-20.53S144,583.84,139.08,576.44s-9.27-14.79-13.2-21.94q-1.44-2.7-2.83-5.34c-.91-1.77-1.76-3.54-2.62-5.27-1.75-3.44-3.22-6.9-4.74-10.19s-2.81-6.55-4-9.69-2.4-6.14-3.37-9.07a221.34,221.34,0,0,1-7.93-28c-.37-1.67-.64-3.18-.85-4.49S99.14,480,99,479.1c-.22-1.8-.24-2.77,0-2.82s.63.83,1.24,2.53c.31.86.66,1.91,1.06,3.17s.84,2.7,1.39,4.31c2,6.5,5.17,15.85,9.68,27.12,1.08,2.84,2.4,5.73,3.68,8.79s2.78,6.15,4.27,9.39,3.13,6.54,4.93,9.88c.89,1.68,1.76,3.39,2.69,5.11l2.89,5.18c4,6.94,8.31,14.16,13.24,21.34s10.24,14.47,16,21.67,11.83,13.91,17.85,20.21S190.08,627,196,632.39l4.46,3.9c1.48,1.27,3,2.48,4.43,3.7,2.89,2.47,5.85,4.66,8.63,6.89s5.6,4.23,8.3,6.14,5.27,3.79,7.82,5.43c10.08,6.77,18.57,11.77,24.5,15.14,1.46.87,2.78,1.61,3.93,2.26s2.1,1.22,2.87,1.69C262.52,678.5,263.28,679.09,263.19,679.28Z"/><path class="cls-1" d="M169.75,528.52c-.91-.18.3-8.68.93-22.44.33-6.88.51-15.08.39-24.19s-.52-19.13-1.12-29.67-1.2-20.6-1.74-29.74a183.84,183.84,0,0,0-2.72-23.85c-2.52-13.4-7-20.79-6.16-21.3.18-.11.62.25,1.31,1,.34.4.75.9,1.21,1.52s.91,1.37,1.43,2.21a53.88,53.88,0,0,1,3.28,6.46,73.06,73.06,0,0,1,3.14,9.07,140.34,140.34,0,0,1,4.14,24.4c.85,9.2,1.63,19.22,2.23,29.86s.85,20.77.65,30A233.87,233.87,0,0,1,175,506.46C173.24,520.39,170.49,528.68,169.75,528.52Z"/><path class="cls-1" d="M201.18,576.56c-.19-.41,1.63-1.67,4.94-3.79s8.06-5.21,13.63-9.38c2.79-2.08,5.74-4.49,8.84-7.14s6.26-5.64,9.42-9a141.5,141.5,0,0,0,31.41-50c1.61-4.28,2.86-8.45,4-12.38s1.94-7.64,2.6-11.06c1.34-6.82,2.07-12.44,2.54-16.34s.83-6.09,1.27-6.1.86,2.18,1.11,6.18a96.92,96.92,0,0,1-.64,16.94c-.41,3.57-1.07,7.45-1.94,11.6a134.4,134.4,0,0,1-3.59,13A128.66,128.66,0,0,1,242,551.29c-3.41,3.33-6.89,6.24-10.19,8.88s-6.57,4.87-9.61,6.78a97.12,97.12,0,0,1-15,7.93C203.51,576.39,201.35,576.92,201.18,576.56Z"/></svg>