<svg id="Layer_1" data-name="Layer 1" xmlns="http://www.w3.org/2000/svg" viewBox="0 0 601 501"><defs><style>.cls-1{fill:#fff;}.cls-1,.cls-2,.cls-3{stroke:#000;stroke-miterlimit:10;}.cls-2{fill:#f42121;}.cls-3{fill:#346332;}.cls-4{font-size:49.93px;font-family:MyriadPro-Regular, Myriad Pro;}</style></defs><title>board-simple</title><rect class="cls-1" x="0.5" y="0.5" width="100" height="100"/><rect class="cls-1" x="100.5" y="0.5" width="100" height="100"/><rect class="cls-1" x="200.5" y="0.5" width="100" height="100"/><rect class="cls-1" x="300.5" y="0.5" width="100" height="100"/><rect class="cls-2" x="400.5" y="0.5" width="100" height="100"/><rect class="cls-1" x="500.5" y="0.5" width="100" height="100"/><rect class="cls-1" x="0.5" y="100.5" width="100" height="100"/><rect class="cls-3" x="100.5" y="100.5" width="100" height="100"/><rect class="cls-1" x="200.5" y="100.5" width="100" height="100"/><rect class="cls-1" x="300.5" y="100.5" width="100" height="100"/><rect class="cls-1" x="400.5" y="100.5" width="100" height="100"/><rect class="cls-1" x="500.5" y="100.5" width="100" height="100"/><rect class="cls-1" x="0.5" y="200.5" width="100" height="100"/><rect class="cls-1" x="100.5" y="200.5" width="100" height="100"/><rect class="cls-1" x="200.5" y="200.5" width="100" height="100"/><rect class="cls-2" x="300.5" y="200.5" width="100" height="100"/><rect class="cls-1" x="400.5" y="200.5" width="100" height="100"/><rect class="cls-1" x="500.5" y="200.5" width="100" height="100"/><rect class="cls-1" x="0.5" y="300.5" width="100" height="100"/><rect class="cls-2" x="100.5" y="300.5" width="100" height="100"/><rect class="cls-1" x="200.5" y="300.5" width="100" height="100"/><rect class="cls-1" x="300.5" y="300.5" width="100" height="100"/><rect class="cls-1" x="400.5" y="300.5" width="100" height="100"/><rect class="cls-1" x="500.5" y="300.5" width="100" height="100"/><rect class="cls-1" x="0.5" y="400.5" width="100" height="100"/><rect class="cls-1" x="100.5" y="400.5" width="100" height="100"/><rect class="cls-1" x="200.5" y="400.5" width="100" height="100"/><rect class="cls-1" x="300.5" y="400.5" width="100" height="100"/><rect class="cls-2" x="400.5" y="400.5" width="100" height="100"/><rect class="cls-1" x="500.5" y="400.5" width="100" height="100"/><text class="cls-4" transform="translate(40.38 67.79)">1</text><text class="cls-4" transform="translate(140.38 67.79)">2</text><text class="cls-4" transform="translate(241.38 67.79)">3</text><text class="cls-4" transform="translate(339.38 67.79)">4</text><text class="cls-4" transform="translate(438.38 67.79)">5</text><text class="cls-4" transform="translate(540.38 67.79)">6</text><text class="cls-4" transform="translate(44.38 167.79)">7</text><text class="cls-4" transform="translate(144.38 167.79)">8</text><text class="cls-4" transform="translate(245.38 167.79)">9</text><text class="cls-4" transform="translate(323.38 167.79)">10</text><text class="cls-4" transform="translate(422.38 167.79)">11</text><text class="cls-4" transform="translate(524.38 167.79)">12</text><text class="cls-4" transform="translate(24.38 260.79)">13</text><text class="cls-4" transform="translate(124.38 260.79)">14</text><text class="cls-4" transform="translate(225.38 260.79)">15</text><text class="cls-4" transform="translate(323.38 260.79)">16</text><text class="cls-4" transform="translate(422.38 260.79)">17</text><text class="cls-4" transform="translate(524.38 260.79)">18</text><text class="cls-4" transform="translate(24.38 363.79)">19</text><text class="cls-4" transform="translate(124.38 363.79)">20</text><text class="cls-4" transform="translate(245.38 363.79)">21</text><text class="cls-4" transform="translate(323.38 363.79)">22</text><text class="cls-4" transform="translate(422.38 363.79)">23</text><text class="cls-4" transform="translate(524.38 363.79)">24</text><text class="cls-4" transform="translate(24.38 465.79)">25</text><text class="cls-4" transform="translate(124.38 465.79)">26</text><text class="cls-4" transform="translate(225.38 465.79)">27</text><text class="cls-4" transform="translate(323.38 465.79)">28</text><text class="cls-4" transform="translate(422.38 465.79)">29</text><text class="cls-4" transform="translate(524.38 465.79)">30</text></svg>